STARTFONT 2.1
COMMENT
COMMENT Converted from OpenType font "JF-Dot-Izumi16.ttf" by "otf2bdf 3.0".
COMMENT
FONT -FreeType-JF Dot Izumi Gothic 16-Medium-R-Normal--17-120-100-100-P-157-ISO10646-1
SIZE 12 100 100
FONTBOUNDINGBOX 17 17 0 -2
STARTPROPERTIES 19
FOUNDRY "FreeType"
FAMILY_NAME "JF Dot Izumi Gothic 16"
WEIGHT_NAME "Medium"
SLANT "R"
SETWIDTH_NAME "Normal"
ADD_STYLE_NAME ""
PIXEL_SIZE 17
POINT_SIZE 120
RESOLUTION_X 100
RESOLUTION_Y 100
SPACING "P"
AVERAGE_WIDTH 157
CHARSET_REGISTRY "ISO10646"
CHARSET_ENCODING "1"
FONT_ASCENT 14
FONT_DESCENT 2
COPYRIGHT "-FreeType-JF Dot Izumi Gothic 16-Medium-R-Normal--17-120-100-100-P-157-ISO10646-1"
_OTF_FONTFILE "JF-Dot-Izumi16.ttf"
_OTF_PSNAME "JF-Dot-Izumi-16-Regular"
ENDPROPERTIES
CHARS 11081
STARTCHAR 0020
ENCODING 32
SWIDTH 540 0
DWIDTH 9 0
BBX 0 0 0 0
BITMAP
ENDCHAR
STARTCHAR 0021
ENCODING 33
SWIDTH 540 0
DWIDTH 9 0
BBX 1 12 3 0
BITMAP
80
80
80
80
80
80
80
80
00
00
80
80
ENDCHAR
STARTCHAR 0022
ENCODING 34
SWIDTH 540 0
DWIDTH 9 0
BBX 5 4 2 8
BITMAP
48
48
90
90
ENDCHAR
STARTCHAR 0023
ENCODING 35
SWIDTH 540 0
DWIDTH 9 0
BBX 6 12 1 0
BITMAP
48
48
FC
48
48
48
48
48
FC
48
48
48
ENDCHAR
STARTCHAR 0024
ENCODING 36
SWIDTH 540 0
DWIDTH 9 0
BBX 8 16 1 -1
BITMAP
28
38
38
6C
A8
A8
68
38
28
2C
2B
AB
AB
6C
38
28
ENDCHAR
STARTCHAR 0025
ENCODING 37
SWIDTH 540 0
DWIDTH 9 0
BBX 8 14 1 0
BITMAP
63
63
93
94
64
08
08
10
10
20
2C
53
53
8C
ENDCHAR
STARTCHAR 0026
ENCODING 38
SWIDTH 540 0
DWIDTH 9 0
BBX 8 12 1 0
BITMAP
30
48
48
48
50
20
57
94
88
8C
4B
33
ENDCHAR
STARTCHAR 0027
ENCODING 39
SWIDTH 540 0
DWIDTH 9 0
BBX 2 4 3 8
BITMAP
40
40
80
80
ENDCHAR
STARTCHAR 0028
ENCODING 40
SWIDTH 540 0
DWIDTH 9 0
BBX 3 15 2 -1
BITMAP
20
20
40
40
40
80
80
80
80
80
80
40
40
40
20
ENDCHAR
STARTCHAR 0029
ENCODING 41
SWIDTH 540 0
DWIDTH 9 0
BBX 3 15 3 -1
BITMAP
80
80
40
40
40
20
20
20
20
20
20
40
40
40
80
ENDCHAR
STARTCHAR 002A
ENCODING 42
SWIDTH 540 0
DWIDTH 9 0
BBX 6 7 1 2
BITMAP
84
48
30
FC
30
48
84
ENDCHAR
STARTCHAR 002B
ENCODING 43
SWIDTH 540 0
DWIDTH 9 0
BBX 8 9 1 2
BITMAP
10
10
10
10
FF
10
10
10
10
ENDCHAR
STARTCHAR 002C
ENCODING 44
SWIDTH 540 0
DWIDTH 9 0
BBX 2 4 3 -2
BITMAP
C0
C0
40
80
ENDCHAR
STARTCHAR 002D
ENCODING 45
SWIDTH 540 0
DWIDTH 9 0
BBX 6 1 1 6
BITMAP
FC
ENDCHAR
STARTCHAR 002E
ENCODING 46
SWIDTH 540 0
DWIDTH 9 0
BBX 2 2 3 0
BITMAP
C0
C0
ENDCHAR
STARTCHAR 002F
ENCODING 47
SWIDTH 540 0
DWIDTH 9 0
BBX 8 12 1 0
BITMAP
03
04
04
08
08
10
10
20
20
40
40
80
ENDCHAR
STARTCHAR 0030
ENCODING 48
SWIDTH 540 0
DWIDTH 9 0
BBX 6 14 1 0
BITMAP
30
30
48
48
84
84
84
84
84
84
84
48
48
30
ENDCHAR
STARTCHAR 0031
ENCODING 49
SWIDTH 540 0
DWIDTH 9 0
BBX 2 14 3 0
BITMAP
C0
C0
40
40
40
40
40
40
40
40
40
40
40
40
ENDCHAR
STARTCHAR 0032
ENCODING 50
SWIDTH 540 0
DWIDTH 9 0
BBX 6 14 1 0
BITMAP
30
30
48
84
84
04
08
08
10
20
40
80
80
FC
ENDCHAR
STARTCHAR 0033
ENCODING 51
SWIDTH 540 0
DWIDTH 9 0
BBX 6 14 1 0
BITMAP
30
30
48
84
84
04
08
38
08
04
84
84
48
30
ENDCHAR
STARTCHAR 0034
ENCODING 52
SWIDTH 540 0
DWIDTH 9 0
BBX 8 14 1 0
BITMAP
04
04
0C
0C
14
14
24
24
44
44
FF
04
04
04
ENDCHAR
STARTCHAR 0035
ENCODING 53
SWIDTH 540 0
DWIDTH 9 0
BBX 6 14 1 0
BITMAP
78
78
40
40
40
80
F0
88
04
04
84
84
48
30
ENDCHAR
STARTCHAR 0036
ENCODING 54
SWIDTH 540 0
DWIDTH 9 0
BBX 6 14 1 0
BITMAP
10
10
10
20
20
40
70
48
84
84
84
84
48
30
ENDCHAR
STARTCHAR 0037
ENCODING 55
SWIDTH 540 0
DWIDTH 9 0
BBX 6 14 1 0
BITMAP
FC
FC
04
04
04
08
08
08
10
10
10
20
20
20
ENDCHAR
STARTCHAR 0038
ENCODING 56
SWIDTH 540 0
DWIDTH 9 0
BBX 6 14 1 0
BITMAP
30
30
48
84
84
84
48
30
48
84
84
84
48
30
ENDCHAR
STARTCHAR 0039
ENCODING 57
SWIDTH 540 0
DWIDTH 9 0
BBX 6 14 1 0
BITMAP
30
30
48
84
84
84
84
48
38
08
10
10
20
20
ENDCHAR
STARTCHAR 003A
ENCODING 58
SWIDTH 540 0
DWIDTH 9 0
BBX 2 8 3 2
BITMAP
C0
C0
00
00
00
00
C0
C0
ENDCHAR
STARTCHAR 003B
ENCODING 59
SWIDTH 540 0
DWIDTH 9 0
BBX 2 10 3 0
BITMAP
C0
C0
00
00
00
00
C0
C0
40
80
ENDCHAR
STARTCHAR 003C
ENCODING 60
SWIDTH 540 0
DWIDTH 9 0
BBX 6 11 1 1
BITMAP
04
08
10
20
40
80
40
20
10
08
04
ENDCHAR
STARTCHAR 003D
ENCODING 61
SWIDTH 540 0
DWIDTH 9 0
BBX 6 3 1 5
BITMAP
FC
00
FC
ENDCHAR
STARTCHAR 003E
ENCODING 62
SWIDTH 540 0
DWIDTH 9 0
BBX 6 11 1 1
BITMAP
80
40
20
10
08
04
08
10
20
40
80
ENDCHAR
STARTCHAR 003F
ENCODING 63
SWIDTH 540 0
DWIDTH 9 0
BBX 6 14 1 0
BITMAP
78
78
84
84
84
84
04
08
10
10
00
00
10
10
ENDCHAR
STARTCHAR 0040
ENCODING 64
SWIDTH 540 0
DWIDTH 9 0
BBX 8 14 1 0
BITMAP
38
38
44
83
93
AB
AB
AB
AB
AB
AB
94
40
3F
ENDCHAR
STARTCHAR 0041
ENCODING 65
SWIDTH 540 0
DWIDTH 9 0
BBX 8 14 1 0
BITMAP
10
10
10
28
28
28
44
44
7C
44
83
83
83
83
ENDCHAR
STARTCHAR 0042
ENCODING 66
SWIDTH 540 0
DWIDTH 9 0
BBX 6 14 1 0
BITMAP
F0
F0
88
84
84
88
F0
88
84
84
84
84
88
F0
ENDCHAR
STARTCHAR 0043
ENCODING 67
SWIDTH 540 0
DWIDTH 9 0
BBX 8 14 1 0
BITMAP
38
38
44
40
80
80
80
80
80
80
83
43
44
38
ENDCHAR
STARTCHAR 0044
ENCODING 68
SWIDTH 540 0
DWIDTH 9 0
BBX 6 14 1 0
BITMAP
F0
F0
88
88
84
84
84
84
84
84
84
88
88
F0
ENDCHAR
STARTCHAR 0045
ENCODING 69
SWIDTH 540 0
DWIDTH 9 0
BBX 6 14 1 0
BITMAP
FC
FC
80
80
80
80
80
F8
80
80
80
80
80
FC
ENDCHAR
STARTCHAR 0046
ENCODING 70
SWIDTH 540 0
DWIDTH 9 0
BBX 6 14 1 0
BITMAP
FC
FC
80
80
80
80
80
F8
80
80
80
80
80
80
ENDCHAR
STARTCHAR 0047
ENCODING 71
SWIDTH 540 0
DWIDTH 9 0
BBX 8 14 1 0
BITMAP
38
38
44
40
80
80
80
80
8F
83
83
43
44
38
ENDCHAR
STARTCHAR 0048
ENCODING 72
SWIDTH 540 0
DWIDTH 9 0
BBX 6 14 1 0
BITMAP
84
84
84
84
84
84
84
FC
84
84
84
84
84
84
ENDCHAR
STARTCHAR 0049
ENCODING 73
SWIDTH 540 0
DWIDTH 9 0
BBX 1 14 4 0
BITMAP
80
80
80
80
80
80
80
80
80
80
80
80
80
80
ENDCHAR
STARTCHAR 004A
ENCODING 74
SWIDTH 540 0
DWIDTH 9 0
BBX 6 14 1 0
BITMAP
04
04
04
04
04
04
04
04
04
04
84
84
48
30
ENDCHAR
STARTCHAR 004B
ENCODING 75
SWIDTH 540 0
DWIDTH 9 0
BBX 8 14 1 0
BITMAP
83
83
84
88
90
A0
F0
90
88
88
84
84
83
83
ENDCHAR
STARTCHAR 004C
ENCODING 76
SWIDTH 540 0
DWIDTH 9 0
BBX 7 14 2 0
BITMAP
80
80
80
80
80
80
80
80
80
80
80
80
80
FE
ENDCHAR
STARTCHAR 004D
ENCODING 77
SWIDTH 540 0
DWIDTH 9 0
BBX 5 14 2 0
BITMAP
88
88
88
88
D8
D8
D8
A8
A8
A8
88
88
88
88
ENDCHAR
STARTCHAR 004E
ENCODING 78
SWIDTH 540 0
DWIDTH 9 0
BBX 6 14 1 0
BITMAP
84
84
C4
C4
C4
A4
A4
A4
94
94
94
8C
8C
84
ENDCHAR
STARTCHAR 004F
ENCODING 79
SWIDTH 540 0
DWIDTH 9 0
BBX 6 14 1 0
BITMAP
78
78
84
84
84
84
84
84
84
84
84
84
84
78
ENDCHAR
STARTCHAR 0050
ENCODING 80
SWIDTH 540 0
DWIDTH 9 0
BBX 7 14 2 0
BITMAP
F0
F0
88
86
86
86
88
F0
80
80
80
80
80
80
ENDCHAR
STARTCHAR 0051
ENCODING 81
SWIDTH 540 0
DWIDTH 9 0
BBX 8 14 1 0
BITMAP
30
30
48
84
84
84
84
84
84
84
84
84
48
37
ENDCHAR
STARTCHAR 0052
ENCODING 82
SWIDTH 540 0
DWIDTH 9 0
BBX 7 14 2 0
BITMAP
F8
F8
86
86
86
86
88
F0
90
90
88
88
86
86
ENDCHAR
STARTCHAR 0053
ENCODING 83
SWIDTH 540 0
DWIDTH 9 0
BBX 8 14 1 0
BITMAP
30
30
48
84
80
40
30
08
04
03
83
83
44
38
ENDCHAR
STARTCHAR 0054
ENCODING 84
SWIDTH 540 0
DWIDTH 9 0
BBX 8 14 1 0
BITMAP
FF
FF
10
10
10
10
10
10
10
10
10
10
10
10
ENDCHAR
STARTCHAR 0055
ENCODING 85
SWIDTH 540 0
DWIDTH 9 0
BBX 6 14 1 0
BITMAP
84
84
84
84
84
84
84
84
84
84
84
84
84
78
ENDCHAR
STARTCHAR 0056
ENCODING 86
SWIDTH 540 0
DWIDTH 9 0
BBX 8 14 1 0
BITMAP
83
83
83
83
83
44
44
44
28
28
28
10
10
10
ENDCHAR
STARTCHAR 0057
ENCODING 87
SWIDTH 540 0
DWIDTH 9 0
BBX 8 14 1 0
BITMAP
A3
A3
A3
A3
A3
54
54
54
54
54
28
28
28
28
ENDCHAR
STARTCHAR 0058
ENCODING 88
SWIDTH 540 0
DWIDTH 9 0
BBX 8 14 1 0
BITMAP
83
83
83
44
44
28
28
10
28
28
44
44
83
83
ENDCHAR
STARTCHAR 0059
ENCODING 89
SWIDTH 540 0
DWIDTH 9 0
BBX 8 14 1 0
BITMAP
83
83
83
44
44
28
28
10
10
10
10
10
10
10
ENDCHAR
STARTCHAR 005A
ENCODING 90
SWIDTH 540 0
DWIDTH 9 0
BBX 8 14 1 0
BITMAP
FF
FF
03
04
04
08
10
10
20
40
40
80
80
FF
ENDCHAR
STARTCHAR 005B
ENCODING 91
SWIDTH 540 0
DWIDTH 9 0
BBX 3 14 3 0
BITMAP
E0
E0
80
80
80
80
80
80
80
80
80
80
80
E0
ENDCHAR
STARTCHAR 005C
ENCODING 92
SWIDTH 540 0
DWIDTH 9 0
BBX 8 14 1 0
BITMAP
83
83
83
44
44
FF
28
10
10
FF
10
10
10
10
ENDCHAR
STARTCHAR 005D
ENCODING 93
SWIDTH 540 0
DWIDTH 9 0
BBX 3 14 2 0
BITMAP
E0
E0
20
20
20
20
20
20
20
20
20
20
20
E0
ENDCHAR
STARTCHAR 005E
ENCODING 94
SWIDTH 540 0
DWIDTH 9 0
BBX 5 3 1 9
BITMAP
20
50
88
ENDCHAR
STARTCHAR 005F
ENCODING 95
SWIDTH 540 0
DWIDTH 9 0
BBX 9 1 0 -1
BITMAP
FF80
ENDCHAR
STARTCHAR 0060
ENCODING 96
SWIDTH 540 0
DWIDTH 9 0
BBX 2 4 2 8
BITMAP
C0
C0
80
40
ENDCHAR
STARTCHAR 0061
ENCODING 97
SWIDTH 540 0
DWIDTH 9 0
BBX 6 9 1 0
BITMAP
38
44
04
3C
44
84
84
8C
74
ENDCHAR
STARTCHAR 0062
ENCODING 98
SWIDTH 540 0
DWIDTH 9 0
BBX 6 12 1 0
BITMAP
80
80
80
B0
C8
84
84
84
84
84
C8
B0
ENDCHAR
STARTCHAR 0063
ENCODING 99
SWIDTH 540 0
DWIDTH 9 0
BBX 6 9 1 0
BITMAP
38
44
80
80
80
80
80
44
38
ENDCHAR
STARTCHAR 0064
ENCODING 100
SWIDTH 540 0
DWIDTH 9 0
BBX 6 12 1 0
BITMAP
04
04
04
34
4C
84
84
84
84
84
4C
34
ENDCHAR
STARTCHAR 0065
ENCODING 101
SWIDTH 540 0
DWIDTH 9 0
BBX 6 9 1 0
BITMAP
30
48
84
84
FC
80
80
44
38
ENDCHAR
STARTCHAR 0066
ENCODING 102
SWIDTH 540 0
DWIDTH 9 0
BBX 4 14 2 0
BITMAP
30
30
40
40
40
F0
40
40
40
40
40
40
40
40
ENDCHAR
STARTCHAR 0067
ENCODING 103
SWIDTH 540 0
DWIDTH 9 0
BBX 6 11 1 -2
BITMAP
34
4C
84
84
84
84
4C
34
04
84
78
ENDCHAR
STARTCHAR 0068
ENCODING 104
SWIDTH 540 0
DWIDTH 9 0
BBX 6 12 1 0
BITMAP
80
80
80
80
B0
C8
84
84
84
84
84
84
ENDCHAR
STARTCHAR 0069
ENCODING 105
SWIDTH 540 0
DWIDTH 9 0
BBX 1 12 4 0
BITMAP
80
80
00
00
80
80
80
80
80
80
80
80
ENDCHAR
STARTCHAR 006A
ENCODING 106
SWIDTH 540 0
DWIDTH 9 0
BBX 4 14 2 -2
BITMAP
10
10
00
00
10
10
10
10
10
10
10
10
90
60
ENDCHAR
STARTCHAR 006B
ENCODING 107
SWIDTH 540 0
DWIDTH 9 0
BBX 7 14 2 0
BITMAP
80
80
80
80
80
86
88
90
A0
C0
A0
90
88
86
ENDCHAR
STARTCHAR 006C
ENCODING 108
SWIDTH 540 0
DWIDTH 9 0
BBX 2 14 4 0
BITMAP
80
80
80
80
80
80
80
80
80
80
80
80
80
C0
ENDCHAR
STARTCHAR 006D
ENCODING 109
SWIDTH 540 0
DWIDTH 9 0
BBX 8 9 1 0
BITMAP
AC
D3
93
93
93
93
93
93
93
ENDCHAR
STARTCHAR 006E
ENCODING 110
SWIDTH 540 0
DWIDTH 9 0
BBX 6 9 1 0
BITMAP
B8
C4
84
84
84
84
84
84
84
ENDCHAR
STARTCHAR 006F
ENCODING 111
SWIDTH 540 0
DWIDTH 9 0
BBX 8 9 1 0
BITMAP
38
44
83
83
83
83
83
44
38
ENDCHAR
STARTCHAR 0070
ENCODING 112
SWIDTH 540 0
DWIDTH 9 0
BBX 6 11 1 -2
BITMAP
B0
C8
84
84
84
84
84
C8
B0
80
80
ENDCHAR
STARTCHAR 0071
ENCODING 113
SWIDTH 540 0
DWIDTH 9 0
BBX 6 11 1 -2
BITMAP
34
4C
84
84
84
84
84
4C
34
04
04
ENDCHAR
STARTCHAR 0072
ENCODING 114
SWIDTH 540 0
DWIDTH 9 0
BBX 5 9 2 0
BITMAP
B8
C0
80
80
80
80
80
80
80
ENDCHAR
STARTCHAR 0073
ENCODING 115
SWIDTH 540 0
DWIDTH 9 0
BBX 6 9 1 0
BITMAP
70
88
80
60
18
04
04
84
78
ENDCHAR
STARTCHAR 0074
ENCODING 116
SWIDTH 540 0
DWIDTH 9 0
BBX 4 11 2 0
BITMAP
40
40
F0
40
40
40
40
40
40
40
30
ENDCHAR
STARTCHAR 0075
ENCODING 117
SWIDTH 540 0
DWIDTH 9 0
BBX 6 9 1 0
BITMAP
84
84
84
84
84
84
84
8C
74
ENDCHAR
STARTCHAR 0076
ENCODING 118
SWIDTH 540 0
DWIDTH 9 0
BBX 8 9 1 0
BITMAP
83
83
83
44
44
28
28
10
10
ENDCHAR
STARTCHAR 0077
ENCODING 119
SWIDTH 540 0
DWIDTH 9 0
BBX 8 9 1 0
BITMAP
A3
A3
A3
54
54
54
28
28
28
ENDCHAR
STARTCHAR 0078
ENCODING 120
SWIDTH 540 0
DWIDTH 9 0
BBX 8 8 1 0
BITMAP
83
44
28
10
10
28
44
83
ENDCHAR
STARTCHAR 0079
ENCODING 121
SWIDTH 540 0
DWIDTH 9 0
BBX 8 11 1 -2
BITMAP
83
83
44
44
28
28
10
10
20
20
40
ENDCHAR
STARTCHAR 007A
ENCODING 122
SWIDTH 540 0
DWIDTH 9 0
BBX 6 8 1 0
BITMAP
FC
04
08
10
20
40
80
FC
ENDCHAR
STARTCHAR 007B
ENCODING 123
SWIDTH 540 0
DWIDTH 9 0
BBX 4 14 2 0
BITMAP
30
30
40
40
40
40
40
80
40
40
40
40
40
30
ENDCHAR
STARTCHAR 007C
ENCODING 124
SWIDTH 540 0
DWIDTH 9 0
BBX 1 12 3 0
BITMAP
80
80
80
80
80
80
80
80
80
80
80
80
ENDCHAR
STARTCHAR 007D
ENCODING 125
SWIDTH 540 0
DWIDTH 9 0
BBX 4 14 2 0
BITMAP
C0
C0
20
20
20
20
20
10
20
20
20
20
20
C0
ENDCHAR
STARTCHAR 007E
ENCODING 126
SWIDTH 540 0
DWIDTH 9 0
BBX 6 1 1 11
BITMAP
FC
ENDCHAR
STARTCHAR 00A0
ENCODING 160
SWIDTH 1020 0
DWIDTH 17 0
BBX 16 1 0 -2
BITMAP
AAD5
ENDCHAR
STARTCHAR 00A1
ENCODING 161
SWIDTH 1020 0
DWIDTH 17 0
BBX 4 14 7 0
BITMAP
F0
F0
F0
00
00
60
60
60
60
60
60
60
60
60
ENDCHAR
STARTCHAR 00A4
ENCODING 164
SWIDTH 1020 0
DWIDTH 17 0
BBX 13 12 2 0
BITMAP
8008
4010
2FA0
1040
2020
2020
2020
2020
1040
2FA0
4010
8008
ENDCHAR
STARTCHAR 00A6
ENCODING 166
SWIDTH 1020 0
DWIDTH 17 0
BBX 2 15 8 -1
BITMAP
C0
C0
C0
C0
C0
C0
C0
00
00
C0
C0
C0
C0
C0
C0
ENDCHAR
STARTCHAR 00A7
ENCODING 167
SWIDTH 1020 0
DWIDTH 17 0
BBX 8 14 5 0
BITMAP
7E
7E
81
80
78
46
81
81
72
1E
01
81
81
7E
ENDCHAR
STARTCHAR 00A8
ENCODING 168
SWIDTH 1020 0
DWIDTH 17 0
BBX 7 3 5 12
BITMAP
C6
C6
C6
ENDCHAR
STARTCHAR 00A9
ENCODING 169
SWIDTH 1020 0
DWIDTH 17 0
BBX 16 16 1 -1
BITMAP
07E0
1818
1818
2004
43C2
4422
8801
8801
8801
8801
8801
4412
43E2
2004
1818
07E0
ENDCHAR
STARTCHAR 00AA
ENCODING 170
SWIDTH 1020 0
DWIDTH 17 0
BBX 7 8 5 7
BITMAP
3C
42
42
02
7E
82
86
7A
ENDCHAR
STARTCHAR 00AB
ENCODING 171
SWIDTH 1020 0
DWIDTH 17 0
BBX 9 7 7 1
BITMAP
0880
1100
6200
C400
6200
1100
0880
ENDCHAR
STARTCHAR 00AD
ENCODING 173
SWIDTH 1020 0
DWIDTH 17 0
BBX 8 1 1 6
BITMAP
FF
ENDCHAR
STARTCHAR 00AE
ENCODING 174
SWIDTH 1020 0
DWIDTH 17 0
BBX 16 16 1 -1
BITMAP
07E0
1818
1818
2004
47E2
4412
8411
8411
87E1
8441
8421
4412
4412
2004
1818
07E0
ENDCHAR
STARTCHAR 00AF
ENCODING 175
SWIDTH 1020 0
DWIDTH 17 0
BBX 9 1 4 11
BITMAP
FF80
ENDCHAR
STARTCHAR 00B0
ENCODING 176
SWIDTH 1020 0
DWIDTH 17 0
BBX 4 5 1 9
BITMAP
60
60
90
90
60
ENDCHAR
STARTCHAR 00B1
ENCODING 177
SWIDTH 1020 0
DWIDTH 17 0
BBX 13 12 2 0
BITMAP
0600
0600
0600
0600
FFF8
0600
0600
0600
0600
0000
0000
FFF8
ENDCHAR
STARTCHAR 00B2
ENCODING 178
SWIDTH 1020 0
DWIDTH 17 0
BBX 6 8 5 7
BITMAP
78
84
84
04
18
30
40
FC
ENDCHAR
STARTCHAR 00B3
ENCODING 179
SWIDTH 1020 0
DWIDTH 17 0
BBX 6 8 6 7
BITMAP
78
84
84
04
78
04
84
78
ENDCHAR
STARTCHAR 00B4
ENCODING 180
SWIDTH 1020 0
DWIDTH 17 0
BBX 5 3 6 12
BITMAP
38
E0
E0
ENDCHAR
STARTCHAR 00B6
ENCODING 182
SWIDTH 1020 0
DWIDTH 17 0
BBX 9 15 3 -1
BITMAP
3F80
3F80
7C80
FC80
FC80
FC80
7C80
3C80
0C80
0C80
0C80
0C80
0C80
0C80
0C80
ENDCHAR
STARTCHAR 00B7
ENCODING 183
SWIDTH 1020 0
DWIDTH 17 0
BBX 5 4 6 5
BITMAP
70
F8
F8
70
ENDCHAR
STARTCHAR 00B8
ENCODING 184
SWIDTH 1020 0
DWIDTH 17 0
BBX 5 5 7 -2
BITMAP
60
70
08
C8
70
ENDCHAR
STARTCHAR 00B9
ENCODING 185
SWIDTH 1020 0
DWIDTH 17 0
BBX 3 8 7 7
BITMAP
60
E0
E0
60
60
60
60
60
ENDCHAR
STARTCHAR 00BA
ENCODING 186
SWIDTH 1020 0
DWIDTH 17 0
BBX 8 8 4 7
BITMAP
3C
42
42
81
81
81
42
3C
ENDCHAR
STARTCHAR 00BB
ENCODING 187
SWIDTH 1020 0
DWIDTH 17 0
BBX 9 7 7 1
BITMAP
C400
6200
1100
0880
1100
6200
C400
ENDCHAR
STARTCHAR 00BC
ENCODING 188
SWIDTH 1020 0
DWIDTH 17 0
BBX 12 16 3 -1
BITMAP
0600
0E00
0E00
0600
0600
0600
0600
0000
FFF0
0100
0700
0D00
1100
3FC0
0100
0100
ENDCHAR
STARTCHAR 00BD
ENCODING 189
SWIDTH 1020 0
DWIDTH 17 0
BBX 12 16 3 -1
BITMAP
0600
0E00
0E00
0600
0600
0600
0600
0000
FFF0
0000
0F00
1080
0100
0600
0C00
1F80
ENDCHAR
STARTCHAR 00BE
ENCODING 190
SWIDTH 1020 0
DWIDTH 17 0
BBX 12 16 3 -1
BITMAP
0F00
1080
1080
0700
0080
1080
0F00
0000
FFF0
0100
0700
0D00
1100
3FC0
0100
0100
ENDCHAR
STARTCHAR 00BF
ENCODING 191
SWIDTH 1020 0
DWIDTH 17 0
BBX 9 14 4 0
BITMAP
1E00
1E00
1E00
0000
0000
0C00
0C00
0C00
3800
4000
8080
8080
4100
3E00
ENDCHAR
STARTCHAR 00C0
ENCODING 192
SWIDTH 1020 0
DWIDTH 17 0
BBX 12 15 3 0
BITMAP
0E00
0600
0600
0100
0600
0D00
0D00
1080
1080
3FC0
2040
4020
4020
8010
8010
ENDCHAR
STARTCHAR 00C1
ENCODING 193
SWIDTH 1020 0
DWIDTH 17 0
BBX 12 15 3 0
BITMAP
0700
0600
0600
0C00
0600
0D00
0D00
1080
1080
3FC0
2040
4020
4020
8010
8010
ENDCHAR
STARTCHAR 00C2
ENCODING 194
SWIDTH 1020 0
DWIDTH 17 0
BBX 12 15 3 0
BITMAP
0600
0D00
0D00
1080
0600
0D00
0D00
1080
1080
3FC0
2040
4020
4020
8010
8010
ENDCHAR
STARTCHAR 00C3
ENCODING 195
SWIDTH 1020 0
DWIDTH 17 0
BBX 12 15 3 0
BITMAP
1E40
2180
2180
0000
0600
0D00
0D00
1080
1080
3FC0
2040
4020
4020
8010
8010
ENDCHAR
STARTCHAR 00C4
ENCODING 196
SWIDTH 1020 0
DWIDTH 17 0
BBX 12 15 3 0
BITMAP
1D80
1D80
1D80
0000
0600
0D00
0D00
1080
1080
3FC0
2040
4020
4020
8010
8010
ENDCHAR
STARTCHAR 00C5
ENCODING 197
SWIDTH 1020 0
DWIDTH 17 0
BBX 12 15 3 0
BITMAP
0F00
1080
1080
0F00
0600
0D00
0D00
1080
1080
3FC0
2040
4020
4020
8010
8010
ENDCHAR
STARTCHAR 00C6
ENCODING 198
SWIDTH 1020 0
DWIDTH 17 0
BBX 13 14 2 0
BITMAP
07F0
07F0
0700
0B00
0B00
1300
1300
23E0
2300
3F00
4300
4300
8300
83F8
ENDCHAR
STARTCHAR 00C7
ENCODING 199
SWIDTH 1020 0
DWIDTH 17 0
BBX 12 16 3 -2
BITMAP
0F80
0F80
3060
4010
4000
8000
8000
8000
8000
8000
4010
4010
3060
0F80
0100
1F00
ENDCHAR
STARTCHAR 00C8
ENCODING 200
SWIDTH 1020 0
DWIDTH 17 0
BBX 10 15 4 0
BITMAP
3800
1800
1800
0C00
FF80
8000
8000
8000
8000
FE00
8000
8000
8000
8000
FFC0
ENDCHAR
STARTCHAR 00C9
ENCODING 201
SWIDTH 1020 0
DWIDTH 17 0
BBX 10 15 4 0
BITMAP
0E00
0C00
0C00
1800
FF80
8000
8000
8000
8000
FE00
8000
8000
8000
8000
FFC0
ENDCHAR
STARTCHAR 00CA
ENCODING 202
SWIDTH 1020 0
DWIDTH 17 0
BBX 10 15 4 0
BITMAP
1800
2C00
2C00
0000
FF80
8000
8000
8000
8000
FE00
8000
8000
8000
8000
FFC0
ENDCHAR
STARTCHAR 00CB
ENCODING 203
SWIDTH 1020 0
DWIDTH 17 0
BBX 10 15 4 0
BITMAP
6300
6300
6300
0000
FF80
8000
8000
8000
8000
FE00
8000
8000
8000
8000
FFC0
ENDCHAR
STARTCHAR 00CC
ENCODING 204
SWIDTH 1020 0
DWIDTH 17 0
BBX 4 15 6 0
BITMAP
E0
60
60
30
60
60
60
60
60
60
60
60
60
60
60
ENDCHAR
STARTCHAR 00CD
ENCODING 205
SWIDTH 1020 0
DWIDTH 17 0
BBX 4 15 6 0
BITMAP
70
60
60
80
60
60
60
60
60
60
60
60
60
60
60
ENDCHAR
STARTCHAR 00CE
ENCODING 206
SWIDTH 1020 0
DWIDTH 17 0
BBX 6 15 5 0
BITMAP
30
58
58
84
30
30
30
30
30
30
30
30
30
30
30
ENDCHAR
STARTCHAR 00CF
ENCODING 207
SWIDTH 1020 0
DWIDTH 17 0
BBX 6 15 5 0
BITMAP
DC
DC
DC
00
30
30
30
30
30
30
30
30
30
30
30
ENDCHAR
STARTCHAR 00D0
ENCODING 208
SWIDTH 1020 0
DWIDTH 17 0
BBX 13 14 2 0
BITMAP
3F80
3F80
2060
2010
2010
2008
2008
F808
2008
2008
2010
2010
2060
3F80
ENDCHAR
STARTCHAR 00D1
ENCODING 209
SWIDTH 1020 0
DWIDTH 17 0
BBX 11 15 3 0
BITMAP
1C80
2700
2700
8020
C020
C020
A020
9020
8C20
8620
8120
80A0
8060
8060
8020
ENDCHAR
STARTCHAR 00D2
ENCODING 210
SWIDTH 1020 0
DWIDTH 17 0
BBX 12 15 3 0
BITMAP
0E00
0600
0600
0100
0F00
30C0
4020
4020
8010
8010
8010
4020
4020
30C0
0F00
ENDCHAR
STARTCHAR 00D3
ENCODING 211
SWIDTH 1020 0
DWIDTH 17 0
BBX 12 15 3 0
BITMAP
0700
0600
0600
0C00
0F00
30C0
4020
4020
8010
8010
8010
4020
4020
30C0
0F00
ENDCHAR
STARTCHAR 00D4
ENCODING 212
SWIDTH 1020 0
DWIDTH 17 0
BBX 12 15 3 0
BITMAP
0600
0D00
0D00
1080
0F00
30C0
4020
4020
8010
8010
8010
4020
4020
30C0
0F00
ENDCHAR
STARTCHAR 00D5
ENCODING 213
SWIDTH 1020 0
DWIDTH 17 0
BBX 12 15 3 0
BITMAP
0E40
1180
1180
0000
0F00
30C0
4020
4020
8010
8010
8010
4020
4020
30C0
0F00
ENDCHAR
STARTCHAR 00D6
ENCODING 214
SWIDTH 1020 0
DWIDTH 17 0
BBX 12 15 3 0
BITMAP
1D80
1D80
1D80
0000
0F00
30C0
4020
4020
8010
8010
8010
4020
4020
30C0
0F00
ENDCHAR
STARTCHAR 00D7
ENCODING 215
SWIDTH 1020 0
DWIDTH 17 0
BBX 11 10 3 1
BITMAP
8020
4040
2080
1100
0E00
0E00
1100
2080
4040
8020
ENDCHAR
STARTCHAR 00D8
ENCODING 216
SWIDTH 1020 0
DWIDTH 17 0
BBX 14 14 2 0
BITMAP
0F84
0F84
3068
4010
4028
8048
8088
8308
8608
8808
5010
2010
5060
8F80
ENDCHAR
STARTCHAR 00D9
ENCODING 217
SWIDTH 1020 0
DWIDTH 17 0
BBX 10 15 4 0
BITMAP
1C00
0C00
0C00
0200
8040
8040
8040
8040
8040
8040
8040
8040
8040
4080
3F00
ENDCHAR
STARTCHAR 00DA
ENCODING 218
SWIDTH 1020 0
DWIDTH 17 0
BBX 10 15 4 0
BITMAP
0E00
0C00
0C00
1800
8040
8040
8040
8040
8040
8040
8040
8040
8040
4080
3F00
ENDCHAR
STARTCHAR 00DB
ENCODING 219
SWIDTH 1020 0
DWIDTH 17 0
BBX 10 15 4 0
BITMAP
0C00
1A00
1A00
2100
8040
8040
8040
8040
8040
8040
8040
8040
8040
4080
3F00
ENDCHAR
STARTCHAR 00DC
ENCODING 220
SWIDTH 1020 0
DWIDTH 17 0
BBX 10 15 4 0
BITMAP
3B00
3B00
3B00
0000
8040
8040
8040
8040
8040
8040
8040
8040
8040
4080
3F00
ENDCHAR
STARTCHAR 00DD
ENCODING 221
SWIDTH 1020 0
DWIDTH 17 0
BBX 10 15 4 0
BITMAP
0E00
0C00
0C00
1800
8040
4080
2100
2100
1A00
1A00
0C00
0C00
0C00
0C00
0C00
ENDCHAR
STARTCHAR 00DE
ENCODING 222
SWIDTH 1020 0
DWIDTH 17 0
BBX 10 14 5 0
BITMAP
8000
8000
8000
8000
FF00
8080
8040
8040
8040
8080
FF00
8000
8000
8000
ENDCHAR
STARTCHAR 00DF
ENCODING 223
SWIDTH 1020 0
DWIDTH 17 0
BBX 9 14 4 0
BITMAP
1E00
1E00
2100
4080
4080
4100
5E00
4100
4080
4080
4080
4080
9900
8E00
ENDCHAR
STARTCHAR 00E0
ENCODING 224
SWIDTH 1020 0
DWIDTH 17 0
BBX 9 14 5 0
BITMAP
3800
3800
1800
0400
0000
7E00
8100
0100
3F00
4100
8100
8100
8300
7C80
ENDCHAR
STARTCHAR 00E1
ENCODING 225
SWIDTH 1020 0
DWIDTH 17 0
BBX 9 14 5 0
BITMAP
1C00
1C00
1800
3000
0000
7E00
8100
0100
3F00
4100
8100
8100
8300
7C80
ENDCHAR
STARTCHAR 00E2
ENCODING 226
SWIDTH 1020 0
DWIDTH 17 0
BBX 9 14 5 0
BITMAP
1800
1800
3400
4200
0000
7E00
8100
0100
3F00
4100
8100
8100
8300
7C80
ENDCHAR
STARTCHAR 00E3
ENCODING 227
SWIDTH 1020 0
DWIDTH 17 0
BBX 9 12 5 0
BITMAP
7880
8700
0000
7E00
8100
0100
3F00
4100
8100
8100
8300
7C80
ENDCHAR
STARTCHAR 00E4
ENCODING 228
SWIDTH 1020 0
DWIDTH 17 0
BBX 9 12 5 0
BITMAP
C300
C300
0000
7E00
8100
0100
3F00
4100
8100
8100
8300
7C80
ENDCHAR
STARTCHAR 00E5
ENCODING 229
SWIDTH 1020 0
DWIDTH 17 0
BBX 9 14 5 0
BITMAP
3C00
3C00
4200
3C00
0000
7E00
8100
0100
3F00
4100
8100
8100
8300
7C80
ENDCHAR
STARTCHAR 00E6
ENCODING 230
SWIDTH 1020 0
DWIDTH 17 0
BBX 14 8 2 0
BITMAP
3E70
4388
0304
3FFC
4300
8300
8784
7B78
ENDCHAR
STARTCHAR 00E7
ENCODING 231
SWIDTH 1020 0
DWIDTH 17 0
BBX 8 10 5 -2
BITMAP
3E
41
80
80
80
80
41
3E
04
3C
ENDCHAR
STARTCHAR 00E8
ENCODING 232
SWIDTH 1020 0
DWIDTH 17 0
BBX 8 12 5 0
BITMAP
38
18
04
00
3C
42
81
FF
80
80
41
3E
ENDCHAR
STARTCHAR 00E9
ENCODING 233
SWIDTH 1020 0
DWIDTH 17 0
BBX 8 12 5 0
BITMAP
1C
18
30
00
3C
42
81
FF
80
80
41
3E
ENDCHAR
STARTCHAR 00EA
ENCODING 234
SWIDTH 1020 0
DWIDTH 17 0
BBX 8 12 4 0
BITMAP
18
2C
42
00
3C
42
81
FF
80
80
41
3E
ENDCHAR
STARTCHAR 00EB
ENCODING 235
SWIDTH 1020 0
DWIDTH 17 0
BBX 8 11 5 0
BITMAP
76
76
00
3C
42
81
FF
80
80
41
3E
ENDCHAR
STARTCHAR 00EC
ENCODING 236
SWIDTH 1020 0
DWIDTH 17 0
BBX 4 12 6 0
BITMAP
E0
60
30
00
30
30
30
30
30
30
30
30
ENDCHAR
STARTCHAR 00ED
ENCODING 237
SWIDTH 1020 0
DWIDTH 17 0
BBX 4 12 7 0
BITMAP
70
60
C0
00
60
60
60
60
60
60
60
60
ENDCHAR
STARTCHAR 00EE
ENCODING 238
SWIDTH 1020 0
DWIDTH 17 0
BBX 6 12 6 0
BITMAP
30
68
84
00
30
30
30
30
30
30
30
30
ENDCHAR
STARTCHAR 00EF
ENCODING 239
SWIDTH 1020 0
DWIDTH 17 0
BBX 6 11 6 0
BITMAP
EC
EC
00
30
30
30
30
30
30
30
30
ENDCHAR
STARTCHAR 00F0
ENCODING 240
SWIDTH 1020 0
DWIDTH 17 0
BBX 12 14 3 0
BITMAP
7070
7070
0F80
0000
0F00
3100
0080
3E80
4180
8080
8080
8080
4100
3E00
ENDCHAR
STARTCHAR 00F1
ENCODING 241
SWIDTH 1020 0
DWIDTH 17 0
BBX 8 11 5 0
BITMAP
72
9C
00
BC
C2
81
81
81
81
81
81
ENDCHAR
STARTCHAR 00F2
ENCODING 242
SWIDTH 1020 0
DWIDTH 17 0
BBX 9 12 4 0
BITMAP
3800
1800
0C00
0000
3E00
4100
8080
8080
8080
8080
4100
3E00
ENDCHAR
STARTCHAR 00F3
ENCODING 243
SWIDTH 1020 0
DWIDTH 17 0
BBX 9 12 4 0
BITMAP
0E00
0C00
1800
0000
3E00
4100
8080
8080
8080
8080
4100
3E00
ENDCHAR
STARTCHAR 00F4
ENCODING 244
SWIDTH 1020 0
DWIDTH 17 0
BBX 9 12 4 0
BITMAP
1800
2C00
4200
0000
3E00
4100
8080
8080
8080
8080
4100
3E00
ENDCHAR
STARTCHAR 00F5
ENCODING 245
SWIDTH 1020 0
DWIDTH 17 0
BBX 9 11 4 0
BITMAP
3900
4E00
0000
3E00
4100
8080
8080
8080
8080
4100
3E00
ENDCHAR
STARTCHAR 00F6
ENCODING 246
SWIDTH 1020 0
DWIDTH 17 0
BBX 9 11 4 0
BITMAP
6300
6300
0000
3E00
4100
8080
8080
8080
8080
4100
3E00
ENDCHAR
STARTCHAR 00F7
ENCODING 247
SWIDTH 1020 0
DWIDTH 17 0
BBX 13 9 2 2
BITMAP
0700
0700
0000
0000
FFF8
0000
0000
0700
0700
ENDCHAR
STARTCHAR 00F8
ENCODING 248
SWIDTH 1020 0
DWIDTH 17 0
BBX 9 8 4 0
BITMAP
3E80
4100
8280
8C80
9880
A080
4100
BE00
ENDCHAR
STARTCHAR 00F9
ENCODING 249
SWIDTH 1020 0
DWIDTH 17 0
BBX 8 12 5 0
BITMAP
70
30
18
00
81
81
81
81
81
81
43
3D
ENDCHAR
STARTCHAR 00FA
ENCODING 250
SWIDTH 1020 0
DWIDTH 17 0
BBX 8 12 5 0
BITMAP
1C
18
30
00
81
81
81
81
81
81
43
3D
ENDCHAR
STARTCHAR 00FB
ENCODING 251
SWIDTH 1020 0
DWIDTH 17 0
BBX 8 12 5 0
BITMAP
18
34
42
00
81
81
81
81
81
81
43
3D
ENDCHAR
STARTCHAR 00FC
ENCODING 252
SWIDTH 1020 0
DWIDTH 17 0
BBX 8 11 5 0
BITMAP
76
76
00
81
81
81
81
81
81
43
3D
ENDCHAR
STARTCHAR 00FD
ENCODING 253
SWIDTH 1020 0
DWIDTH 17 0
BBX 8 14 5 -2
BITMAP
06
04
18
00
81
81
42
42
34
34
18
18
30
C0
ENDCHAR
STARTCHAR 00FE
ENCODING 254
SWIDTH 1020 0
DWIDTH 17 0
BBX 9 16 5 -2
BITMAP
8000
8000
8000
8000
8000
8000
BE00
C100
8080
8080
8080
C100
BE00
8000
8000
8000
ENDCHAR
STARTCHAR 00FF
ENCODING 255
SWIDTH 1020 0
DWIDTH 17 0
BBX 8 13 5 -2
BITMAP
76
76
00
81
81
42
42
34
34
18
18
30
C0
ENDCHAR
STARTCHAR 0100
ENCODING 256
SWIDTH 1020 0
DWIDTH 17 0
BBX 12 14 3 0
BITMAP
1F80
1F80
0000
0600
0D00
0D00
1080
1080
3FC0
2040
4020
4020
8010
8010
ENDCHAR
STARTCHAR 0101
ENCODING 257
SWIDTH 1020 0
DWIDTH 17 0
BBX 8 11 5 0
BITMAP
7E
00
3E
41
01
3F
41
81
81
83
7D
ENDCHAR
STARTCHAR 0102
ENCODING 258
SWIDTH 1020 0
DWIDTH 17 0
BBX 12 15 3 0
BITMAP
1080
0F00
0F00
0000
0600
0D00
0D00
1080
1080
3FC0
2040
4020
4020
8010
8010
ENDCHAR
STARTCHAR 0103
ENCODING 259
SWIDTH 1020 0
DWIDTH 17 0
BBX 9 12 4 0
BITMAP
4200
3C00
0000
7E00
8100
0100
3F00
4100
8100
8100
8300
7C80
ENDCHAR
STARTCHAR 0104
ENCODING 260
SWIDTH 1020 0
DWIDTH 17 0
BBX 15 14 2 -2
BITMAP
0300
0680
0680
0840
0840
1020
1020
3FF0
2010
4008
4008
800C
0008
000E
ENDCHAR
STARTCHAR 0105
ENCODING 261
SWIDTH 1020 0
DWIDTH 17 0
BBX 11 11 4 -2
BITMAP
3E00
4100
0100
3F00
4100
8100
8100
8300
7C80
0080
00E0
ENDCHAR
STARTCHAR 0106
ENCODING 262
SWIDTH 1020 0
DWIDTH 17 0
BBX 10 15 4 0
BITMAP
0300
0200
0200
0C00
1F00
2080
4040
8000
8000
8000
8000
8000
4040
2080
1F00
ENDCHAR
STARTCHAR 0107
ENCODING 263
SWIDTH 1020 0
DWIDTH 17 0
BBX 8 12 5 0
BITMAP
06
04
18
00
3E
41
80
80
80
80
41
3E
ENDCHAR
STARTCHAR 0108
ENCODING 264
SWIDTH 1020 0
DWIDTH 17 0
BBX 11 15 3 0
BITMAP
0600
0D00
0D00
1080
1F00
2080
4040
8000
8000
8000
8000
8000
4020
20C0
1F00
ENDCHAR
STARTCHAR 0109
ENCODING 265
SWIDTH 1020 0
DWIDTH 17 0
BBX 8 12 5 0
BITMAP
18
34
42
00
3E
41
80
80
80
80
41
3E
ENDCHAR
STARTCHAR 010C
ENCODING 268
SWIDTH 1020 0
DWIDTH 17 0
BBX 10 15 4 0
BITMAP
2100
1A00
1A00
0C00
1F00
2080
4040
8000
8000
8000
8000
8000
4040
2080
1F00
ENDCHAR
STARTCHAR 010D
ENCODING 269
SWIDTH 1020 0
DWIDTH 17 0
BBX 8 12 5 0
BITMAP
42
34
18
00
3E
41
80
80
80
80
41
3E
ENDCHAR
STARTCHAR 010E
ENCODING 270
SWIDTH 1020 0
DWIDTH 17 0
BBX 10 15 4 0
BITMAP
4200
2C00
2C00
1800
FE00
8100
8080
8080
8040
8040
8040
8080
8080
8100
FE00
ENDCHAR
STARTCHAR 010F
ENCODING 271
SWIDTH 1020 0
DWIDTH 17 0
BBX 9 15 4 0
BITMAP
2100
1A00
1A00
0C80
0080
0080
0080
3E80
4180
8080
8080
8080
8080
4180
3E80
ENDCHAR
STARTCHAR 0111
ENCODING 273
SWIDTH 1020 0
DWIDTH 17 0
BBX 12 14 3 0
BITMAP
0080
0080
0080
0FF0
0080
0080
3E80
4180
8080
8080
8080
8080
4180
3E80
ENDCHAR
STARTCHAR 0112
ENCODING 274
SWIDTH 1020 0
DWIDTH 17 0
BBX 10 14 4 0
BITMAP
7E00
7E00
0000
0000
FF80
8000
8000
8000
FE00
8000
8000
8000
8000
FFC0
ENDCHAR
STARTCHAR 0113
ENCODING 275
SWIDTH 1020 0
DWIDTH 17 0
BBX 8 11 5 0
BITMAP
7E
00
00
3C
42
81
FF
80
80
41
3E
ENDCHAR
STARTCHAR 0118
ENCODING 280
SWIDTH 1020 0
DWIDTH 17 0
BBX 11 16 4 -2
BITMAP
FF80
FF80
8000
8000
8000
8000
8000
FE00
8000
8000
8000
8000
8000
FFC0
0080
00E0
ENDCHAR
STARTCHAR 0119
ENCODING 281
SWIDTH 1020 0
DWIDTH 17 0
BBX 9 10 5 -2
BITMAP
3C00
4200
8100
FF00
8000
8000
4100
3E00
0200
0380
ENDCHAR
STARTCHAR 011A
ENCODING 282
SWIDTH 1020 0
DWIDTH 17 0
BBX 10 15 4 0
BITMAP
4200
2C00
2C00
1800
FF80
8000
8000
8000
8000
FE00
8000
8000
8000
8000
FFC0
ENDCHAR
STARTCHAR 011B
ENCODING 283
SWIDTH 1020 0
DWIDTH 17 0
BBX 8 12 5 0
BITMAP
42
34
18
00
3C
42
81
FF
80
80
41
3E
ENDCHAR
STARTCHAR 011C
ENCODING 284
SWIDTH 1020 0
DWIDTH 17 0
BBX 12 15 3 0
BITMAP
0600
0D00
0D00
1080
1F80
2040
4000
8000
8000
80F0
8010
4010
4020
30C0
0F00
ENDCHAR
STARTCHAR 011D
ENCODING 285
SWIDTH 1020 0
DWIDTH 17 0
BBX 8 16 5 -2
BITMAP
18
18
34
42
00
3D
43
81
81
81
43
3D
01
81
42
3C
ENDCHAR
STARTCHAR 0124
ENCODING 292
SWIDTH 1020 0
DWIDTH 17 0
BBX 10 15 4 0
BITMAP
0C00
1A00
1A00
2100
8040
8040
8040
8040
FFC0
8040
8040
8040
8040
8040
8040
ENDCHAR
STARTCHAR 0125
ENCODING 293
SWIDTH 1020 0
DWIDTH 17 0
BBX 8 15 5 0
BITMAP
04
1A
1A
B1
80
80
80
BC
C2
81
81
81
81
81
81
ENDCHAR
STARTCHAR 0127
ENCODING 295
SWIDTH 1020 0
DWIDTH 17 0
BBX 10 14 4 0
BITMAP
2000
2000
2000
2000
FC00
2000
2F00
3880
2040
2040
2040
2040
2040
2040
ENDCHAR
STARTCHAR 012A
ENCODING 298
SWIDTH 1020 0
DWIDTH 17 0
BBX 6 14 5 0
BITMAP
FC
FC
00
00
30
30
30
30
30
30
30
30
30
30
ENDCHAR
STARTCHAR 012B
ENCODING 299
SWIDTH 1020 0
DWIDTH 17 0
BBX 6 11 6 0
BITMAP
FC
00
00
30
30
30
30
30
30
30
30
ENDCHAR
STARTCHAR 0134
ENCODING 308
SWIDTH 1020 0
DWIDTH 17 0
BBX 10 15 4 0
BITMAP
0100
0280
0280
0C40
0080
0080
0080
0080
0080
0080
0080
0080
8080
4100
3E00
ENDCHAR
STARTCHAR 0135
ENCODING 309
SWIDTH 1020 0
DWIDTH 17 0
BBX 7 14 5 -2
BITMAP
18
34
42
00
04
04
04
04
04
04
04
04
84
78
ENDCHAR
STARTCHAR 0139
ENCODING 313
SWIDTH 1020 0
DWIDTH 17 0
BBX 10 15 5 0
BITMAP
0300
0200
0200
8400
8000
8000
8000
8000
8000
8000
8000
8000
8000
8000
FFC0
ENDCHAR
STARTCHAR 013A
ENCODING 314
SWIDTH 1020 0
DWIDTH 17 0
BBX 4 15 6 0
BITMAP
70
60
60
80
60
60
60
60
60
60
60
60
60
60
60
ENDCHAR
STARTCHAR 013D
ENCODING 317
SWIDTH 1020 0
DWIDTH 17 0
BBX 10 15 5 0
BITMAP
3100
9A00
9A00
8400
8000
8000
8000
8000
8000
8000
8000
8000
8000
8000
FFC0
ENDCHAR
STARTCHAR 013E
ENCODING 318
SWIDTH 1020 0
DWIDTH 17 0
BBX 6 15 6 0
BITMAP
84
68
68
30
00
30
30
30
30
30
30
30
30
30
30
ENDCHAR
STARTCHAR 0141
ENCODING 321
SWIDTH 1020 0
DWIDTH 17 0
BBX 12 14 3 0
BITMAP
2000
2000
2000
2000
2600
2C00
3000
2000
6000
A000
2000
2000
2000
3FF0
ENDCHAR
STARTCHAR 0142
ENCODING 322
SWIDTH 1020 0
DWIDTH 17 0
BBX 6 12 6 0
BITMAP
30
30
30
34
38
30
70
B0
30
30
30
30
ENDCHAR
STARTCHAR 0143
ENCODING 323
SWIDTH 1020 0
DWIDTH 17 0
BBX 11 15 3 0
BITMAP
0700
C620
C620
EC20
A020
9020
9020
8C20
8620
8120
8120
80A0
8060
8060
8020
ENDCHAR
STARTCHAR 0144
ENCODING 324
SWIDTH 1020 0
DWIDTH 17 0
BBX 8 12 5 0
BITMAP
1C
18
30
00
BC
C2
81
81
81
81
81
81
ENDCHAR
STARTCHAR 0147
ENCODING 327
SWIDTH 1020 0
DWIDTH 17 0
BBX 11 15 3 0
BITMAP
1080
CD20
CD20
E620
A020
9020
9020
8C20
8620
8120
8120
80A0
8060
8060
8020
ENDCHAR
STARTCHAR 0148
ENCODING 328
SWIDTH 1020 0
DWIDTH 17 0
BBX 8 12 5 0
BITMAP
42
34
18
00
BC
C2
81
81
81
81
81
81
ENDCHAR
STARTCHAR 014B
ENCODING 331
SWIDTH 1020 0
DWIDTH 17 0
BBX 8 10 5 -2
BITMAP
BC
C2
81
81
81
81
81
81
19
06
ENDCHAR
STARTCHAR 014C
ENCODING 332
SWIDTH 1020 0
DWIDTH 17 0
BBX 12 14 3 0
BITMAP
1F80
1F80
0000
0F00
30C0
4020
4020
8010
8010
8010
4020
4020
30C0
0F00
ENDCHAR
STARTCHAR 014D
ENCODING 333
SWIDTH 1020 0
DWIDTH 17 0
BBX 9 11 4 0
BITMAP
7F00
0000
0000
3E00
4100
8080
8080
8080
8080
4100
3E00
ENDCHAR
STARTCHAR 0150
ENCODING 336
SWIDTH 1020 0
DWIDTH 17 0
BBX 13 15 2 0
BITMAP
0760
0640
0640
0880
0F80
3060
4010
4010
8008
8008
8008
4010
4010
3060
0F80
ENDCHAR
STARTCHAR 0151
ENCODING 337
SWIDTH 1020 0
DWIDTH 17 0
BBX 9 12 4 0
BITMAP
1D80
1900
2200
0000
3E00
4100
8080
8080
8080
8080
4100
3E00
ENDCHAR
STARTCHAR 0152
ENCODING 338
SWIDTH 1020 0
DWIDTH 17 0
BBX 14 14 2 0
BITMAP
3EFC
3EFC
4380
4080
8080
8080
8080
80F0
8080
8080
8080
4080
4380
3EFC
ENDCHAR
STARTCHAR 0153
ENCODING 339
SWIDTH 1020 0
DWIDTH 17 0
BBX 14 8 2 0
BITMAP
3870
4788
8304
83FC
8300
8300
4784
3878
ENDCHAR
STARTCHAR 0154
ENCODING 340
SWIDTH 1020 0
DWIDTH 17 0
BBX 10 15 4 0
BITMAP
0E00
0C00
0C00
1800
FF00
8080
8040
8040
8080
FF00
8100
8080
8080
8040
8040
ENDCHAR
STARTCHAR 0155
ENCODING 341
SWIDTH 1020 0
DWIDTH 17 0
BBX 6 12 6 0
BITMAP
38
30
60
00
BC
E0
80
80
80
80
80
80
ENDCHAR
STARTCHAR 0158
ENCODING 344
SWIDTH 1020 0
DWIDTH 17 0
BBX 10 15 4 0
BITMAP
4200
2C00
2C00
1800
FF00
8080
8040
8040
8080
FF00
8100
8080
8080
8040
8040
ENDCHAR
STARTCHAR 0159
ENCODING 345
SWIDTH 1020 0
DWIDTH 17 0
BBX 6 12 6 0
BITMAP
84
68
30
00
BC
E0
80
80
80
80
80
80
ENDCHAR
STARTCHAR 015A
ENCODING 346
SWIDTH 1020 0
DWIDTH 17 0
BBX 11 15 3 0
BITMAP
0700
0600
0600
0C00
3F00
40C0
8020
8000
6000
1F00
00C0
0020
8020
6040
1F80
ENDCHAR
STARTCHAR 015B
ENCODING 347
SWIDTH 1020 0
DWIDTH 17 0
BBX 7 12 5 0
BITMAP
1C
18
30
00
78
86
80
70
1C
02
82
7C
ENDCHAR
STARTCHAR 015C
ENCODING 348
SWIDTH 1020 0
DWIDTH 17 0
BBX 11 15 3 0
BITMAP
0C00
1600
1600
2100
3F00
40C0
8020
8000
6000
1F00
00C0
0020
8020
6040
1F80
ENDCHAR
STARTCHAR 015D
ENCODING 349
SWIDTH 1020 0
DWIDTH 17 0
BBX 8 12 5 0
BITMAP
04
1A
31
00
3C
43
40
38
06
81
41
3E
ENDCHAR
STARTCHAR 015E
ENCODING 350
SWIDTH 1020 0
DWIDTH 17 0
BBX 11 16 3 -2
BITMAP
3F00
3F00
40C0
8020
8000
4000
3C00
0780
0040
0020
0020
8020
6040
1F80
0600
1E00
ENDCHAR
STARTCHAR 015F
ENCODING 351
SWIDTH 1020 0
DWIDTH 17 0
BBX 7 10 5 -2
BITMAP
78
86
80
70
1C
02
82
7C
18
F8
ENDCHAR
STARTCHAR 0160
ENCODING 352
SWIDTH 1020 0
DWIDTH 17 0
BBX 11 15 3 0
BITMAP
2100
1600
1600
0C00
3F00
40C0
8020
8000
6000
1F00
00C0
0020
8020
6040
1F80
ENDCHAR
STARTCHAR 0161
ENCODING 353
SWIDTH 1020 0
DWIDTH 17 0
BBX 7 12 5 0
BITMAP
42
34
18
00
78
86
80
70
1C
02
82
7C
ENDCHAR
STARTCHAR 0162
ENCODING 354
SWIDTH 1020 0
DWIDTH 17 0
BBX 12 16 3 -2
BITMAP
FFF0
FFF0
0600
0600
0600
0600
0600
0600
0600
0600
0600
0600
0600
0600
0600
1E00
ENDCHAR
STARTCHAR 0163
ENCODING 355
SWIDTH 1020 0
DWIDTH 17 0
BBX 6 13 6 -2
BITMAP
30
30
30
FC
30
30
30
30
30
30
0C
08
F8
ENDCHAR
STARTCHAR 0164
ENCODING 356
SWIDTH 1020 0
DWIDTH 17 0
BBX 12 15 3 0
BITMAP
1080
0D00
0D00
0600
FFF0
0600
0600
0600
0600
0600
0600
0600
0600
0600
0600
ENDCHAR
STARTCHAR 0165
ENCODING 357
SWIDTH 1020 0
DWIDTH 17 0
BBX 6 15 6 0
BITMAP
84
68
68
30
30
30
FC
30
30
30
30
30
30
30
0C
ENDCHAR
STARTCHAR 016A
ENCODING 362
SWIDTH 1020 0
DWIDTH 17 0
BBX 10 14 4 0
BITMAP
3F00
3F00
0000
8040
8040
8040
8040
8040
8040
8040
8040
8040
4080
3F00
ENDCHAR
STARTCHAR 016B
ENCODING 363
SWIDTH 1020 0
DWIDTH 17 0
BBX 8 11 5 0
BITMAP
7E
00
00
81
81
81
81
81
81
43
3D
ENDCHAR
STARTCHAR 016C
ENCODING 364
SWIDTH 1020 0
DWIDTH 17 0
BBX 10 15 4 0
BITMAP
2100
1E00
1E00
0000
8040
8040
8040
8040
8040
8040
8040
8040
8040
4080
3F00
ENDCHAR
STARTCHAR 016D
ENCODING 365
SWIDTH 1020 0
DWIDTH 17 0
BBX 8 11 5 0
BITMAP
42
3C
00
81
81
81
81
81
81
43
3D
ENDCHAR
STARTCHAR 016E
ENCODING 366
SWIDTH 1020 0
DWIDTH 17 0
BBX 10 15 4 0
BITMAP
1E00
2100
2100
1E00
8040
8040
8040
8040
8040
8040
8040
8040
8040
4080
3F00
ENDCHAR
STARTCHAR 016F
ENCODING 367
SWIDTH 1020 0
DWIDTH 17 0
BBX 8 12 5 0
BITMAP
3C
42
3C
00
81
81
81
81
81
81
43
3D
ENDCHAR
STARTCHAR 0170
ENCODING 368
SWIDTH 1020 0
DWIDTH 17 0
BBX 10 15 4 0
BITMAP
1D80
1900
1900
2200
8040
8040
8040
8040
8040
8040
8040
8040
8040
4080
3F00
ENDCHAR
STARTCHAR 0171
ENCODING 369
SWIDTH 1020 0
DWIDTH 17 0
BBX 8 12 5 0
BITMAP
76
44
98
00
81
81
81
81
81
81
43
3D
ENDCHAR
STARTCHAR 0179
ENCODING 377
SWIDTH 1020 0
DWIDTH 17 0
BBX 12 15 3 0
BITMAP
0180
0100
0100
0600
7FE0
0040
0080
0100
0600
0C00
1000
2000
4000
8000
FFF0
ENDCHAR
STARTCHAR 017A
ENCODING 378
SWIDTH 1020 0
DWIDTH 17 0
BBX 9 12 4 0
BITMAP
0E00
0C00
1800
0000
FF80
0100
0200
0C00
1800
2000
4000
FF80
ENDCHAR
STARTCHAR 017B
ENCODING 379
SWIDTH 1020 0
DWIDTH 17 0
BBX 12 15 3 0
BITMAP
0700
0700
0700
0000
7FE0
0040
0080
0100
0600
0C00
1000
2000
4000
8000
FFF0
ENDCHAR
STARTCHAR 017C
ENCODING 380
SWIDTH 1020 0
DWIDTH 17 0
BBX 9 11 4 0
BITMAP
1C00
1C00
0000
FF80
0100
0200
0C00
1800
2000
4000
FF80
ENDCHAR
STARTCHAR 017D
ENCODING 381
SWIDTH 1020 0
DWIDTH 17 0
BBX 12 15 3 0
BITMAP
1080
0D00
0D00
0600
7FE0
0040
0080
0100
0600
0C00
1000
2000
4000
8000
FFF0
ENDCHAR
STARTCHAR 017E
ENCODING 382
SWIDTH 1020 0
DWIDTH 17 0
BBX 9 12 4 0
BITMAP
2100
1A00
0C00
0000
FF80
0100
0200
0C00
1800
2000
4000
FF80
ENDCHAR
STARTCHAR 0193
ENCODING 403
SWIDTH 1020 0
DWIDTH 17 0
BBX 15 14 2 0
BITMAP
0FCE
0FCE
3032
4000
4000
8000
8000
8000
8078
8008
4008
4010
3060
0F80
ENDCHAR
STARTCHAR 01C2
ENCODING 450
SWIDTH 1020 0
DWIDTH 17 0
BBX 8 14 5 0
BITMAP
18
18
18
18
18
FF
18
18
18
FF
18
18
18
18
ENDCHAR
STARTCHAR 01CD
ENCODING 461
SWIDTH 1020 0
DWIDTH 17 0
BBX 12 15 3 0
BITMAP
1080
0D00
0D00
0600
0600
0D00
0D00
1080
1080
2040
3FC0
4020
4020
8010
8010
ENDCHAR
STARTCHAR 01CE
ENCODING 462
SWIDTH 1020 0
DWIDTH 17 0
BBX 9 14 5 0
BITMAP
4200
4200
3400
1800
0000
7E00
8100
0100
3F00
4100
8100
8100
8300
7C80
ENDCHAR
STARTCHAR 01D0
ENCODING 464
SWIDTH 1020 0
DWIDTH 17 0
BBX 6 12 6 0
BITMAP
84
68
30
00
30
30
30
30
30
30
30
30
ENDCHAR
STARTCHAR 01D1
ENCODING 465
SWIDTH 1020 0
DWIDTH 17 0
BBX 12 15 3 0
BITMAP
1080
0D00
0D00
0600
0F00
30C0
4020
4020
8010
8010
8010
4020
4020
30C0
0F00
ENDCHAR
STARTCHAR 01D2
ENCODING 466
SWIDTH 1020 0
DWIDTH 17 0
BBX 9 12 4 0
BITMAP
4200
2C00
1800
0000
3E00
4100
8080
8080
8080
8080
4100
3E00
ENDCHAR
STARTCHAR 01D4
ENCODING 468
SWIDTH 1020 0
DWIDTH 17 0
BBX 8 12 5 0
BITMAP
42
34
18
00
81
81
81
81
81
81
43
3D
ENDCHAR
STARTCHAR 01D6
ENCODING 470
SWIDTH 1020 0
DWIDTH 17 0
BBX 8 14 5 0
BITMAP
7E
7E
00
76
76
00
81
81
81
81
81
81
43
3D
ENDCHAR
STARTCHAR 01D8
ENCODING 472
SWIDTH 1020 0
DWIDTH 17 0
BBX 8 15 5 0
BITMAP
06
04
04
18
76
76
00
81
81
81
81
81
81
43
3D
ENDCHAR
STARTCHAR 01DA
ENCODING 474
SWIDTH 1020 0
DWIDTH 17 0
BBX 8 15 5 0
BITMAP
42
34
34
18
76
76
00
81
81
81
81
81
81
43
3D
ENDCHAR
STARTCHAR 01DC
ENCODING 476
SWIDTH 1020 0
DWIDTH 17 0
BBX 8 15 5 0
BITMAP
70
30
30
18
76
76
00
81
81
81
81
81
81
43
3D
ENDCHAR
STARTCHAR 01F8
ENCODING 504
SWIDTH 1020 0
DWIDTH 17 0
BBX 11 15 3 0
BITMAP
0E00
C620
C620
E120
A020
9020
9020
8C20
8620
8120
8120
80A0
8060
8060
8020
ENDCHAR
STARTCHAR 01F9
ENCODING 505
SWIDTH 1020 0
DWIDTH 17 0
BBX 8 12 5 0
BITMAP
38
18
04
00
BC
C2
81
81
81
81
81
81
ENDCHAR
STARTCHAR 01FD
ENCODING 509
SWIDTH 1020 0
DWIDTH 17 0
BBX 14 14 2 0
BITMAP
0380
0380
0300
0600
0000
0000
3E70
4388
0304
3FFC
4300
8300
8784
7B78
ENDCHAR
STARTCHAR 0250
ENCODING 592
SWIDTH 1020 0
DWIDTH 17 0
BBX 8 9 5 -1
BITMAP
BE
C1
81
81
82
FC
80
81
7E
ENDCHAR
STARTCHAR 0251
ENCODING 593
SWIDTH 1020 0
DWIDTH 17 0
BBX 9 8 4 0
BITMAP
3E80
4180
8080
8080
8080
8080
4180
3E80
ENDCHAR
STARTCHAR 0252
ENCODING 594
SWIDTH 1020 0
DWIDTH 17 0
BBX 9 8 5 0
BITMAP
BE00
C100
8080
8080
8080
8080
C100
BE00
ENDCHAR
STARTCHAR 0253
ENCODING 595
SWIDTH 1020 0
DWIDTH 17 0
BBX 8 14 5 0
BITMAP
3E
3E
41
80
80
80
BC
C2
81
81
81
81
C2
BC
ENDCHAR
STARTCHAR 0254
ENCODING 596
SWIDTH 1020 0
DWIDTH 17 0
BBX 8 8 5 0
BITMAP
7C
82
01
01
01
81
42
3C
ENDCHAR
STARTCHAR 0255
ENCODING 597
SWIDTH 1020 0
DWIDTH 17 0
BBX 9 10 4 -2
BITMAP
3F00
4080
8000
8000
8100
8280
4C80
3F00
1800
2000
ENDCHAR
STARTCHAR 0256
ENCODING 598
SWIDTH 1020 0
DWIDTH 17 0
BBX 12 14 4 -2
BITMAP
0080
0080
0080
0080
3E80
4180
8080
8080
8080
8080
4180
3E80
0090
0060
ENDCHAR
STARTCHAR 0257
ENCODING 599
SWIDTH 1020 0
DWIDTH 17 0
BBX 11 14 4 0
BITMAP
00C0
00C0
0120
0100
0100
0100
3D00
4300
8100
8100
8100
8100
4300
3D00
ENDCHAR
STARTCHAR 0258
ENCODING 600
SWIDTH 1020 0
DWIDTH 17 0
BBX 8 8 5 0
BITMAP
3C
42
81
FF
01
01
82
7C
ENDCHAR
STARTCHAR 0259
ENCODING 601
SWIDTH 1020 0
DWIDTH 17 0
BBX 8 8 5 0
BITMAP
7C
82
01
01
FF
81
42
3C
ENDCHAR
STARTCHAR 025A
ENCODING 602
SWIDTH 1020 0
DWIDTH 17 0
BBX 13 8 4 0
BITMAP
7E00
8120
03E0
1CA0
6098
8080
4100
3E00
ENDCHAR
STARTCHAR 025C
ENCODING 604
SWIDTH 1020 0
DWIDTH 17 0
BBX 8 8 5 0
BITMAP
7E
81
01
3E
01
81
42
3C
ENDCHAR
STARTCHAR 025E
ENCODING 606
SWIDTH 1020 0
DWIDTH 17 0
BBX 8 8 5 0
BITMAP
3E
41
81
9E
81
81
42
3C
ENDCHAR
STARTCHAR 025F
ENCODING 607
SWIDTH 1020 0
DWIDTH 17 0
BBX 8 10 4 -2
BITMAP
0C
0C
0C
0C
0C
0C
3F
0C
8C
78
ENDCHAR
STARTCHAR 0260
ENCODING 608
SWIDTH 1020 0
DWIDTH 17 0
BBX 11 13 5 -2
BITMAP
00C0
0120
3D00
4300
8100
8100
8100
4300
3D00
0100
8100
4200
3C00
ENDCHAR
STARTCHAR 0261
ENCODING 609
SWIDTH 1020 0
DWIDTH 17 0
BBX 8 11 5 -2
BITMAP
3D
43
81
81
81
43
3D
01
81
42
3C
ENDCHAR
STARTCHAR 0264
ENCODING 612
SWIDTH 1020 0
DWIDTH 17 0
BBX 10 9 3 0
BITMAP
E1C0
4080
2100
2100
1600
0C00
1600
1600
0C00
ENDCHAR
STARTCHAR 0265
ENCODING 613
SWIDTH 1020 0
DWIDTH 17 0
BBX 8 11 5 -2
BITMAP
81
81
81
81
81
81
43
3D
01
01
01
ENDCHAR
STARTCHAR 0266
ENCODING 614
SWIDTH 1020 0
DWIDTH 17 0
BBX 8 14 5 0
BITMAP
3E
3E
41
80
80
80
BC
C2
81
81
81
81
81
81
ENDCHAR
STARTCHAR 0267
ENCODING 615
SWIDTH 1020 0
DWIDTH 17 0
BBX 8 16 5 -2
BITMAP
3E
3E
41
80
80
80
BC
C2
81
81
81
81
81
81
32
1C
ENDCHAR
STARTCHAR 0268
ENCODING 616
SWIDTH 1020 0
DWIDTH 17 0
BBX 6 12 6 0
BITMAP
78
78
00
00
30
30
30
FC
30
30
30
30
ENDCHAR
STARTCHAR 026C
ENCODING 620
SWIDTH 1020 0
DWIDTH 17 0
BBX 11 14 4 0
BITMAP
0C00
0C00
0C00
0C00
0C00
6C00
9C00
8C00
8C00
7FE0
0C00
0C00
0C00
0C00
ENDCHAR
STARTCHAR 026D
ENCODING 621
SWIDTH 1020 0
DWIDTH 17 0
BBX 5 16 8 -2
BITMAP
C0
C0
C0
C0
C0
C0
C0
C0
C0
C0
C0
C0
C0
C0
C8
30
ENDCHAR
STARTCHAR 026E
ENCODING 622
SWIDTH 1020 0
DWIDTH 17 0
BBX 9 16 5 -2
BITMAP
8000
8000
8000
8000
8000
8000
FF80
8100
8600
9800
BE00
8100
8080
0080
4100
3E00
ENDCHAR
STARTCHAR 026F
ENCODING 623
SWIDTH 1020 0
DWIDTH 17 0
BBX 12 8 3 0
BITMAP
8610
8610
8610
8610
8610
8610
8E30
71D0
ENDCHAR
STARTCHAR 0270
ENCODING 624
SWIDTH 1020 0
DWIDTH 17 0
BBX 13 10 3 -2
BITMAP
8610
8610
8610
8610
8610
8610
8E30
71D0
0010
0018
ENDCHAR
STARTCHAR 0271
ENCODING 625
SWIDTH 1020 0
DWIDTH 17 0
BBX 12 10 3 -2
BITMAP
BCE0
C710
8610
8610
8610
8610
8610
8610
0050
0060
ENDCHAR
STARTCHAR 0272
ENCODING 626
SWIDTH 1020 0
DWIDTH 17 0
BBX 12 10 2 -2
BITMAP
0BC0
0E20
0810
0810
0810
0810
0810
0810
9000
6000
ENDCHAR
STARTCHAR 0273
ENCODING 627
SWIDTH 1020 0
DWIDTH 17 0
BBX 11 10 4 -2
BITMAP
BC00
C200
8100
8100
8100
8100
8100
8100
0120
00C0
ENDCHAR
STARTCHAR 0275
ENCODING 629
SWIDTH 1020 0
DWIDTH 17 0
BBX 9 8 5 0
BITMAP
3E00
4100
8080
FF80
8080
8080
4100
3E00
ENDCHAR
STARTCHAR 0279
ENCODING 633
SWIDTH 1020 0
DWIDTH 17 0
BBX 7 8 4 0
BITMAP
02
02
02
02
02
02
9E
62
ENDCHAR
STARTCHAR 027A
ENCODING 634
SWIDTH 1020 0
DWIDTH 17 0
BBX 7 14 4 0
BITMAP
02
02
02
02
02
02
02
02
02
02
02
02
9E
62
ENDCHAR
STARTCHAR 027B
ENCODING 635
SWIDTH 1020 0
DWIDTH 17 0
BBX 10 10 4 -2
BITMAP
0200
0200
0200
0200
0200
0200
9E00
6200
0240
0180
ENDCHAR
STARTCHAR 027D
ENCODING 637
SWIDTH 1020 0
DWIDTH 17 0
BBX 7 10 6 -2
BITMAP
8C
F2
80
80
80
80
80
80
88
70
ENDCHAR
STARTCHAR 027E
ENCODING 638
SWIDTH 1020 0
DWIDTH 17 0
BBX 7 8 5 0
BITMAP
1C
32
32
30
30
30
30
FC
ENDCHAR
STARTCHAR 0281
ENCODING 641
SWIDTH 1020 0
DWIDTH 17 0
BBX 9 9 5 0
BITMAP
8180
8280
8400
BC00
C200
8100
8100
C200
BC00
ENDCHAR
STARTCHAR 0282
ENCODING 642
SWIDTH 1020 0
DWIDTH 17 0
BBX 7 10 6 -2
BITMAP
78
86
80
70
0C
02
82
FC
80
78
ENDCHAR
STARTCHAR 0283
ENCODING 643
SWIDTH 1020 0
DWIDTH 17 0
BBX 8 17 5 -2
BITMAP
06
19
19
18
18
18
18
18
18
18
18
18
18
18
18
98
70
ENDCHAR
STARTCHAR 0284
ENCODING 644
SWIDTH 1020 0
DWIDTH 17 0
BBX 10 13 3 -2
BITMAP
0180
0640
0C00
0C00
0C00
0C00
0C00
0C00
7F80
0C00
0C00
9000
6000
ENDCHAR
STARTCHAR 0288
ENCODING 648
SWIDTH 1020 0
DWIDTH 17 0
BBX 7 13 6 -2
BITMAP
30
30
FC
30
30
30
30
30
30
30
30
30
0E
ENDCHAR
STARTCHAR 0289
ENCODING 649
SWIDTH 1020 0
DWIDTH 17 0
BBX 12 8 3 0
BITMAP
2040
2040
2040
FFF0
2040
2040
1080
0F00
ENDCHAR
STARTCHAR 028A
ENCODING 650
SWIDTH 1020 0
DWIDTH 17 0
BBX 11 8 3 0
BITMAP
F1E0
2080
4040
4040
4040
4040
2080
1F00
ENDCHAR
STARTCHAR 028B
ENCODING 651
SWIDTH 1020 0
DWIDTH 17 0
BBX 10 8 3 0
BITMAP
C1C0
2040
2040
2040
2040
2080
1080
0F00
ENDCHAR
STARTCHAR 028C
ENCODING 652
SWIDTH 1020 0
DWIDTH 17 0
BBX 8 8 5 0
BITMAP
18
18
34
34
42
42
81
81
ENDCHAR
STARTCHAR 028D
ENCODING 653
SWIDTH 1020 0
DWIDTH 17 0
BBX 10 8 4 0
BITMAP
2100
2100
5A80
5A80
5A80
8C40
8C40
8C40
ENDCHAR
STARTCHAR 028E
ENCODING 654
SWIDTH 1020 0
DWIDTH 17 0
BBX 8 10 5 0
BITMAP
03
04
18
18
34
34
42
42
81
81
ENDCHAR
STARTCHAR 0290
ENCODING 656
SWIDTH 1020 0
DWIDTH 17 0
BBX 12 10 4 -2
BITMAP
FF80
0100
0200
0C00
1800
2000
4000
FF80
0090
0060
ENDCHAR
STARTCHAR 0291
ENCODING 657
SWIDTH 1020 0
DWIDTH 17 0
BBX 9 10 4 -2
BITMAP
7F00
0100
0200
0C00
1900
2280
4C80
FF00
1800
2000
ENDCHAR
STARTCHAR 0292
ENCODING 658
SWIDTH 1020 0
DWIDTH 17 0
BBX 9 10 4 -2
BITMAP
FF00
0200
0C00
1800
7E00
0100
0080
0080
8100
7E00
ENDCHAR
STARTCHAR 0294
ENCODING 660
SWIDTH 1020 0
DWIDTH 17 0
BBX 10 14 4 0
BITMAP
3F00
3F00
4080
8040
8040
8040
0180
0E00
0C00
0C00
0C00
0C00
0C00
0C00
ENDCHAR
STARTCHAR 0295
ENCODING 661
SWIDTH 1020 0
DWIDTH 17 0
BBX 10 14 4 0
BITMAP
3F00
3F00
4080
8040
8040
8040
6000
1C00
0C00
0C00
0C00
0C00
0C00
0C00
ENDCHAR
STARTCHAR 0298
ENCODING 664
SWIDTH 1020 0
DWIDTH 17 0
BBX 11 10 3 0
BITMAP
1F00
2080
4040
8020
8E20
8E20
8020
4040
2080
1F00
ENDCHAR
STARTCHAR 029D
ENCODING 669
SWIDTH 1020 0
DWIDTH 17 0
BBX 8 14 5 -2
BITMAP
3C
3C
00
00
18
18
18
18
18
18
18
7E
99
70
ENDCHAR
STARTCHAR 02A1
ENCODING 673
SWIDTH 1020 0
DWIDTH 17 0
BBX 10 14 4 0
BITMAP
3F00
3F00
4080
8040
8040
8040
0180
0E00
0C00
7F80
0C00
0C00
0C00
0C00
ENDCHAR
STARTCHAR 02A2
ENCODING 674
SWIDTH 1020 0
DWIDTH 17 0
BBX 10 14 4 0
BITMAP
3F00
3F00
4080
8040
8040
8040
6000
1C00
0C00
7F80
0C00
0C00
0C00
0C00
ENDCHAR
STARTCHAR 02C7
ENCODING 711
SWIDTH 1020 0
DWIDTH 17 0
BBX 8 5 5 10
BITMAP
81
42
42
34
18
ENDCHAR
STARTCHAR 02C8
ENCODING 712
SWIDTH 1020 0
DWIDTH 17 0
BBX 2 6 8 9
BITMAP
C0
C0
C0
C0
C0
C0
ENDCHAR
STARTCHAR 02CC
ENCODING 716
SWIDTH 1020 0
DWIDTH 17 0
BBX 2 5 8 -2
BITMAP
C0
C0
C0
C0
C0
ENDCHAR
STARTCHAR 02D0
ENCODING 720
SWIDTH 1020 0
DWIDTH 17 0
BBX 6 9 6 0
BITMAP
FC
78
30
30
00
30
30
78
FC
ENDCHAR
STARTCHAR 02D1
ENCODING 721
SWIDTH 1020 0
DWIDTH 17 0
BBX 6 4 6 5
BITMAP
FC
78
30
30
ENDCHAR
STARTCHAR 02D8
ENCODING 728
SWIDTH 1020 0
DWIDTH 17 0
BBX 8 5 5 10
BITMAP
81
81
81
42
3C
ENDCHAR
STARTCHAR 02D9
ENCODING 729
SWIDTH 1020 0
DWIDTH 17 0
BBX 3 3 7 11
BITMAP
E0
E0
E0
ENDCHAR
STARTCHAR 02DB
ENCODING 731
SWIDTH 1020 0
DWIDTH 17 0
BBX 3 5 10 -1
BITMAP
40
80
80
60
60
ENDCHAR
STARTCHAR 02DD
ENCODING 733
SWIDTH 1020 0
DWIDTH 17 0
BBX 7 4 6 11
BITMAP
76
64
64
88
ENDCHAR
STARTCHAR 02DE
ENCODING 734
SWIDTH 1020 0
DWIDTH 17 0
BBX 8 6 6 3
BITMAP
60
B0
08
09
0A
0C
ENDCHAR
STARTCHAR 02E5
ENCODING 741
SWIDTH 1020 0
DWIDTH 17 0
BBX 10 17 0 -2
BITMAP
FFC0
00C0
00C0
00C0
00C0
00C0
00C0
00C0
00C0
00C0
00C0
00C0
00C0
00C0
00C0
00C0
00C0
ENDCHAR
STARTCHAR 02E6
ENCODING 742
SWIDTH 1020 0
DWIDTH 17 0
BBX 10 17 0 -2
BITMAP
00C0
00C0
00C0
00C0
00C0
FFC0
00C0
00C0
00C0
00C0
00C0
00C0
00C0
00C0
00C0
00C0
00C0
ENDCHAR
STARTCHAR 02E7
ENCODING 743
SWIDTH 1020 0
DWIDTH 17 0
BBX 10 17 0 -2
BITMAP
00C0
00C0
00C0
00C0
00C0
00C0
00C0
00C0
00C0
FFC0
00C0
00C0
00C0
00C0
00C0
00C0
00C0
ENDCHAR
STARTCHAR 02E8
ENCODING 744
SWIDTH 1020 0
DWIDTH 17 0
BBX 10 17 0 -2
BITMAP
00C0
00C0
00C0
00C0
00C0
00C0
00C0
00C0
00C0
00C0
00C0
00C0
FFC0
00C0
00C0
00C0
00C0
ENDCHAR
STARTCHAR 02E9
ENCODING 745
SWIDTH 1020 0
DWIDTH 17 0
BBX 10 17 0 -2
BITMAP
00C0
00C0
00C0
00C0
00C0
00C0
00C0
00C0
00C0
00C0
00C0
00C0
00C0
00C0
00C0
00C0
FFC0
ENDCHAR
STARTCHAR 0300
ENCODING 768
SWIDTH 1020 0
DWIDTH 17 0
BBX 5 5 6 10
BITMAP
E0
60
60
30
08
ENDCHAR
STARTCHAR 0301
ENCODING 769
SWIDTH 1020 0
DWIDTH 17 0
BBX 5 5 7 10
BITMAP
18
10
10
60
C0
ENDCHAR
STARTCHAR 0302
ENCODING 770
SWIDTH 1020 0
DWIDTH 17 0
BBX 8 5 5 10
BITMAP
18
34
34
42
81
ENDCHAR
STARTCHAR 0303
ENCODING 771
SWIDTH 1020 0
DWIDTH 17 0
BBX 8 4 5 11
BITMAP
71
99
99
86
ENDCHAR
STARTCHAR 0304
ENCODING 772
SWIDTH 1020 0
DWIDTH 17 0
BBX 7 2 5 12
BITMAP
FE
FE
ENDCHAR
STARTCHAR 0306
ENCODING 774
SWIDTH 1020 0
DWIDTH 17 0
BBX 8 5 5 10
BITMAP
81
81
81
42
3C
ENDCHAR
STARTCHAR 0308
ENCODING 776
SWIDTH 1020 0
DWIDTH 17 0
BBX 7 3 5 11
BITMAP
C6
C6
C6
ENDCHAR
STARTCHAR 030B
ENCODING 779
SWIDTH 1020 0
DWIDTH 17 0
BBX 8 5 4 10
BITMAP
3B
22
22
4C
98
ENDCHAR
STARTCHAR 030C
ENCODING 780
SWIDTH 1020 0
DWIDTH 17 0
BBX 8 5 5 10
BITMAP
81
42
42
34
18
ENDCHAR
STARTCHAR 030F
ENCODING 783
SWIDTH 1020 0
DWIDTH 17 0
BBX 8 5 5 10
BITMAP
DC
44
44
32
19
ENDCHAR
STARTCHAR 0318
ENCODING 792
SWIDTH 1020 0
DWIDTH 17 0
BBX 5 5 5 -1
BITMAP
18
18
F8
18
18
ENDCHAR
STARTCHAR 0319
ENCODING 793
SWIDTH 1020 0
DWIDTH 17 0
BBX 5 5 8 -1
BITMAP
C0
C0
F8
C0
C0
ENDCHAR
STARTCHAR 031A
ENCODING 794
SWIDTH 1020 0
DWIDTH 17 0
BBX 4 5 10 9
BITMAP
F0
F0
10
10
10
ENDCHAR
STARTCHAR 031C
ENCODING 796
SWIDTH 1020 0
DWIDTH 17 0
BBX 5 4 6 -2
BITMAP
78
80
80
78
ENDCHAR
STARTCHAR 031D
ENCODING 797
SWIDTH 1020 0
DWIDTH 17 0
BBX 8 4 5 -1
BITMAP
18
18
18
FF
ENDCHAR
STARTCHAR 031E
ENCODING 798
SWIDTH 1020 0
DWIDTH 17 0
BBX 8 4 5 -1
BITMAP
FF
18
18
18
ENDCHAR
STARTCHAR 031F
ENCODING 799
SWIDTH 1020 0
DWIDTH 17 0
BBX 8 5 4 -2
BITMAP
18
18
FF
18
18
ENDCHAR
STARTCHAR 0320
ENCODING 800
SWIDTH 1020 0
DWIDTH 17 0
BBX 8 1 4 0
BITMAP
FF
ENDCHAR
STARTCHAR 0324
ENCODING 804
SWIDTH 1020 0
DWIDTH 17 0
BBX 7 2 5 -1
BITMAP
C6
C6
ENDCHAR
STARTCHAR 0325
ENCODING 805
SWIDTH 1020 0
DWIDTH 17 0
BBX 5 4 6 -2
BITMAP
70
88
88
70
ENDCHAR
STARTCHAR 0329
ENCODING 809
SWIDTH 1020 0
DWIDTH 17 0
BBX 2 4 7 -2
BITMAP
C0
C0
C0
C0
ENDCHAR
STARTCHAR 032A
ENCODING 810
SWIDTH 1020 0
DWIDTH 17 0
BBX 9 3 4 -1
BITMAP
FF80
8080
8080
ENDCHAR
STARTCHAR 032C
ENCODING 812
SWIDTH 1020 0
DWIDTH 17 0
BBX 8 4 5 -2
BITMAP
81
42
34
18
ENDCHAR
STARTCHAR 032F
ENCODING 815
SWIDTH 1020 0
DWIDTH 17 0
BBX 8 4 5 -2
BITMAP
3C
42
81
81
ENDCHAR
STARTCHAR 0330
ENCODING 816
SWIDTH 1020 0
DWIDTH 17 0
BBX 8 3 5 -2
BITMAP
71
99
86
ENDCHAR
STARTCHAR 0334
ENCODING 820
SWIDTH 1020 0
DWIDTH 17 0
BBX 8 3 4 4
BITMAP
61
99
8E
ENDCHAR
STARTCHAR 0339
ENCODING 825
SWIDTH 1020 0
DWIDTH 17 0
BBX 5 4 7 -2
BITMAP
F0
08
08
F0
ENDCHAR
STARTCHAR 033A
ENCODING 826
SWIDTH 1020 0
DWIDTH 17 0
BBX 9 3 4 -1
BITMAP
8080
8080
FF80
ENDCHAR
STARTCHAR 033B
ENCODING 827
SWIDTH 1020 0
DWIDTH 17 0
BBX 9 4 4 -1
BITMAP
FF80
8080
8080
FF80
ENDCHAR
STARTCHAR 033C
ENCODING 828
SWIDTH 1020 0
DWIDTH 17 0
BBX 9 3 4 -2
BITMAP
6300
9C80
8080
ENDCHAR
STARTCHAR 033D
ENCODING 829
SWIDTH 1020 0
DWIDTH 17 0
BBX 7 6 5 9
BITMAP
82
44
44
38
44
82
ENDCHAR
STARTCHAR 0361
ENCODING 865
SWIDTH 1020 0
DWIDTH 17 0
BBX 13 4 2 10
BITMAP
1FC0
1FC0
6030
8008
ENDCHAR
STARTCHAR 0391
ENCODING 913
SWIDTH 1020 0
DWIDTH 17 0
BBX 14 14 2 0
BITMAP
0300
0300
0300
0680
0680
0840
0840
1020
1020
3FF0
2010
4008
4008
8004
ENDCHAR
STARTCHAR 0392
ENCODING 914
SWIDTH 1020 0
DWIDTH 17 0
BBX 11 14 4 0
BITMAP
FF00
FF00
8080
8040
8040
8040
8080
FF00
80C0
8020
8020
8020
8040
FF80
ENDCHAR
STARTCHAR 0393
ENCODING 915
SWIDTH 1020 0
DWIDTH 17 0
BBX 10 14 4 0
BITMAP
FFC0
FFC0
8000
8000
8000
8000
8000
8000
8000
8000
8000
8000
8000
8000
ENDCHAR
STARTCHAR 0394
ENCODING 916
SWIDTH 1020 0
DWIDTH 17 0
BBX 14 14 2 0
BITMAP
0300
0300
0680
0680
0840
0840
1020
1020
2010
2010
4008
4008
8004
FFFC
ENDCHAR
STARTCHAR 0395
ENCODING 917
SWIDTH 1020 0
DWIDTH 17 0
BBX 10 14 4 0
BITMAP
FFC0
FFC0
8000
8000
8000
8000
8000
FF00
8000
8000
8000
8000
8000
FFC0
ENDCHAR
STARTCHAR 0396
ENCODING 918
SWIDTH 1020 0
DWIDTH 17 0
BBX 10 14 4 0
BITMAP
FF80
FF80
0100
0200
0200
0C00
0C00
1800
1800
2000
2000
4000
4000
FFC0
ENDCHAR
STARTCHAR 0397
ENCODING 919
SWIDTH 1020 0
DWIDTH 17 0
BBX 11 14 3 0
BITMAP
8020
8020
8020
8020
8020
8020
8020
FFE0
8020
8020
8020
8020
8020
8020
ENDCHAR
STARTCHAR 0398
ENCODING 920
SWIDTH 1020 0
DWIDTH 17 0
BBX 13 14 2 0
BITMAP
0F80
0F80
3060
4010
4010
8008
8008
9FC8
8008
8008
4010
4010
3060
0F80
ENDCHAR
STARTCHAR 0399
ENCODING 921
SWIDTH 1020 0
DWIDTH 17 0
BBX 2 14 7 0
BITMAP
C0
C0
C0
C0
C0
C0
C0
C0
C0
C0
C0
C0
C0
C0
ENDCHAR
STARTCHAR 039A
ENCODING 922
SWIDTH 1020 0
DWIDTH 17 0
BBX 10 14 4 0
BITMAP
8080
8080
8100
8200
8C00
9800
A000
E000
9800
8C00
8200
8100
8080
8040
ENDCHAR
STARTCHAR 039B
ENCODING 923
SWIDTH 1020 0
DWIDTH 17 0
BBX 14 14 2 0
BITMAP
0300
0300
0300
0680
0680
0840
0840
1020
1020
2010
2010
4008
4008
8004
ENDCHAR
STARTCHAR 039C
ENCODING 924
SWIDTH 1020 0
DWIDTH 17 0
BBX 12 14 3 0
BITMAP
C030
C030
C030
C030
A050
A050
A050
9090
9090
9090
8D10
8D10
8610
8610
ENDCHAR
STARTCHAR 039D
ENCODING 925
SWIDTH 1020 0
DWIDTH 17 0
BBX 11 14 3 0
BITMAP
8020
8020
C020
A020
9020
9020
8C20
8620
8620
8120
80A0
80A0
8060
8020
ENDCHAR
STARTCHAR 039E
ENCODING 926
SWIDTH 1020 0
DWIDTH 17 0
BBX 13 14 2 0
BITMAP
FFF8
FFF8
0000
0000
0000
0000
0000
7FF0
0000
0000
0000
0000
0000
FFF8
ENDCHAR
STARTCHAR 039F
ENCODING 927
SWIDTH 1020 0
DWIDTH 17 0
BBX 13 14 2 0
BITMAP
0F80
0F80
3060
4010
4010
8008
8008
8008
8008
8008
4010
4010
3060
0F80
ENDCHAR
STARTCHAR 03A0
ENCODING 928
SWIDTH 1020 0
DWIDTH 17 0
BBX 13 14 2 0
BITMAP
FFF8
FFF8
2020
2020
2020
2020
2020
2020
2020
2020
2020
2020
2020
2020
ENDCHAR
STARTCHAR 03A1
ENCODING 929
SWIDTH 1020 0
DWIDTH 17 0
BBX 10 14 4 0
BITMAP
FF00
FF00
8080
8040
8040
8040
8080
FF00
8000
8000
8000
8000
8000
8000
ENDCHAR
STARTCHAR 03A3
ENCODING 931
SWIDTH 1020 0
DWIDTH 17 0
BBX 12 14 2 0
BITMAP
FFF0
FFF0
4000
2000
1000
0800
0600
0300
0600
0800
1000
2000
4000
FFF0
ENDCHAR
STARTCHAR 03A4
ENCODING 932
SWIDTH 1020 0
DWIDTH 17 0
BBX 14 14 2 0
BITMAP
FFFC
FFFC
0300
0300
0300
0300
0300
0300
0300
0300
0300
0300
0300
0300
ENDCHAR
STARTCHAR 03A5
ENCODING 933
SWIDTH 1020 0
DWIDTH 17 0
BBX 14 14 2 0
BITMAP
3870
3870
4688
8304
0300
0300
0300
0300
0300
0300
0300
0300
0300
0300
ENDCHAR
STARTCHAR 03A6
ENCODING 934
SWIDTH 1020 0
DWIDTH 17 0
BBX 14 14 2 0
BITMAP
0300
0300
0300
0FC0
3330
4308
8304
8304
8304
4308
3330
0FC0
0300
0300
ENDCHAR
STARTCHAR 03A7
ENCODING 935
SWIDTH 1020 0
DWIDTH 17 0
BBX 12 14 3 0
BITMAP
8010
8010
4020
2040
1080
1080
0D00
0600
0D00
1080
1080
2040
4020
8010
ENDCHAR
STARTCHAR 03A8
ENCODING 936
SWIDTH 1020 0
DWIDTH 17 0
BBX 16 14 1 0
BITMAP
0180
0180
6186
9189
1188
1188
1188
1188
0990
0990
07E0
0180
0180
0180
ENDCHAR
STARTCHAR 03A9
ENCODING 937
SWIDTH 1020 0
DWIDTH 17 0
BBX 13 14 2 0
BITMAP
0F80
0F80
3060
4010
4010
8008
8008
8008
4010
4010
3060
0880
0880
F8F8
ENDCHAR
STARTCHAR 03B1
ENCODING 945
SWIDTH 1020 0
DWIDTH 17 0
BBX 11 8 3 0
BITMAP
1E20
2120
4140
4180
8100
8700
8D20
70C0
ENDCHAR
STARTCHAR 03B2
ENCODING 946
SWIDTH 1020 0
DWIDTH 17 0
BBX 11 16 4 -2
BITMAP
03C0
03C0
0C20
1820
1820
2020
2040
2380
4080
4040
4040
4040
9880
8F00
8000
8000
ENDCHAR
STARTCHAR 03B3
ENCODING 947
SWIDTH 1020 0
DWIDTH 17 0
BBX 11 10 3 -2
BITMAP
7060
8C80
0D00
0E00
0E00
0C00
1000
1000
2000
2000
ENDCHAR
STARTCHAR 03B4
ENCODING 948
SWIDTH 1020 0
DWIDTH 17 0
BBX 11 14 3 0
BITMAP
1E00
1E00
2180
1040
0C20
0600
1D00
2080
4080
8080
8080
8100
4600
3C00
ENDCHAR
STARTCHAR 03B5
ENCODING 949
SWIDTH 1020 0
DWIDTH 17 0
BBX 9 8 4 0
BITMAP
3F00
4080
4000
3E00
4000
8000
8100
7E00
ENDCHAR
STARTCHAR 03B6
ENCODING 950
SWIDTH 1020 0
DWIDTH 17 0
BBX 9 16 5 -1
BITMAP
4000
8080
8080
8100
7A00
0400
1800
3000
4000
8000
8000
8000
7C00
0200
0200
3C00
ENDCHAR
STARTCHAR 03B7
ENCODING 951
SWIDTH 1020 0
DWIDTH 17 0
BBX 11 10 3 -2
BITMAP
6780
9C40
1020
1020
2020
2040
4040
4040
0080
0080
ENDCHAR
STARTCHAR 03B8
ENCODING 952
SWIDTH 1020 0
DWIDTH 17 0
BBX 11 14 3 0
BITMAP
0780
0780
1C40
2020
4020
4020
FFE0
8020
8020
8040
8040
8080
4700
3C00
ENDCHAR
STARTCHAR 03B9
ENCODING 953
SWIDTH 1020 0
DWIDTH 17 0
BBX 9 8 4 0
BITMAP
2000
2000
4000
4000
8000
8080
8300
7C00
ENDCHAR
STARTCHAR 03BA
ENCODING 954
SWIDTH 1020 0
DWIDTH 17 0
BBX 12 8 2 0
BITMAP
1060
1090
1700
3800
2600
4600
4620
83C0
ENDCHAR
STARTCHAR 03BB
ENCODING 955
SWIDTH 1020 0
DWIDTH 17 0
BBX 11 14 3 0
BITMAP
0E00
0E00
0100
0100
0100
0100
0100
0700
0D00
1100
1100
2080
2080
C060
ENDCHAR
STARTCHAR 03BC
ENCODING 956
SWIDTH 1020 0
DWIDTH 17 0
BBX 12 10 2 -2
BITMAP
1040
1040
1040
2080
2080
2080
2390
5E60
4000
8000
ENDCHAR
STARTCHAR 03BD
ENCODING 957
SWIDTH 1020 0
DWIDTH 17 0
BBX 11 8 3 0
BITMAP
C020
2020
2040
2040
4080
4100
4E00
F000
ENDCHAR
STARTCHAR 03BE
ENCODING 958
SWIDTH 1020 0
DWIDTH 17 0
BBX 10 16 3 -2
BITMAP
07C0
07C0
0C00
0600
1FC0
2000
2000
1000
7FC0
8000
8000
7000
0F00
0080
0080
7F00
ENDCHAR
STARTCHAR 03BF
ENCODING 959
SWIDTH 1020 0
DWIDTH 17 0
BBX 9 8 4 0
BITMAP
1E00
6100
8080
8080
8080
8080
4300
3C00
ENDCHAR
STARTCHAR 03C0
ENCODING 960
SWIDTH 1020 0
DWIDTH 17 0
BBX 11 9 3 0
BITMAP
0020
7FC0
9100
1100
1100
2600
2600
2640
C180
ENDCHAR
STARTCHAR 03C1
ENCODING 961
SWIDTH 1020 0
DWIDTH 17 0
BBX 10 10 4 -2
BITMAP
0F00
1880
2040
2040
4040
4040
5880
8F00
8000
8000
ENDCHAR
STARTCHAR 03C2
ENCODING 962
SWIDTH 1020 0
DWIDTH 17 0
BBX 10 11 4 -2
BITMAP
1F00
2080
4040
4040
4040
2080
1800
1800
0C00
CC00
3800
ENDCHAR
STARTCHAR 03C3
ENCODING 963
SWIDTH 1020 0
DWIDTH 17 0
BBX 10 9 4 0
BITMAP
0040
1FC0
6100
8080
8080
8080
8080
4300
3C00
ENDCHAR
STARTCHAR 03C4
ENCODING 964
SWIDTH 1020 0
DWIDTH 17 0
BBX 11 9 3 0
BITMAP
0020
7FC0
8C00
0C00
1000
1000
2080
2100
1E00
ENDCHAR
STARTCHAR 03C5
ENCODING 965
SWIDTH 1020 0
DWIDTH 17 0
BBX 9 8 4 0
BITMAP
4180
4080
4080
4080
8100
8100
8E00
7800
ENDCHAR
STARTCHAR 03C6
ENCODING 966
SWIDTH 1020 0
DWIDTH 17 0
BBX 11 16 3 -2
BITMAP
0080
0080
0080
0080
0100
0100
1F80
6640
8620
8620
8C20
4CC0
3F00
1000
1000
2000
ENDCHAR
STARTCHAR 03C7
ENCODING 967
SWIDTH 1020 0
DWIDTH 17 0
BBX 11 10 3 -2
BITMAP
3020
4C40
0C80
0D00
0E00
0C00
1C00
2C00
4640
8180
ENDCHAR
STARTCHAR 03C8
ENCODING 968
SWIDTH 1020 0
DWIDTH 17 0
BBX 11 16 3 -2
BITMAP
0080
0080
0080
0080
0100
0100
6120
A620
2620
4640
4C40
4C80
3F00
1000
1000
2000
ENDCHAR
STARTCHAR 03C9
ENCODING 969
SWIDTH 1020 0
DWIDTH 17 0
BBX 13 8 2 0
BITMAP
1010
2308
4308
4308
8608
8608
8E10
73E0
ENDCHAR
STARTCHAR 0401
ENCODING 1025
SWIDTH 1020 0
DWIDTH 17 0
BBX 10 15 4 0
BITMAP
C180
C180
C180
0000
FFC0
8000
8000
8000
8000
FE00
8000
8000
8000
8000
FFC0
ENDCHAR
STARTCHAR 0410
ENCODING 1040
SWIDTH 1020 0
DWIDTH 17 0
BBX 14 12 2 0
BITMAP
0300
0680
0680
0840
0840
1020
1020
3FF0
2010
4008
4008
8004
ENDCHAR
STARTCHAR 0411
ENCODING 1041
SWIDTH 1020 0
DWIDTH 17 0
BBX 11 14 4 0
BITMAP
FFC0
FFC0
8000
8000
8000
8000
8000
FF80
8040
8020
8020
8020
8040
FF80
ENDCHAR
STARTCHAR 0412
ENCODING 1042
SWIDTH 1020 0
DWIDTH 17 0
BBX 11 14 4 0
BITMAP
FF00
FF00
8080
8040
8040
8040
8080
FF00
80C0
8020
8020
8020
8040
FF80
ENDCHAR
STARTCHAR 0413
ENCODING 1043
SWIDTH 1020 0
DWIDTH 17 0
BBX 10 14 4 0
BITMAP
FFC0
FFC0
8000
8000
8000
8000
8000
8000
8000
8000
8000
8000
8000
8000
ENDCHAR
STARTCHAR 0414
ENCODING 1044
SWIDTH 1020 0
DWIDTH 17 0
BBX 13 16 2 -2
BITMAP
0FE0
0FE0
0820
0820
0820
0820
0820
0820
0820
0820
1020
1020
2020
FFF8
8008
8008
ENDCHAR
STARTCHAR 0415
ENCODING 1045
SWIDTH 1020 0
DWIDTH 17 0
BBX 10 14 4 0
BITMAP
FFC0
FFC0
8000
8000
8000
8000
FE00
8000
8000
8000
8000
8000
8000
FFC0
ENDCHAR
STARTCHAR 0416
ENCODING 1046
SWIDTH 1020 0
DWIDTH 17 0
BBX 16 14 1 0
BITMAP
6186
6186
9189
1188
1188
1188
0990
0FF0
1188
2184
2184
4182
4182
4182
ENDCHAR
STARTCHAR 0417
ENCODING 1047
SWIDTH 1020 0
DWIDTH 17 0
BBX 11 14 3 0
BITMAP
3F00
3F00
40C0
8020
0020
0020
0040
1F80
0040
0020
0020
8020
40C0
3F00
ENDCHAR
STARTCHAR 0418
ENCODING 1048
SWIDTH 1020 0
DWIDTH 17 0
BBX 11 14 3 0
BITMAP
8020
8020
8020
8060
80A0
8120
8620
8C20
9020
A020
C020
C020
8020
8020
ENDCHAR
STARTCHAR 0419
ENCODING 1049
SWIDTH 1020 0
DWIDTH 17 0
BBX 11 15 3 0
BITMAP
4040
2080
2080
1F00
8020
8060
80A0
8120
8620
8C20
9020
A020
C020
8020
8020
ENDCHAR
STARTCHAR 041A
ENCODING 1050
SWIDTH 1020 0
DWIDTH 17 0
BBX 12 14 4 0
BITMAP
80C0
80C0
8120
8200
8200
8C00
9800
E000
9800
8C00
8200
8100
80C0
8030
ENDCHAR
STARTCHAR 041B
ENCODING 1051
SWIDTH 1020 0
DWIDTH 17 0
BBX 12 14 3 0
BITMAP
1FF0
1FF0
1010
1010
1010
1010
1010
1010
1010
2010
2010
4010
4010
8010
ENDCHAR
STARTCHAR 041C
ENCODING 1052
SWIDTH 1020 0
DWIDTH 17 0
BBX 12 14 3 0
BITMAP
C030
C030
C030
C030
A050
A050
A050
9090
9090
9090
8D10
8D10
8610
8610
ENDCHAR
STARTCHAR 041D
ENCODING 1053
SWIDTH 1020 0
DWIDTH 17 0
BBX 11 14 3 0
BITMAP
8020
8020
8020
8020
8020
8020
FFE0
8020
8020
8020
8020
8020
8020
8020
ENDCHAR
STARTCHAR 041E
ENCODING 1054
SWIDTH 1020 0
DWIDTH 17 0
BBX 13 14 2 0
BITMAP
0F80
0F80
3060
4010
4010
8008
8008
8008
8008
8008
4010
4010
3060
0F80
ENDCHAR
STARTCHAR 041F
ENCODING 1055
SWIDTH 1020 0
DWIDTH 17 0
BBX 11 14 3 0
BITMAP
FFE0
FFE0
8020
8020
8020
8020
8020
8020
8020
8020
8020
8020
8020
8020
ENDCHAR
STARTCHAR 0420
ENCODING 1056
SWIDTH 1020 0
DWIDTH 17 0
BBX 10 14 4 0
BITMAP
FF00
FF00
8080
8040
8040
8040
8080
FF00
8000
8000
8000
8000
8000
8000
ENDCHAR
STARTCHAR 0421
ENCODING 1057
SWIDTH 1020 0
DWIDTH 17 0
BBX 12 14 3 0
BITMAP
0FC0
0FC0
3020
4010
4000
8000
8000
8000
8000
8000
4010
4010
3030
0FC0
ENDCHAR
STARTCHAR 0422
ENCODING 1058
SWIDTH 1020 0
DWIDTH 17 0
BBX 14 14 2 0
BITMAP
FFFC
FFFC
0300
0300
0300
0300
0300
0300
0300
0300
0300
0300
0300
0300
ENDCHAR
STARTCHAR 0423
ENCODING 1059
SWIDTH 1020 0
DWIDTH 17 0
BBX 12 14 3 0
BITMAP
8010
8010
4020
4020
2040
2040
1080
1080
0D00
0D00
0600
0600
9C00
E000
ENDCHAR
STARTCHAR 0424
ENCODING 1060
SWIDTH 1020 0
DWIDTH 17 0
BBX 14 14 2 0
BITMAP
0300
0300
0300
0FC0
3330
4308
8304
8304
8304
4308
3330
0FC0
0300
0300
ENDCHAR
STARTCHAR 0425
ENCODING 1061
SWIDTH 1020 0
DWIDTH 17 0
BBX 12 14 3 0
BITMAP
8010
8010
4020
2040
1080
1080
0D00
0600
0D00
1080
1080
2040
4020
8010
ENDCHAR
STARTCHAR 0426
ENCODING 1062
SWIDTH 1020 0
DWIDTH 17 0
BBX 13 16 2 -2
BITMAP
8020
8020
8020
8020
8020
8020
8020
8020
8020
8020
8020
8020
8020
FFF8
0008
0008
ENDCHAR
STARTCHAR 0427
ENCODING 1063
SWIDTH 1020 0
DWIDTH 17 0
BBX 10 14 4 0
BITMAP
8040
8040
8040
8040
8040
8040
8040
40C0
3F40
0040
0040
0040
0040
0040
ENDCHAR
STARTCHAR 0428
ENCODING 1064
SWIDTH 1020 0
DWIDTH 17 0
BBX 14 14 2 0
BITMAP
8304
8304
8304
8304
8304
8304
8304
8304
8304
8304
8304
8304
8304
FFFC
ENDCHAR
STARTCHAR 0429
ENCODING 1065
SWIDTH 1020 0
DWIDTH 17 0
BBX 15 16 2 -2
BITMAP
8304
8304
8304
8304
8304
8304
8304
8304
8304
8304
8304
8304
8304
FFFE
0002
0002
ENDCHAR
STARTCHAR 042A
ENCODING 1066
SWIDTH 1020 0
DWIDTH 17 0
BBX 15 14 1 0
BITMAP
FC00
FC00
0400
0400
0400
0400
07F8
0404
0402
0402
0402
0402
0404
07F8
ENDCHAR
STARTCHAR 042B
ENCODING 1067
SWIDTH 1020 0
DWIDTH 17 0
BBX 12 14 3 0
BITMAP
8010
8010
8010
8010
8010
8010
FE10
8110
8090
8090
8090
8090
8110
FE10
ENDCHAR
STARTCHAR 042C
ENCODING 1068
SWIDTH 1020 0
DWIDTH 17 0
BBX 10 14 4 0
BITMAP
8000
8000
8000
8000
8000
8000
FF00
8080
8040
8040
8040
8040
8080
FF00
ENDCHAR
STARTCHAR 042D
ENCODING 1069
SWIDTH 1020 0
DWIDTH 17 0
BBX 12 14 3 0
BITMAP
3F00
3F00
40C0
8020
8020
0010
0010
1FF0
0010
0010
8020
8020
40C0
3F00
ENDCHAR
STARTCHAR 042E
ENCODING 1070
SWIDTH 1020 0
DWIDTH 17 0
BBX 14 14 2 0
BITMAP
80E0
80E0
8310
8608
8608
8804
8804
F804
8804
8804
8608
8608
8310
80E0
ENDCHAR
STARTCHAR 042F
ENCODING 1071
SWIDTH 1020 0
DWIDTH 17 0
BBX 12 14 3 0
BITMAP
1FF0
1FF0
2010
4010
4010
4010
2010
1FF0
0610
0C10
0C10
1010
2010
C010
ENDCHAR
STARTCHAR 0430
ENCODING 1072
SWIDTH 1020 0
DWIDTH 17 0
BBX 8 9 5 0
BITMAP
3E
41
01
3F
41
81
81
83
7D
ENDCHAR
STARTCHAR 0431
ENCODING 1073
SWIDTH 1020 0
DWIDTH 17 0
BBX 9 12 4 0
BITMAP
0F00
3800
4000
4000
BE00
C100
8080
8080
8080
8080
4100
3E00
ENDCHAR
STARTCHAR 0432
ENCODING 1074
SWIDTH 1020 0
DWIDTH 17 0
BBX 8 8 5 0
BITMAP
FE
81
81
FE
81
81
81
FE
ENDCHAR
STARTCHAR 0433
ENCODING 1075
SWIDTH 1020 0
DWIDTH 17 0
BBX 8 8 5 0
BITMAP
FF
80
80
80
80
80
80
80
ENDCHAR
STARTCHAR 0434
ENCODING 1076
SWIDTH 1020 0
DWIDTH 17 0
BBX 11 10 3 -2
BITMAP
1F80
1080
1080
1080
1080
2080
2080
FFE0
8020
8020
ENDCHAR
STARTCHAR 0435
ENCODING 1077
SWIDTH 1020 0
DWIDTH 17 0
BBX 8 8 4 0
BITMAP
3C
42
81
FF
80
80
41
3E
ENDCHAR
STARTCHAR 0436
ENCODING 1078
SWIDTH 1020 0
DWIDTH 17 0
BBX 12 8 3 0
BITMAP
8610
4620
2640
1F80
2640
2640
4620
8610
ENDCHAR
STARTCHAR 0437
ENCODING 1079
SWIDTH 1020 0
DWIDTH 17 0
BBX 8 8 5 0
BITMAP
3E
41
01
1E
01
01
81
7E
ENDCHAR
STARTCHAR 0438
ENCODING 1080
SWIDTH 1020 0
DWIDTH 17 0
BBX 8 8 5 0
BITMAP
81
83
83
85
99
B1
C1
C1
ENDCHAR
STARTCHAR 0439
ENCODING 1081
SWIDTH 1020 0
DWIDTH 17 0
BBX 8 11 5 0
BITMAP
42
3C
00
81
83
83
85
99
B1
C1
C1
ENDCHAR
STARTCHAR 043A
ENCODING 1082
SWIDTH 1020 0
DWIDTH 17 0
BBX 8 8 5 0
BITMAP
87
98
B0
F0
98
84
82
81
ENDCHAR
STARTCHAR 043B
ENCODING 1083
SWIDTH 1020 0
DWIDTH 17 0
BBX 10 8 4 0
BITMAP
1FC0
1840
1840
1840
1840
1840
2040
C040
ENDCHAR
STARTCHAR 043C
ENCODING 1084
SWIDTH 1020 0
DWIDTH 17 0
BBX 10 8 4 0
BITMAP
C0C0
A140
A140
9A40
9A40
8C40
8C40
8040
ENDCHAR
STARTCHAR 043D
ENCODING 1085
SWIDTH 1020 0
DWIDTH 17 0
BBX 8 8 5 0
BITMAP
81
81
81
FF
81
81
81
81
ENDCHAR
STARTCHAR 043E
ENCODING 1086
SWIDTH 1020 0
DWIDTH 17 0
BBX 9 8 5 0
BITMAP
3E00
4100
8080
8080
8080
8080
4100
3E00
ENDCHAR
STARTCHAR 043F
ENCODING 1087
SWIDTH 1020 0
DWIDTH 17 0
BBX 8 8 5 0
BITMAP
FF
81
81
81
81
81
81
81
ENDCHAR
STARTCHAR 0440
ENCODING 1088
SWIDTH 1020 0
DWIDTH 17 0
BBX 8 10 5 -2
BITMAP
BC
C2
81
81
81
C2
BC
80
80
80
ENDCHAR
STARTCHAR 0441
ENCODING 1089
SWIDTH 1020 0
DWIDTH 17 0
BBX 8 8 4 0
BITMAP
3E
41
80
80
80
80
41
3E
ENDCHAR
STARTCHAR 0442
ENCODING 1090
SWIDTH 1020 0
DWIDTH 17 0
BBX 8 8 4 0
BITMAP
FF
18
18
18
18
18
18
18
ENDCHAR
STARTCHAR 0443
ENCODING 1091
SWIDTH 1020 0
DWIDTH 17 0
BBX 8 10 5 -2
BITMAP
81
81
42
42
34
34
18
18
30
C0
ENDCHAR
STARTCHAR 0444
ENCODING 1092
SWIDTH 1020 0
DWIDTH 17 0
BBX 12 13 2 -2
BITMAP
0600
0600
0600
36C0
4F20
8610
8610
8610
8610
4F20
36C0
0600
0600
ENDCHAR
STARTCHAR 0445
ENCODING 1093
SWIDTH 1020 0
DWIDTH 17 0
BBX 9 8 4 0
BITMAP
8080
4100
2200
1C00
1C00
2200
4100
8080
ENDCHAR
STARTCHAR 0446
ENCODING 1094
SWIDTH 1020 0
DWIDTH 17 0
BBX 10 10 4 -2
BITMAP
8100
8100
8100
8100
8100
8100
8100
FFC0
0040
0040
ENDCHAR
STARTCHAR 0447
ENCODING 1095
SWIDTH 1020 0
DWIDTH 17 0
BBX 8 8 5 0
BITMAP
81
81
81
81
7F
01
01
01
ENDCHAR
STARTCHAR 0448
ENCODING 1096
SWIDTH 1020 0
DWIDTH 17 0
BBX 12 8 3 0
BITMAP
8610
8610
8610
8610
8610
8610
8610
FFF0
ENDCHAR
STARTCHAR 0449
ENCODING 1097
SWIDTH 1020 0
DWIDTH 17 0
BBX 14 10 2 -2
BITMAP
8610
8610
8610
8610
8610
8610
8610
FFFC
0004
0004
ENDCHAR
STARTCHAR 044A
ENCODING 1098
SWIDTH 1020 0
DWIDTH 17 0
BBX 10 8 4 0
BITMAP
F800
1800
1800
1F80
1840
1840
1840
1F80
ENDCHAR
STARTCHAR 044B
ENCODING 1099
SWIDTH 1020 0
DWIDTH 17 0
BBX 10 8 4 0
BITMAP
8040
8040
8040
FC40
8240
8240
8240
FC40
ENDCHAR
STARTCHAR 044C
ENCODING 1100
SWIDTH 1020 0
DWIDTH 17 0
BBX 7 8 5 0
BITMAP
80
80
80
FC
82
82
82
FC
ENDCHAR
STARTCHAR 044D
ENCODING 1101
SWIDTH 1020 0
DWIDTH 17 0
BBX 9 8 4 0
BITMAP
7E00
8100
0080
1F80
0080
0080
8100
7E00
ENDCHAR
STARTCHAR 044E
ENCODING 1102
SWIDTH 1020 0
DWIDTH 17 0
BBX 11 8 3 0
BITMAP
8780
8C40
9020
F020
9020
9020
8C40
8780
ENDCHAR
STARTCHAR 044F
ENCODING 1103
SWIDTH 1020 0
DWIDTH 17 0
BBX 8 8 4 0
BITMAP
3F
41
41
41
3F
19
21
C1
ENDCHAR
STARTCHAR 0451
ENCODING 1105
SWIDTH 1020 0
DWIDTH 17 0
BBX 8 11 4 0
BITMAP
6E
6E
00
3C
42
81
FF
80
80
41
3E
ENDCHAR
STARTCHAR 1E3E
ENCODING 7742
SWIDTH 1020 0
DWIDTH 17 0
BBX 12 15 3 0
BITMAP
0700
C630
C630
CC30
A050
A050
A050
9090
9090
9090
8D10
8D10
8610
8610
8010
ENDCHAR
STARTCHAR 1E3F
ENCODING 7743
SWIDTH 1020 0
DWIDTH 17 0
BBX 12 12 3 0
BITMAP
0700
0600
0C00
0000
BCE0
C710
8610
8610
8610
8610
8610
8610
ENDCHAR
STARTCHAR 1F70
ENCODING 8048
SWIDTH 1020 0
DWIDTH 17 0
BBX 9 12 4 0
BITMAP
3800
1800
0C00
0000
3E80
4180
8080
8080
8080
8080
4180
3E80
ENDCHAR
STARTCHAR 1F71
ENCODING 8049
SWIDTH 1020 0
DWIDTH 17 0
BBX 9 12 4 0
BITMAP
1C00
1800
2000
0000
3E80
4180
8080
8080
8080
8080
4180
3E80
ENDCHAR
STARTCHAR 1F72
ENCODING 8050
SWIDTH 1020 0
DWIDTH 17 0
BBX 9 14 5 0
BITMAP
1C00
1C00
0400
0200
0000
3E00
4100
8080
8000
7E00
8000
8000
4080
3F00
ENDCHAR
STARTCHAR 1F73
ENCODING 8051
SWIDTH 1020 0
DWIDTH 17 0
BBX 9 14 5 0
BITMAP
0600
0600
0400
1800
0000
3E00
4100
8080
8000
7E00
8000
8000
4080
3F00
ENDCHAR
STARTCHAR 2000
ENCODING 8192
SWIDTH 1020 0
DWIDTH 17 0
BBX 0 0 0 0
BITMAP
ENDCHAR
STARTCHAR 2001
ENCODING 8193
SWIDTH 1020 0
DWIDTH 17 0
BBX 0 0 0 0
BITMAP
ENDCHAR
STARTCHAR 2002
ENCODING 8194
SWIDTH 1020 0
DWIDTH 17 0
BBX 0 0 0 0
BITMAP
ENDCHAR
STARTCHAR 2003
ENCODING 8195
SWIDTH 1020 0
DWIDTH 17 0
BBX 0 0 0 0
BITMAP
ENDCHAR
STARTCHAR 2004
ENCODING 8196
SWIDTH 1020 0
DWIDTH 17 0
BBX 0 0 0 0
BITMAP
ENDCHAR
STARTCHAR 2005
ENCODING 8197
SWIDTH 1020 0
DWIDTH 17 0
BBX 0 0 0 0
BITMAP
ENDCHAR
STARTCHAR 2006
ENCODING 8198
SWIDTH 1020 0
DWIDTH 17 0
BBX 0 0 0 0
BITMAP
ENDCHAR
STARTCHAR 2007
ENCODING 8199
SWIDTH 1020 0
DWIDTH 17 0
BBX 0 0 0 0
BITMAP
ENDCHAR
STARTCHAR 2008
ENCODING 8200
SWIDTH 1020 0
DWIDTH 17 0
BBX 0 0 0 0
BITMAP
ENDCHAR
STARTCHAR 2009
ENCODING 8201
SWIDTH 1020 0
DWIDTH 17 0
BBX 0 0 0 0
BITMAP
ENDCHAR
STARTCHAR 200A
ENCODING 8202
SWIDTH 1020 0
DWIDTH 17 0
BBX 0 0 0 0
BITMAP
ENDCHAR
STARTCHAR 200B
ENCODING 8203
SWIDTH 540 0
DWIDTH 9 0
BBX 0 0 0 0
BITMAP
ENDCHAR
STARTCHAR 200C
ENCODING 8204
SWIDTH 540 0
DWIDTH 9 0
BBX 0 0 0 0
BITMAP
ENDCHAR
STARTCHAR 200D
ENCODING 8205
SWIDTH 540 0
DWIDTH 9 0
BBX 0 0 0 0
BITMAP
ENDCHAR
STARTCHAR 200E
ENCODING 8206
SWIDTH 540 0
DWIDTH 9 0
BBX 0 0 0 0
BITMAP
ENDCHAR
STARTCHAR 200F
ENCODING 8207
SWIDTH 540 0
DWIDTH 9 0
BBX 0 0 0 0
BITMAP
ENDCHAR
STARTCHAR 2010
ENCODING 8208
SWIDTH 1020 0
DWIDTH 17 0
BBX 7 1 5 6
BITMAP
FE
ENDCHAR
STARTCHAR 2013
ENCODING 8211
SWIDTH 1020 0
DWIDTH 17 0
BBX 7 1 5 6
BITMAP
FE
ENDCHAR
STARTCHAR 2014
ENCODING 8212
SWIDTH 1020 0
DWIDTH 17 0
BBX 17 1 0 6
BITMAP
FFFF80
ENDCHAR
STARTCHAR 2015
ENCODING 8213
SWIDTH 1020 0
DWIDTH 17 0
BBX 17 1 0 6
BITMAP
FFFF80
ENDCHAR
STARTCHAR 2016
ENCODING 8214
SWIDTH 1020 0
DWIDTH 17 0
BBX 6 17 5 -2
BITMAP
84
84
84
84
84
84
84
84
84
84
84
84
84
84
84
84
84
ENDCHAR
STARTCHAR 2018
ENCODING 8216
SWIDTH 1020 0
DWIDTH 17 0
BBX 2 5 12 10
BITMAP
40
80
80
C0
C0
ENDCHAR
STARTCHAR 2019
ENCODING 8217
SWIDTH 1020 0
DWIDTH 17 0
BBX 2 5 3 10
BITMAP
C0
C0
C0
40
80
ENDCHAR
STARTCHAR 201C
ENCODING 8220
SWIDTH 1020 0
DWIDTH 17 0
BBX 5 5 10 10
BITMAP
48
90
90
D8
D8
ENDCHAR
STARTCHAR 201D
ENCODING 8221
SWIDTH 1020 0
DWIDTH 17 0
BBX 5 5 2 10
BITMAP
D8
D8
D8
48
90
ENDCHAR
STARTCHAR 2020
ENCODING 8224
SWIDTH 1020 0
DWIDTH 17 0
BBX 10 16 4 -1
BITMAP
0C00
1E00
1E00
4C80
FFC0
4C80
0C00
3F00
1E00
1E00
0C00
0C00
0C00
0C00
0C00
0C00
ENDCHAR
STARTCHAR 2021
ENCODING 8225
SWIDTH 1020 0
DWIDTH 17 0
BBX 10 16 4 -1
BITMAP
0C00
1E00
1E00
4C80
FFC0
4C80
1E00
0C00
1E00
4C80
FFC0
4C80
0C00
1E00
0C00
0C00
ENDCHAR
STARTCHAR 2022
ENCODING 8226
SWIDTH 1020 0
DWIDTH 17 0
BBX 7 6 5 4
BITMAP
38
7C
FE
FE
7C
38
ENDCHAR
STARTCHAR 2025
ENCODING 8229
SWIDTH 1020 0
DWIDTH 17 0
BBX 11 2 3 5
BITMAP
C060
C060
ENDCHAR
STARTCHAR 2026
ENCODING 8230
SWIDTH 1020 0
DWIDTH 17 0
BBX 15 2 1 5
BITMAP
C386
C386
ENDCHAR
STARTCHAR 2030
ENCODING 8240
SWIDTH 1020 0
DWIDTH 17 0
BBX 15 15 1 -1
BITMAP
6040
6040
9040
9180
9300
9300
9400
6800
0B8C
1452
2452
2452
4452
8452
838C
ENDCHAR
STARTCHAR 2032
ENCODING 8242
SWIDTH 1020 0
DWIDTH 17 0
BBX 3 5 2 9
BITMAP
20
20
40
80
80
ENDCHAR
STARTCHAR 2033
ENCODING 8243
SWIDTH 1020 0
DWIDTH 17 0
BBX 8 5 1 9
BITMAP
23
23
44
88
88
ENDCHAR
STARTCHAR 203B
ENCODING 8251
SWIDTH 1020 0
DWIDTH 17 0
BBX 13 12 2 0
BITMAP
8708
4710
2020
1040
0880
C718
C718
0880
1040
2020
4710
8708
ENDCHAR
STARTCHAR 203C
ENCODING 8252
SWIDTH 1020 0
DWIDTH 17 0
BBX 9 14 4 0
BITMAP
4100
4100
4100
4100
4100
4100
4100
4100
4100
4100
0000
0000
C180
C180
ENDCHAR
STARTCHAR 203E
ENCODING 8254
SWIDTH 1020 0
DWIDTH 17 0
BBX 17 1 0 14
BITMAP
FFFF80
ENDCHAR
STARTCHAR 203F
ENCODING 8255
SWIDTH 1020 0
DWIDTH 17 0
BBX 13 3 2 -1
BITMAP
8008
6030
1FC0
ENDCHAR
STARTCHAR 2042
ENCODING 8258
SWIDTH 1020 0
DWIDTH 17 0
BBX 16 16 1 -1
BITMAP
0180
0DB0
0DB0
03C0
0180
03C0
0DB0
0180
0000
1008
D76B
381C
1008
381C
D76B
1008
ENDCHAR
STARTCHAR 2047
ENCODING 8263
SWIDTH 1020 0
DWIDTH 17 0
BBX 14 14 2 0
BITMAP
7878
7878
8684
8684
8684
0604
1818
2020
2020
2020
0000
0000
6030
6030
ENDCHAR
STARTCHAR 2048
ENCODING 8264
SWIDTH 1020 0
DWIDTH 17 0
BBX 11 14 3 0
BITMAP
7C40
7C40
8640
8640
8640
0640
1C40
2040
2040
2040
0000
0000
6060
6060
ENDCHAR
STARTCHAR 2049
ENCODING 8265
SWIDTH 1020 0
DWIDTH 17 0
BBX 12 14 3 0
BITMAP
41E0
41E0
4610
4610
4610
4010
4060
4080
4080
4080
0000
0000
C0C0
C0C0
ENDCHAR
STARTCHAR 2051
ENCODING 8273
SWIDTH 1020 0
DWIDTH 17 0
BBX 8 16 5 -1
BITMAP
18
DB
DB
3C
18
3C
DB
18
00
18
DB
3C
18
3C
DB
18
ENDCHAR
STARTCHAR 20AC
ENCODING 8364
SWIDTH 1020 0
DWIDTH 17 0
BBX 14 14 1 0
BITMAP
03E0
03E0
0C18
1004
1000
2000
FFF0
2000
FFE0
2000
1000
1004
0C18
03E0
ENDCHAR
STARTCHAR 2103
ENCODING 8451
SWIDTH 1020 0
DWIDTH 17 0
BBX 16 14 1 0
BITMAP
6078
6078
9386
9401
6400
0800
0800
0800
0800
0800
0401
0401
0386
0078
ENDCHAR
STARTCHAR 210F
ENCODING 8463
SWIDTH 1020 0
DWIDTH 17 0
BBX 12 14 3 0
BITMAP
7000
7000
1700
1C00
3000
E000
2F80
3040
2040
2040
4040
4080
4090
40E0
ENDCHAR
STARTCHAR 2113
ENCODING 8467
SWIDTH 1020 0
DWIDTH 17 0
BBX 11 14 3 0
BITMAP
0700
0700
0C80
1080
1080
2080
2080
2080
2100
2100
2E20
1C20
2C40
C780
ENDCHAR
STARTCHAR 2116
ENCODING 8470
SWIDTH 1020 0
DWIDTH 17 0
BBX 16 14 1 0
BITMAP
8400
8400
8400
C400
C400
A430
A448
9584
9584
9584
8D84
8D84
844B
8433
ENDCHAR
STARTCHAR 2121
ENCODING 8481
SWIDTH 1020 0
DWIDTH 17 0
BBX 16 14 1 0
BITMAP
FBE8
FBE8
2308
2308
2308
2308
2308
23E8
2308
2308
2308
2308
2308
23EF
ENDCHAR
STARTCHAR 2127
ENCODING 8487
SWIDTH 1020 0
DWIDTH 17 0
BBX 13 14 2 0
BITMAP
F8F8
F8F8
0880
0880
3060
4010
4010
8008
8008
8008
4010
4010
3060
0F80
ENDCHAR
STARTCHAR 212B
ENCODING 8491
SWIDTH 1020 0
DWIDTH 17 0
BBX 11 15 3 0
BITMAP
0E00
1100
1100
1100
0E00
0000
0E00
1100
1100
2080
2080
7FC0
4040
8020
8020
ENDCHAR
STARTCHAR 2135
ENCODING 8501
SWIDTH 1020 0
DWIDTH 17 0
BBX 12 14 2 0
BITMAP
4040
4040
4040
2020
1030
0850
0640
3F80
4080
4040
4020
2020
4010
8010
ENDCHAR
STARTCHAR 2153
ENCODING 8531
SWIDTH 1020 0
DWIDTH 17 0
BBX 12 16 3 -1
BITMAP
0600
0E00
0E00
0600
0600
0600
0600
0000
FFF0
0000
0F00
1080
0700
0080
1080
0F00
ENDCHAR
STARTCHAR 2154
ENCODING 8532
SWIDTH 1020 0
DWIDTH 17 0
BBX 12 16 3 -1
BITMAP
0F00
1080
1080
0100
0600
0C00
1F80
0000
FFF0
0000
0F00
1080
0700
0080
1080
0F00
ENDCHAR
STARTCHAR 2155
ENCODING 8533
SWIDTH 1020 0
DWIDTH 17 0
BBX 13 16 2 -1
BITMAP
0300
0700
0700
0300
0300
0300
0300
0000
FFF8
0000
0F80
0800
0F80
0040
0840
0780
ENDCHAR
STARTCHAR 2160
ENCODING 8544
SWIDTH 1020 0
DWIDTH 17 0
BBX 2 14 8 0
BITMAP
C0
C0
C0
C0
C0
C0
C0
C0
C0
C0
C0
C0
C0
C0
ENDCHAR
STARTCHAR 2161
ENCODING 8545
SWIDTH 1020 0
DWIDTH 17 0
BBX 7 14 5 0
BITMAP
82
82
82
82
82
82
82
82
82
82
82
82
82
82
ENDCHAR
STARTCHAR 2162
ENCODING 8546
SWIDTH 1020 0
DWIDTH 17 0
BBX 10 14 4 0
BITMAP
8C40
8C40
8C40
8C40
8C40
8C40
8C40
8C40
8C40
8C40
8C40
8C40
8C40
8C40
ENDCHAR
STARTCHAR 2163
ENCODING 8547
SWIDTH 1020 0
DWIDTH 17 0
BBX 11 14 3 0
BITMAP
9020
9020
9020
9020
9020
8C40
8C40
8C40
8680
8680
8680
8100
8100
8100
ENDCHAR
STARTCHAR 2164
ENCODING 8548
SWIDTH 1020 0
DWIDTH 17 0
BBX 10 14 4 0
BITMAP
8040
8040
8040
8040
4080
4080
4080
2100
2100
2100
1A00
1A00
0C00
0C00
ENDCHAR
STARTCHAR 2165
ENCODING 8549
SWIDTH 1020 0
DWIDTH 17 0
BBX 11 14 3 0
BITMAP
8120
8120
8120
8120
8120
4620
4620
4620
2C20
2C20
2C20
1020
1020
1020
ENDCHAR
STARTCHAR 2166
ENCODING 8550
SWIDTH 1020 0
DWIDTH 17 0
BBX 13 14 2 0
BITMAP
8348
8348
8348
8348
8348
4648
4648
4648
2848
2848
2848
1048
1048
1048
ENDCHAR
STARTCHAR 2167
ENCODING 8551
SWIDTH 1020 0
DWIDTH 17 0
BBX 16 14 1 0
BITMAP
8349
8349
8349
8349
8349
4449
4449
4449
2849
2849
2849
1049
1049
1049
ENDCHAR
STARTCHAR 2168
ENCODING 8552
SWIDTH 1020 0
DWIDTH 17 0
BBX 13 14 3 0
BITMAP
8C10
8C10
8C10
8620
8620
8140
8140
8080
8140
8620
8620
8C10
8C10
9008
ENDCHAR
STARTCHAR 2169
ENCODING 8553
SWIDTH 1020 0
DWIDTH 17 0
BBX 12 14 3 0
BITMAP
4020
4020
2040
2040
1080
1080
0D00
0600
0D00
1080
1080
2040
4020
8010
ENDCHAR
STARTCHAR 216A
ENCODING 8554
SWIDTH 1020 0
DWIDTH 17 0
BBX 13 14 2 0
BITMAP
4088
4088
4088
2308
2308
1608
1608
0808
1608
2308
2308
4088
4088
8048
ENDCHAR
STARTCHAR 216B
ENCODING 8555
SWIDTH 1020 0
DWIDTH 17 0
BBX 15 14 1 0
BITMAP
4192
4192
4192
2312
2312
1412
1412
0812
1412
2312
2312
4192
4192
8052
ENDCHAR
STARTCHAR 2170
ENCODING 8560
SWIDTH 1020 0
DWIDTH 17 0
BBX 2 12 8 0
BITMAP
C0
C0
00
00
C0
C0
C0
C0
C0
C0
C0
C0
ENDCHAR
STARTCHAR 2171
ENCODING 8561
SWIDTH 1020 0
DWIDTH 17 0
BBX 6 12 6 0
BITMAP
84
84
00
00
84
84
84
84
84
84
84
84
ENDCHAR
STARTCHAR 2172
ENCODING 8562
SWIDTH 1020 0
DWIDTH 17 0
BBX 10 12 4 0
BITMAP
8C40
8C40
0000
0000
8C40
8C40
8C40
8C40
8C40
8C40
8C40
8C40
ENDCHAR
STARTCHAR 2173
ENCODING 8563
SWIDTH 1020 0
DWIDTH 17 0
BBX 11 12 4 0
BITMAP
8000
8000
0000
0000
9820
9820
8C40
8C40
8280
8280
8100
8100
ENDCHAR
STARTCHAR 2174
ENCODING 8564
SWIDTH 1020 0
DWIDTH 17 0
BBX 8 8 5 0
BITMAP
81
81
42
42
34
34
18
18
ENDCHAR
STARTCHAR 2175
ENCODING 8565
SWIDTH 1020 0
DWIDTH 17 0
BBX 11 12 3 0
BITMAP
0020
0020
0000
0000
8120
8120
4620
4620
2C20
2C20
1020
1020
ENDCHAR
STARTCHAR 2176
ENCODING 8566
SWIDTH 1020 0
DWIDTH 17 0
BBX 14 12 2 0
BITMAP
0044
0044
0000
0000
8344
8344
4644
4644
2844
2844
1044
1044
ENDCHAR
STARTCHAR 2177
ENCODING 8567
SWIDTH 1020 0
DWIDTH 17 0
BBX 14 12 2 0
BITMAP
0324
0324
0000
0000
8B24
8B24
8B24
5324
5324
5324
2324
2324
ENDCHAR
STARTCHAR 2178
ENCODING 8568
SWIDTH 1020 0
DWIDTH 17 0
BBX 12 12 3 0
BITMAP
8000
8000
0000
0000
9020
8C40
8680
8100
8680
8C40
9020
A010
ENDCHAR
STARTCHAR 2179
ENCODING 8569
SWIDTH 1020 0
DWIDTH 17 0
BBX 10 8 4 0
BITMAP
4080
2100
1A00
0C00
1A00
2100
4080
8040
ENDCHAR
STARTCHAR 217A
ENCODING 8570
SWIDTH 1020 0
DWIDTH 17 0
BBX 12 12 2 0
BITMAP
0010
0010
0000
0000
4090
2310
1610
0810
1610
2310
4090
8050
ENDCHAR
STARTCHAR 217B
ENCODING 8571
SWIDTH 1020 0
DWIDTH 17 0
BBX 15 12 1 0
BITMAP
0012
0012
0000
0000
4192
2312
1412
0812
1412
2312
4192
8052
ENDCHAR
STARTCHAR 2190
ENCODING 8592
SWIDTH 1020 0
DWIDTH 17 0
BBX 16 5 1 4
BITMAP
1800
6000
FFFF
6000
1800
ENDCHAR
STARTCHAR 2191
ENCODING 8593
SWIDTH 1020 0
DWIDTH 17 0
BBX 6 16 6 -1
BITMAP
30
78
78
78
B4
B4
30
30
30
30
30
30
30
30
30
30
ENDCHAR
STARTCHAR 2192
ENCODING 8594
SWIDTH 1020 0
DWIDTH 17 0
BBX 16 5 1 4
BITMAP
0018
0006
FFFF
0006
0018
ENDCHAR
STARTCHAR 2193
ENCODING 8595
SWIDTH 1020 0
DWIDTH 17 0
BBX 6 16 6 -1
BITMAP
30
30
30
30
30
30
30
30
30
30
30
B4
B4
78
78
30
ENDCHAR
STARTCHAR 2194
ENCODING 8596
SWIDTH 1020 0
DWIDTH 17 0
BBX 17 5 0 4
BITMAP
100400
200200
FFFF80
200200
100400
ENDCHAR
STARTCHAR 2196
ENCODING 8598
SWIDTH 1020 0
DWIDTH 17 0
BBX 13 12 2 0
BITMAP
8000
7800
6000
5000
4800
0600
0300
0080
0040
0020
0010
0008
ENDCHAR
STARTCHAR 2197
ENCODING 8599
SWIDTH 1020 0
DWIDTH 17 0
BBX 13 12 2 0
BITMAP
0008
00F0
0030
0050
0090
0300
0600
0800
1000
2000
4000
8000
ENDCHAR
STARTCHAR 2198
ENCODING 8600
SWIDTH 1020 0
DWIDTH 17 0
BBX 13 12 2 0
BITMAP
8000
4000
2000
1000
0800
0600
0300
0090
0050
0030
00F0
0008
ENDCHAR
STARTCHAR 2199
ENCODING 8601
SWIDTH 1020 0
DWIDTH 17 0
BBX 13 12 2 0
BITMAP
0008
0010
0020
0040
0080
0300
0600
4800
5000
6000
7800
8000
ENDCHAR
STARTCHAR 21C4
ENCODING 8644
SWIDTH 1020 0
DWIDTH 17 0
BBX 16 11 1 1
BITMAP
0008
0004
FFFF
0004
0008
0000
1000
2000
FFFF
2000
1000
ENDCHAR
STARTCHAR 21D2
ENCODING 8658
SWIDTH 1020 0
DWIDTH 17 0
BBX 16 9 1 2
BITMAP
0010
0008
FFFC
0002
0001
0002
FFFC
0008
0010
ENDCHAR
STARTCHAR 21D4
ENCODING 8660
SWIDTH 1020 0
DWIDTH 17 0
BBX 16 9 1 2
BITMAP
0810
1008
3FFC
4002
8001
4002
3FFC
1008
0810
ENDCHAR
STARTCHAR 21E6
ENCODING 8678
SWIDTH 1020 0
DWIDTH 17 0
BBX 16 11 1 1
BITMAP
0400
0C00
1400
27FF
4001
8001
4001
27FF
1400
0C00
0400
ENDCHAR
STARTCHAR 21E7
ENCODING 8679
SWIDTH 1020 0
DWIDTH 17 0
BBX 12 16 3 -1
BITMAP
0600
0D00
0D00
1080
2040
4020
F0F0
1080
1080
1080
1080
1080
1080
1080
1080
1F80
ENDCHAR
STARTCHAR 21E8
ENCODING 8680
SWIDTH 1020 0
DWIDTH 17 0
BBX 16 11 1 1
BITMAP
0020
0030
0028
FFE4
8002
8001
8002
FFE4
0028
0030
0020
ENDCHAR
STARTCHAR 21E9
ENCODING 8681
SWIDTH 1020 0
DWIDTH 17 0
BBX 12 16 3 -1
BITMAP
1F80
1080
1080
1080
1080
1080
1080
1080
1080
1080
F0F0
4020
2040
1080
0D00
0600
ENDCHAR
STARTCHAR 2200
ENCODING 8704
SWIDTH 1020 0
DWIDTH 17 0
BBX 14 15 2 -1
BITMAP
8004
8004
8004
4008
4008
3FF0
2010
1020
1020
0840
0840
0680
0680
0300
0300
ENDCHAR
STARTCHAR 2202
ENCODING 8706
SWIDTH 1020 0
DWIDTH 17 0
BBX 10 14 3 0
BITMAP
0F00
0F00
1080
2040
0040
0040
1E40
2180
4080
8080
8100
8600
8C00
7000
ENDCHAR
STARTCHAR 2203
ENCODING 8707
SWIDTH 1020 0
DWIDTH 17 0
BBX 10 11 3 1
BITMAP
FFC0
0040
0040
0040
0040
FFC0
0040
0040
0040
0040
FFC0
ENDCHAR
STARTCHAR 2205
ENCODING 8709
SWIDTH 1020 0
DWIDTH 17 0
BBX 13 12 2 0
BITMAP
0008
0F90
1060
2060
4090
4310
4610
4810
3020
3040
4F80
8000
ENDCHAR
STARTCHAR 2207
ENCODING 8711
SWIDTH 1020 0
DWIDTH 17 0
BBX 15 14 1 0
BITMAP
FFFE
FFFE
4004
6004
2008
3008
1010
1810
0820
0C20
0440
0740
0380
0380
ENDCHAR
STARTCHAR 2208
ENCODING 8712
SWIDTH 1020 0
DWIDTH 17 0
BBX 11 9 3 2
BITMAP
3FE0
4000
8000
8000
FFE0
8000
8000
4000
3FE0
ENDCHAR
STARTCHAR 2209
ENCODING 8713
SWIDTH 1020 0
DWIDTH 17 0
BBX 11 14 3 0
BITMAP
0600
0600
0600
3FE0
4600
8600
8600
FFE0
8600
8600
4600
3FE0
0600
0600
ENDCHAR
STARTCHAR 220B
ENCODING 8715
SWIDTH 1020 0
DWIDTH 17 0
BBX 11 9 3 2
BITMAP
FF80
0040
0020
0020
FFE0
0020
0020
0040
FF80
ENDCHAR
STARTCHAR 2212
ENCODING 8722
SWIDTH 1020 0
DWIDTH 17 0
BBX 13 1 2 6
BITMAP
FFF8
ENDCHAR
STARTCHAR 2213
ENCODING 8723
SWIDTH 1020 0
DWIDTH 17 0
BBX 13 12 2 0
BITMAP
FFF8
0000
0000
0600
0600
0600
0600
FFF8
0600
0600
0600
0600
ENDCHAR
STARTCHAR 221A
ENCODING 8730
SWIDTH 1020 0
DWIDTH 17 0
BBX 16 16 1 -1
BITMAP
007F
0040
0040
0180
0180
0180
0180
0300
0300
0300
2300
7400
B400
1C00
1800
0800
ENDCHAR
STARTCHAR 221D
ENCODING 8733
SWIDTH 1020 0
DWIDTH 17 0
BBX 13 8 2 2
BITMAP
3870
4688
8300
8300
8300
8300
4688
3870
ENDCHAR
STARTCHAR 221E
ENCODING 8734
SWIDTH 1020 0
DWIDTH 17 0
BBX 14 8 2 2
BITMAP
3870
4688
8304
8304
8304
8304
4688
3870
ENDCHAR
STARTCHAR 221F
ENCODING 8735
SWIDTH 1020 0
DWIDTH 17 0
BBX 13 14 2 0
BITMAP
8000
8000
8000
8000
8000
8000
8000
8000
8000
8000
8000
8000
8000
FFF8
ENDCHAR
STARTCHAR 2220
ENCODING 8736
SWIDTH 1020 0
DWIDTH 17 0
BBX 13 11 2 1
BITMAP
0010
0020
0040
0080
0300
0600
0800
1000
2000
4000
FFF8
ENDCHAR
STARTCHAR 2225
ENCODING 8741
SWIDTH 1020 0
DWIDTH 17 0
BBX 13 17 2 -2
BITMAP
0080
0308
0308
0308
0610
0610
0820
0820
1040
1040
2080
2080
4300
4300
8600
8600
0800
ENDCHAR
STARTCHAR 2226
ENCODING 8742
SWIDTH 1020 0
DWIDTH 17 0
BBX 13 17 2 -2
BITMAP
0080
0308
0308
0308
4610
2610
1820
0820
1640
1340
2080
20C0
4320
4310
8600
8600
0800
ENDCHAR
STARTCHAR 2227
ENCODING 8743
SWIDTH 1020 0
DWIDTH 17 0
BBX 12 12 3 0
BITMAP
0600
0600
0D00
0D00
1080
1080
2040
2040
4020
4020
8010
8010
ENDCHAR
STARTCHAR 2228
ENCODING 8744
SWIDTH 1020 0
DWIDTH 17 0
BBX 12 12 3 0
BITMAP
8010
8010
4020
4020
2040
2040
1080
1080
0D00
0D00
0600
0600
ENDCHAR
STARTCHAR 2229
ENCODING 8745
SWIDTH 1020 0
DWIDTH 17 0
BBX 11 12 3 0
BITMAP
1F00
2080
4040
8020
8020
8020
8020
8020
8020
8020
8020
8020
ENDCHAR
STARTCHAR 222A
ENCODING 8746
SWIDTH 1020 0
DWIDTH 17 0
BBX 11 12 3 0
BITMAP
8020
8020
8020
8020
8020
8020
8020
8020
8020
4040
2080
1F00
ENDCHAR
STARTCHAR 222B
ENCODING 8747
SWIDTH 1020 0
DWIDTH 17 0
BBX 5 16 6 -1
BITMAP
78
88
88
80
80
60
60
60
30
30
30
08
08
08
88
F0
ENDCHAR
STARTCHAR 222C
ENCODING 8748
SWIDTH 1020 0
DWIDTH 17 0
BBX 11 16 3 -1
BITMAP
70E0
9120
9120
8100
8100
4080
4080
4080
2040
2040
2040
1020
1020
1020
9120
E1C0
ENDCHAR
STARTCHAR 222E
ENCODING 8750
SWIDTH 1020 0
DWIDTH 17 0
BBX 7 16 5 -1
BITMAP
38
44
44
40
40
7C
B2
B2
9A
9A
7C
04
04
04
44
38
ENDCHAR
STARTCHAR 2234
ENCODING 8756
SWIDTH 1020 0
DWIDTH 17 0
BBX 10 8 4 2
BITMAP
0E00
0E00
0000
0000
0000
0000
C0C0
C0C0
ENDCHAR
STARTCHAR 2235
ENCODING 8757
SWIDTH 1020 0
DWIDTH 17 0
BBX 10 8 4 2
BITMAP
C0C0
C0C0
0000
0000
0000
0000
0E00
0E00
ENDCHAR
STARTCHAR 223D
ENCODING 8765
SWIDTH 1020 0
DWIDTH 17 0
BBX 15 8 1 2
BITMAP
3838
4044
8182
8182
8302
8302
4404
3838
ENDCHAR
STARTCHAR 2243
ENCODING 8771
SWIDTH 1020 0
DWIDTH 17 0
BBX 15 8 1 3
BITMAP
3802
4702
81C4
8038
0000
0000
0000
FFFE
ENDCHAR
STARTCHAR 2245
ENCODING 8773
SWIDTH 1020 0
DWIDTH 17 0
BBX 15 10 1 1
BITMAP
3802
4702
81C4
8038
0000
0000
FFFE
0000
0000
FFFE
ENDCHAR
STARTCHAR 2248
ENCODING 8776
SWIDTH 1020 0
DWIDTH 17 0
BBX 15 8 1 2
BITMAP
3C02
4382
8044
8038
3C02
4302
81C4
8038
ENDCHAR
STARTCHAR 2252
ENCODING 8786
SWIDTH 1020 0
DWIDTH 17 0
BBX 13 11 2 1
BITMAP
6000
6000
0000
FFF8
0000
0000
0000
FFF8
0000
0030
0030
ENDCHAR
STARTCHAR 2260
ENCODING 8800
SWIDTH 1020 0
DWIDTH 17 0
BBX 13 11 2 1
BITMAP
0080
0080
0300
FFF8
0300
0600
0600
FFF8
0600
0800
0800
ENDCHAR
STARTCHAR 2261
ENCODING 8801
SWIDTH 1020 0
DWIDTH 17 0
BBX 13 9 2 2
BITMAP
FFF8
0000
0000
0000
FFF8
0000
0000
0000
FFF8
ENDCHAR
STARTCHAR 2262
ENCODING 8802
SWIDTH 1020 0
DWIDTH 17 0
BBX 15 16 1 -1
BITMAP
0020
0020
0020
0040
FFFE
0040
0180
0180
FFFE
0300
0300
0400
FFFE
0400
0800
0800
ENDCHAR
STARTCHAR 2266
ENCODING 8806
SWIDTH 1020 0
DWIDTH 17 0
BBX 13 12 2 0
BITMAP
0038
03C0
1E00
E000
1E00
03C0
0038
0000
FFF8
0000
0000
FFF8
ENDCHAR
STARTCHAR 2267
ENCODING 8807
SWIDTH 1020 0
DWIDTH 17 0
BBX 13 12 2 0
BITMAP
E000
1E00
03C0
0038
03C0
1E00
E000
0000
FFF8
0000
0000
FFF8
ENDCHAR
STARTCHAR 226A
ENCODING 8810
SWIDTH 1020 0
DWIDTH 17 0
BBX 14 16 1 -1
BITMAP
0184
0308
0308
0410
0820
1040
2180
4300
8400
4300
2180
1040
0820
0410
0308
0184
ENDCHAR
STARTCHAR 226B
ENCODING 8811
SWIDTH 1020 0
DWIDTH 17 0
BBX 14 16 1 -1
BITMAP
8400
4300
4300
2180
1040
0820
0410
0308
0184
0308
0410
0820
1040
2180
4300
8400
ENDCHAR
STARTCHAR 2276
ENCODING 8822
SWIDTH 1020 0
DWIDTH 17 0
BBX 13 14 2 0
BITMAP
0038
0038
03C0
1E00
E000
1E00
03C0
E038
1E00
03C0
0038
03C0
1E00
E000
ENDCHAR
STARTCHAR 2277
ENCODING 8823
SWIDTH 1020 0
DWIDTH 17 0
BBX 13 14 2 0
BITMAP
E000
E000
1E00
03C0
0038
03C0
1E00
E038
03C0
1E00
E000
1E00
03C0
0038
ENDCHAR
STARTCHAR 2282
ENCODING 8834
SWIDTH 1020 0
DWIDTH 17 0
BBX 13 10 2 1
BITMAP
1FF8
2000
4000
8000
8000
8000
8000
4000
2000
1FF8
ENDCHAR
STARTCHAR 2283
ENCODING 8835
SWIDTH 1020 0
DWIDTH 17 0
BBX 13 10 2 1
BITMAP
FFC0
0020
0010
0008
0008
0008
0008
0010
0020
FFC0
ENDCHAR
STARTCHAR 2284
ENCODING 8836
SWIDTH 1020 0
DWIDTH 17 0
BBX 13 12 2 0
BITMAP
0010
1FF8
2020
4040
8040
8080
8300
8600
4600
2800
1FF8
1000
ENDCHAR
STARTCHAR 2285
ENCODING 8837
SWIDTH 1020 0
DWIDTH 17 0
BBX 13 12 2 0
BITMAP
0040
FFC0
00A0
0310
0308
0608
0808
1008
1010
2020
FFC0
4000
ENDCHAR
STARTCHAR 2286
ENCODING 8838
SWIDTH 1020 0
DWIDTH 17 0
BBX 13 11 2 1
BITMAP
3FF8
4000
8000
8000
8000
8000
4000
3FF8
0000
0000
FFF8
ENDCHAR
STARTCHAR 2287
ENCODING 8839
SWIDTH 1020 0
DWIDTH 17 0
BBX 13 11 2 1
BITMAP
FFE0
0010
0008
0008
0008
0008
0010
FFE0
0000
0000
FFF8
ENDCHAR
STARTCHAR 228A
ENCODING 8842
SWIDTH 1020 0
DWIDTH 17 0
BBX 13 14 2 -2
BITMAP
3FF8
4000
8000
8000
8000
8000
4000
3FF8
0080
0080
FFF8
0300
0600
0600
ENDCHAR
STARTCHAR 228B
ENCODING 8843
SWIDTH 1020 0
DWIDTH 17 0
BBX 13 14 2 -2
BITMAP
FFE0
0010
0008
0008
0008
0008
0010
FFE0
0080
0080
FFF8
0300
0600
0600
ENDCHAR
STARTCHAR 2295
ENCODING 8853
SWIDTH 1020 0
DWIDTH 17 0
BBX 15 15 1 -1
BITMAP
07C0
07C0
1830
2308
4304
4304
8302
BFFA
8302
8302
4304
4304
2308
1830
07C0
ENDCHAR
STARTCHAR 2296
ENCODING 8854
SWIDTH 1020 0
DWIDTH 17 0
BBX 15 15 1 -1
BITMAP
07C0
07C0
1830
2008
4004
4004
8002
BFFA
8002
8002
4004
4004
2008
1830
07C0
ENDCHAR
STARTCHAR 2297
ENCODING 8855
SWIDTH 1020 0
DWIDTH 17 0
BBX 15 15 1 -1
BITMAP
07C0
07C0
1830
2008
5014
4824
8442
8382
8382
8442
4824
5014
2008
1830
07C0
ENDCHAR
STARTCHAR 22A5
ENCODING 8869
SWIDTH 1020 0
DWIDTH 17 0
BBX 13 11 2 1
BITMAP
0600
0600
0600
0600
0600
0600
0600
0600
0600
0600
FFF8
ENDCHAR
STARTCHAR 22BF
ENCODING 8895
SWIDTH 1020 0
DWIDTH 17 0
BBX 14 14 1 0
BITMAP
0004
0004
000C
0014
0024
0044
0184
0304
0404
0804
1004
2004
4004
FFFC
ENDCHAR
STARTCHAR 22DA
ENCODING 8922
SWIDTH 1020 0
DWIDTH 17 0
BBX 13 16 2 -1
BITMAP
0038
03C0
03C0
1E00
E000
1E00
03C0
0038
FFF8
E000
1E00
03C0
0038
03C0
1E00
E000
ENDCHAR
STARTCHAR 22DB
ENCODING 8923
SWIDTH 1020 0
DWIDTH 17 0
BBX 13 16 2 -1
BITMAP
E000
1E00
1E00
03C0
0038
03C0
1E00
E000
FFF8
0038
03C0
1E00
E000
1E00
03C0
0038
ENDCHAR
STARTCHAR 2305
ENCODING 8965
SWIDTH 1020 0
DWIDTH 17 0
BBX 13 7 2 2
BITMAP
FFF8
0700
0880
1040
2020
4010
8008
ENDCHAR
STARTCHAR 2306
ENCODING 8966
SWIDTH 1020 0
DWIDTH 17 0
BBX 13 10 2 1
BITMAP
FFF8
0000
0000
FFF8
0700
0880
1040
2020
4010
8008
ENDCHAR
STARTCHAR 2312
ENCODING 8978
SWIDTH 1020 0
DWIDTH 17 0
BBX 16 4 1 11
BITMAP
07E0
381C
381C
C003
ENDCHAR
STARTCHAR 2318
ENCODING 8984
SWIDTH 1020 0
DWIDTH 17 0
BBX 14 14 2 0
BITMAP
7038
7038
8844
8844
8844
7FF8
0840
0840
0840
7FF8
8844
8844
8844
7038
ENDCHAR
STARTCHAR 23BE
ENCODING 9150
SWIDTH 1020 0
DWIDTH 17 0
BBX 9 15 8 -1
BITMAP
FF80
FF80
C000
C000
C000
C000
C000
C000
C000
C000
C000
C000
C000
C000
C000
ENDCHAR
STARTCHAR 23BF
ENCODING 9151
SWIDTH 1020 0
DWIDTH 17 0
BBX 9 15 8 -1
BITMAP
C000
C000
C000
C000
C000
C000
C000
C000
C000
C000
C000
C000
C000
C000
FF80
ENDCHAR
STARTCHAR 23C0
ENCODING 9152
SWIDTH 1020 0
DWIDTH 17 0
BBX 10 15 4 -1
BITMAP
0C00
0C00
0C00
0C00
3F00
4C80
8C40
8C40
8C40
8C40
4C80
3F00
0C00
0C00
0C00
ENDCHAR
STARTCHAR 23C1
ENCODING 9153
SWIDTH 1020 0
DWIDTH 17 0
BBX 14 15 2 -1
BITMAP
FFFC
FFFC
0300
0300
0FC0
1320
2310
2310
2310
2310
1320
0FC0
0300
0300
0300
ENDCHAR
STARTCHAR 23C2
ENCODING 9154
SWIDTH 1020 0
DWIDTH 17 0
BBX 14 15 2 -1
BITMAP
0300
0300
0300
0300
0FC0
1320
2310
2310
2310
2310
1320
0FC0
0300
0300
FFFC
ENDCHAR
STARTCHAR 23C3
ENCODING 9155
SWIDTH 1020 0
DWIDTH 17 0
BBX 12 15 3 -1
BITMAP
0600
0600
0600
0600
0F00
1680
1680
2640
2640
4620
4620
FFF0
0600
0600
0600
ENDCHAR
STARTCHAR 23C4
ENCODING 9156
SWIDTH 1020 0
DWIDTH 17 0
BBX 14 15 2 -1
BITMAP
FFFC
FFFC
0300
0300
0780
0B40
0B40
1320
1320
2310
2310
7FF8
0300
0300
0300
ENDCHAR
STARTCHAR 23C5
ENCODING 9157
SWIDTH 1020 0
DWIDTH 17 0
BBX 14 15 2 -1
BITMAP
0300
0300
0300
0300
0780
0B40
0B40
1320
1320
2310
2310
7FF8
0300
0300
FFFC
ENDCHAR
STARTCHAR 23C6
ENCODING 9158
SWIDTH 1020 0
DWIDTH 17 0
BBX 12 15 3 -1
BITMAP
0600
0600
0600
0600
0600
0600
3610
4F20
86C0
0600
0600
0600
0600
0600
0600
ENDCHAR
STARTCHAR 23C7
ENCODING 9159
SWIDTH 1020 0
DWIDTH 17 0
BBX 14 15 2 -1
BITMAP
FFFC
FFFC
0300
0300
0300
0300
1B08
2790
4360
0300
0300
0300
0300
0300
0300
ENDCHAR
STARTCHAR 23C8
ENCODING 9160
SWIDTH 1020 0
DWIDTH 17 0
BBX 14 15 2 -1
BITMAP
0300
0300
0300
0300
0300
0300
1B08
2790
4360
0300
0300
0300
0300
0300
FFFC
ENDCHAR
STARTCHAR 23C9
ENCODING 9161
SWIDTH 1020 0
DWIDTH 17 0
BBX 14 15 2 -1
BITMAP
FFFC
FFFC
0300
0300
0300
0300
0300
0300
0300
0300
0300
0300
0300
0300
0300
ENDCHAR
STARTCHAR 23CA
ENCODING 9162
SWIDTH 1020 0
DWIDTH 17 0
BBX 14 15 2 -1
BITMAP
0300
0300
0300
0300
0300
0300
0300
0300
0300
0300
0300
0300
0300
0300
FFFC
ENDCHAR
STARTCHAR 23CB
ENCODING 9163
SWIDTH 1020 0
DWIDTH 17 0
BBX 9 15 1 -1
BITMAP
FF80
FF80
0180
0180
0180
0180
0180
0180
0180
0180
0180
0180
0180
0180
0180
ENDCHAR
STARTCHAR 23CC
ENCODING 9164
SWIDTH 1020 0
DWIDTH 17 0
BBX 9 15 1 -1
BITMAP
0180
0180
0180
0180
0180
0180
0180
0180
0180
0180
0180
0180
0180
0180
FF80
ENDCHAR
STARTCHAR 23CE
ENCODING 9166
SWIDTH 1020 0
DWIDTH 17 0
BBX 15 14 1 -2
BITMAP
003E
0022
0022
0422
0C22
1422
27E2
4002
8002
4004
27F8
1400
0C00
0400
ENDCHAR
STARTCHAR 2423
ENCODING 9251
SWIDTH 1020 0
DWIDTH 17 0
BBX 15 4 1 -1
BITMAP
8002
8002
8002
FFFE
ENDCHAR
STARTCHAR 2460
ENCODING 9312
SWIDTH 1020 0
DWIDTH 17 0
BBX 16 16 1 -1
BITMAP
07E0
1818
1818
2004
4182
4382
8181
8181
8181
8181
8181
4182
4182
2004
1818
07E0
ENDCHAR
STARTCHAR 2461
ENCODING 9313
SWIDTH 1020 0
DWIDTH 17 0
BBX 16 16 1 -1
BITMAP
07E0
1818
1818
2004
43C2
4422
8021
8041
8181
8301
8401
4402
47E2
2004
1818
07E0
ENDCHAR
STARTCHAR 2462
ENCODING 9314
SWIDTH 1020 0
DWIDTH 17 0
BBX 16 16 1 -1
BITMAP
07E0
1818
1818
2004
43C2
4422
8021
8021
81C1
8021
8421
4422
43C2
2004
1818
07E0
ENDCHAR
STARTCHAR 2463
ENCODING 9315
SWIDTH 1020 0
DWIDTH 17 0
BBX 16 16 1 -1
BITMAP
07E0
1818
1818
2004
4042
41C2
8341
8441
8441
8FF1
8041
4042
4042
2004
1818
07E0
ENDCHAR
STARTCHAR 2464
ENCODING 9316
SWIDTH 1020 0
DWIDTH 17 0
BBX 16 16 1 -1
BITMAP
07E0
1818
1818
2004
47E2
4402
8401
87C1
8021
8021
8421
4422
43C2
2004
1818
07E0
ENDCHAR
STARTCHAR 2465
ENCODING 9317
SWIDTH 1020 0
DWIDTH 17 0
BBX 16 16 1 -1
BITMAP
07E0
1818
1818
2004
43C2
4422
8401
8401
87C1
8421
8421
4422
43C2
2004
1818
07E0
ENDCHAR
STARTCHAR 2466
ENCODING 9318
SWIDTH 1020 0
DWIDTH 17 0
BBX 16 16 1 -1
BITMAP
07E0
1818
1818
2004
47E2
4022
8021
8041
8041
8041
8181
4182
4182
2004
1818
07E0
ENDCHAR
STARTCHAR 2467
ENCODING 9319
SWIDTH 1020 0
DWIDTH 17 0
BBX 16 16 1 -1
BITMAP
07E0
1818
1818
2004
43C2
4422
8421
8421
83C1
8421
8421
4422
43C2
2004
1818
07E0
ENDCHAR
STARTCHAR 2468
ENCODING 9320
SWIDTH 1020 0
DWIDTH 17 0
BBX 16 16 1 -1
BITMAP
07E0
1818
1818
2004
43C2
4422
8421
8421
83E1
8021
8021
4422
43C2
2004
1818
07E0
ENDCHAR
STARTCHAR 2469
ENCODING 9321
SWIDTH 1020 0
DWIDTH 17 0
BBX 16 16 1 -1
BITMAP
07E0
1818
1818
2004
4462
4D92
8591
8591
8591
8591
8591
4592
4462
2004
1818
07E0
ENDCHAR
STARTCHAR 246A
ENCODING 9322
SWIDTH 1020 0
DWIDTH 17 0
BBX 16 16 1 -1
BITMAP
07E0
1818
1818
2004
4422
4C62
8421
8421
8421
8421
8421
4422
4422
2004
1818
07E0
ENDCHAR
STARTCHAR 246B
ENCODING 9323
SWIDTH 1020 0
DWIDTH 17 0
BBX 16 16 1 -1
BITMAP
07E0
1818
1818
2004
4462
4D92
8411
8421
8421
8441
8441
4582
45F2
2004
1818
07E0
ENDCHAR
STARTCHAR 246C
ENCODING 9324
SWIDTH 1020 0
DWIDTH 17 0
BBX 16 16 1 -1
BITMAP
07E0
1818
1818
2004
4462
4D92
8411
8411
8461
8411
8411
4592
4462
2004
1818
07E0
ENDCHAR
STARTCHAR 246D
ENCODING 9325
SWIDTH 1020 0
DWIDTH 17 0
BBX 16 16 1 -1
BITMAP
07E0
1818
1818
2004
4412
4C32
8451
8451
8591
85F9
8411
4412
4412
2004
1818
07E0
ENDCHAR
STARTCHAR 246E
ENCODING 9326
SWIDTH 1020 0
DWIDTH 17 0
BBX 16 16 1 -1
BITMAP
07E0
1818
1818
2004
45F2
4D82
8581
85E1
8411
8411
8411
4592
4462
2004
1818
07E0
ENDCHAR
STARTCHAR 246F
ENCODING 9327
SWIDTH 1020 0
DWIDTH 17 0
BBX 16 16 1 -1
BITMAP
07E0
1818
1818
2004
4462
4D92
8581
8581
85E1
8591
8591
4592
4462
2004
1818
07E0
ENDCHAR
STARTCHAR 2470
ENCODING 9328
SWIDTH 1020 0
DWIDTH 17 0
BBX 16 16 1 -1
BITMAP
07E0
1818
1818
2004
45F2
4C12
8411
8411
8421
8421
8421
4422
4422
2004
1818
07E0
ENDCHAR
STARTCHAR 2471
ENCODING 9329
SWIDTH 1020 0
DWIDTH 17 0
BBX 16 16 1 -1
BITMAP
07E0
1818
1818
2004
4462
4D92
8591
8591
8461
8591
8591
4592
4462
2004
1818
07E0
ENDCHAR
STARTCHAR 2472
ENCODING 9330
SWIDTH 1020 0
DWIDTH 17 0
BBX 16 16 1 -1
BITMAP
07E0
1818
1818
2004
4462
4D92
8591
8591
8471
8411
8411
4592
4462
2004
1818
07E0
ENDCHAR
STARTCHAR 2473
ENCODING 9331
SWIDTH 1020 0
DWIDTH 17 0
BBX 16 16 1 -1
BITMAP
07E0
1818
1818
2004
4C32
534A
8349
8349
8449
8849
9049
504A
5F32
2004
1818
07E0
ENDCHAR
STARTCHAR 24D0
ENCODING 9424
SWIDTH 1020 0
DWIDTH 17 0
BBX 16 16 1 -1
BITMAP
07E0
1818
1818
2004
4002
47C2
8821
8021
87E1
8821
8821
47D2
4002
2004
1818
07E0
ENDCHAR
STARTCHAR 24D1
ENCODING 9425
SWIDTH 1020 0
DWIDTH 17 0
BBX 16 16 1 -1
BITMAP
07E0
1818
1818
2004
4402
4402
8401
85C1
8721
8411
8411
4722
45C2
2004
1818
07E0
ENDCHAR
STARTCHAR 24D2
ENCODING 9426
SWIDTH 1020 0
DWIDTH 17 0
BBX 16 16 1 -1
BITMAP
07E0
1818
1818
2004
4002
43C2
8421
8801
8801
8811
8421
43C2
4002
2004
1818
07E0
ENDCHAR
STARTCHAR 24D3
ENCODING 9427
SWIDTH 1020 0
DWIDTH 17 0
BBX 16 16 1 -1
BITMAP
07E0
1818
1818
2004
4022
4022
8021
83A1
8461
8821
8821
4462
43A2
2004
1818
07E0
ENDCHAR
STARTCHAR 24D4
ENCODING 9428
SWIDTH 1020 0
DWIDTH 17 0
BBX 16 16 1 -1
BITMAP
07E0
1818
1818
2004
4002
43C2
8421
8811
8FF1
8801
8411
43E2
4002
2004
1818
07E0
ENDCHAR
STARTCHAR 24D5
ENCODING 9429
SWIDTH 1020 0
DWIDTH 17 0
BBX 16 16 1 -1
BITMAP
07E0
1818
1818
2004
4062
4182
8181
83E1
8181
8181
8181
4182
4182
2004
1818
07E0
ENDCHAR
STARTCHAR 24D6
ENCODING 9430
SWIDTH 1020 0
DWIDTH 17 0
BBX 16 16 1 -1
BITMAP
07E0
1818
1818
2004
43D2
4432
8811
8811
8431
83D1
8811
4422
43C2
2004
1818
07E0
ENDCHAR
STARTCHAR 24D7
ENCODING 9431
SWIDTH 1020 0
DWIDTH 17 0
BBX 16 16 1 -1
BITMAP
07E0
1818
1818
2004
4402
4402
8401
85C1
8721
8411
8411
4412
4412
2004
1818
07E0
ENDCHAR
STARTCHAR 24D8
ENCODING 9432
SWIDTH 1020 0
DWIDTH 17 0
BBX 16 16 1 -1
BITMAP
07E0
1818
1818
2184
4182
4002
8001
8181
8181
8181
8181
4182
4182
2004
1818
07E0
ENDCHAR
STARTCHAR 24D9
ENCODING 9433
SWIDTH 1020 0
DWIDTH 17 0
BBX 16 16 1 -1
BITMAP
07E0
1818
1818
2044
4042
4002
8001
8041
8041
8041
8041
4042
4442
2384
1818
07E0
ENDCHAR
STARTCHAR 24DA
ENCODING 9434
SWIDTH 1020 0
DWIDTH 17 0
BBX 16 16 1 -1
BITMAP
07E0
1818
1818
2004
4402
4402
8401
8411
8461
8781
8441
4422
4412
2004
1818
07E0
ENDCHAR
STARTCHAR 24DB
ENCODING 9435
SWIDTH 1020 0
DWIDTH 17 0
BBX 16 16 1 -1
BITMAP
07E0
1818
1818
2184
4182
4182
8181
8181
8181
8181
8181
4182
4182
2004
1818
07E0
ENDCHAR
STARTCHAR 24DC
ENCODING 9436
SWIDTH 1020 0
DWIDTH 17 0
BBX 16 16 1 -1
BITMAP
07E0
1818
1818
2004
4002
5732
99C9
9189
9189
9189
9189
518A
4002
2004
1818
07E0
ENDCHAR
STARTCHAR 24DD
ENCODING 9437
SWIDTH 1020 0
DWIDTH 17 0
BBX 16 16 1 -1
BITMAP
07E0
1818
1818
2004
4002
45E2
8711
8411
8411
8411
8411
4412
4002
2004
1818
07E0
ENDCHAR
STARTCHAR 24DE
ENCODING 9438
SWIDTH 1020 0
DWIDTH 17 0
BBX 16 16 1 -1
BITMAP
07E0
1818
1818
2004
4002
43C2
8421
8811
8811
8811
8421
43C2
4002
2004
1818
07E0
ENDCHAR
STARTCHAR 24DF
ENCODING 9439
SWIDTH 1020 0
DWIDTH 17 0
BBX 16 16 1 -1
BITMAP
07E0
1818
1818
2004
4002
45C2
8721
8411
8411
8721
85C1
4402
4402
2404
1818
07E0
ENDCHAR
STARTCHAR 24E0
ENCODING 9440
SWIDTH 1020 0
DWIDTH 17 0
BBX 16 16 1 -1
BITMAP
07E0
1818
1818
2004
4002
43A2
8461
8821
8821
8461
83A1
4022
4022
2024
1818
07E0
ENDCHAR
STARTCHAR 24E1
ENCODING 9441
SWIDTH 1020 0
DWIDTH 17 0
BBX 16 16 1 -1
BITMAP
07E0
1818
1818
2004
4002
45E2
8701
8401
8401
8401
8401
4402
4002
2004
1818
07E0
ENDCHAR
STARTCHAR 24E2
ENCODING 9442
SWIDTH 1020 0
DWIDTH 17 0
BBX 16 16 1 -1
BITMAP
07E0
1818
1818
2004
4002
43C2
8421
8401
83C1
8021
8011
4422
43C2
2004
1818
07E0
ENDCHAR
STARTCHAR 24E3
ENCODING 9443
SWIDTH 1020 0
DWIDTH 17 0
BBX 16 16 1 -1
BITMAP
07E0
1818
1818
2004
4002
4302
8301
87C1
8301
8301
8301
4302
41C2
2004
1818
07E0
ENDCHAR
STARTCHAR 24E4
ENCODING 9444
SWIDTH 1020 0
DWIDTH 17 0
BBX 16 16 1 -1
BITMAP
07E0
1818
1818
2004
4002
4412
8411
8411
8411
8411
8431
43D2
4002
2004
1818
07E0
ENDCHAR
STARTCHAR 24E5
ENCODING 9445
SWIDTH 1020 0
DWIDTH 17 0
BBX 16 16 1 -1
BITMAP
07E0
1818
1818
2004
4002
4812
8811
8421
8421
8341
8341
4182
4182
2004
1818
07E0
ENDCHAR
STARTCHAR 24E6
ENCODING 9446
SWIDTH 1020 0
DWIDTH 17 0
BBX 16 16 1 -1
BITMAP
07E0
1818
1818
2004
4002
518A
9189
8991
8B51
8B51
8421
4422
4422
2004
1818
07E0
ENDCHAR
STARTCHAR 24E7
ENCODING 9447
SWIDTH 1020 0
DWIDTH 17 0
BBX 16 16 1 -1
BITMAP
07E0
1818
1818
2004
4002
4422
8421
8341
8181
8341
8421
4812
4002
2004
1818
07E0
ENDCHAR
STARTCHAR 24E8
ENCODING 9448
SWIDTH 1020 0
DWIDTH 17 0
BBX 16 16 1 -1
BITMAP
07E0
1818
1818
2004
4002
4312
8311
81A1
81A1
8041
8041
4182
4702
2004
1818
07E0
ENDCHAR
STARTCHAR 24E9
ENCODING 9449
SWIDTH 1020 0
DWIDTH 17 0
BBX 16 16 1 -1
BITMAP
07E0
1818
1818
2004
4002
47E2
8021
8041
8181
8301
8401
47E2
4002
2004
1818
07E0
ENDCHAR
STARTCHAR 24EB
ENCODING 9451
SWIDTH 1020 0
DWIDTH 17 0
BBX 16 16 1 -1
BITMAP
07E0
1FF8
1FF8
3FFC
7BDE
739E
FBDF
FBDF
FBDF
FBDF
FBDF
7BDE
7BDE
3FFC
1FF8
07E0
ENDCHAR
STARTCHAR 24EC
ENCODING 9452
SWIDTH 1020 0
DWIDTH 17 0
BBX 16 16 1 -1
BITMAP
07E0
1FF8
1FF8
3FFC
7B9E
736E
FBEF
FBDF
FBDF
FBBF
FBBF
7B7E
7B0E
3FFC
1FF8
07E0
ENDCHAR
STARTCHAR 24ED
ENCODING 9453
SWIDTH 1020 0
DWIDTH 17 0
BBX 16 16 1 -1
BITMAP
07E0
1FF8
1FF8
3FFC
7B9E
736E
FBEF
FBEF
FB9F
FBEF
FBEF
7B6E
7B9E
3FFC
1FF8
07E0
ENDCHAR
STARTCHAR 24EE
ENCODING 9454
SWIDTH 1020 0
DWIDTH 17 0
BBX 16 16 1 -1
BITMAP
07E0
1FF8
1FF8
3FFC
7BEE
73CE
FBAF
FBAF
FB6F
FB07
FBEF
7BEE
7BEE
3FFC
1FF8
07E0
ENDCHAR
STARTCHAR 24EF
ENCODING 9455
SWIDTH 1020 0
DWIDTH 17 0
BBX 16 16 1 -1
BITMAP
07E0
1FF8
1FF8
3FFC
7B0E
737E
FB7F
FB1F
FBEF
FBEF
FBEF
7B6E
7B9E
3FFC
1FF8
07E0
ENDCHAR
STARTCHAR 24F0
ENCODING 9456
SWIDTH 1020 0
DWIDTH 17 0
BBX 16 16 1 -1
BITMAP
07E0
1FF8
1FF8
3FFC
7B9E
736E
FB7F
FB7F
FB1F
FB6F
FB6F
7B6E
7B9E
3FFC
1FF8
07E0
ENDCHAR
STARTCHAR 24F1
ENCODING 9457
SWIDTH 1020 0
DWIDTH 17 0
BBX 16 16 1 -1
BITMAP
07E0
1FF8
1FF8
3FFC
7B0E
73EE
FBEF
FBEF
FBDF
FBDF
FBDF
7BDE
7BDE
3FFC
1FF8
07E0
ENDCHAR
STARTCHAR 24F2
ENCODING 9458
SWIDTH 1020 0
DWIDTH 17 0
BBX 16 16 1 -1
BITMAP
07E0
1FF8
1FF8
3FFC
7B9E
736E
FB6F
FB6F
FB9F
FB6F
FB6F
7B6E
7B9E
3FFC
1FF8
07E0
ENDCHAR
STARTCHAR 24F3
ENCODING 9459
SWIDTH 1020 0
DWIDTH 17 0
BBX 16 16 1 -1
BITMAP
07E0
1FF8
1FF8
3FFC
7B9E
736E
FB6F
FB6F
FB9F
FBDF
FBDF
7BBE
7BBE
3FFC
1FF8
07E0
ENDCHAR
STARTCHAR 24F4
ENCODING 9460
SWIDTH 1020 0
DWIDTH 17 0
BBX 16 16 1 -1
BITMAP
07E0
1FF8
1FF8
3FFC
73CE
6DB6
FDB7
FDB7
FBB7
F7B7
EFB7
6FB6
61CE
3FFC
1FF8
07E0
ENDCHAR
STARTCHAR 24F5
ENCODING 9461
SWIDTH 1020 0
DWIDTH 17 0
BBX 16 16 1 -1
BITMAP
07E0
1818
1818
27E4
4812
518A
A385
A185
A185
A185
A185
518A
4812
27E4
1818
07E0
ENDCHAR
STARTCHAR 24F6
ENCODING 9462
SWIDTH 1020 0
DWIDTH 17 0
BBX 16 16 1 -1
BITMAP
07E0
1818
1818
27E4
4812
53CA
A425
A025
A045
A185
A305
57EA
4812
27E4
1818
07E0
ENDCHAR
STARTCHAR 24F7
ENCODING 9463
SWIDTH 1020 0
DWIDTH 17 0
BBX 16 16 1 -1
BITMAP
07E0
1818
1818
27E4
4812
53CA
A425
A025
A3C5
A025
A425
53CA
4812
27E4
1818
07E0
ENDCHAR
STARTCHAR 24F8
ENCODING 9464
SWIDTH 1020 0
DWIDTH 17 0
BBX 16 16 1 -1
BITMAP
07E0
1818
1818
27E4
4812
504A
A1C5
A345
A345
A7E5
A045
504A
4812
27E4
1818
07E0
ENDCHAR
STARTCHAR 24F9
ENCODING 9465
SWIDTH 1020 0
DWIDTH 17 0
BBX 16 16 1 -1
BITMAP
07E0
1818
1818
27E4
4812
53CA
A305
A405
A7C5
A025
A425
53CA
4812
27E4
1818
07E0
ENDCHAR
STARTCHAR 24FA
ENCODING 9466
SWIDTH 1020 0
DWIDTH 17 0
BBX 16 16 1 -1
BITMAP
07E0
1818
1818
27E4
4812
53CA
A425
A405
A7C5
A425
A425
53CA
4812
27E4
1818
07E0
ENDCHAR
STARTCHAR 24FB
ENCODING 9467
SWIDTH 1020 0
DWIDTH 17 0
BBX 16 16 1 -1
BITMAP
07E0
1818
1818
27E4
4812
57EA
A025
A025
A045
A045
A185
518A
4812
27E4
1818
07E0
ENDCHAR
STARTCHAR 24FC
ENCODING 9468
SWIDTH 1020 0
DWIDTH 17 0
BBX 16 16 1 -1
BITMAP
07E0
1818
1818
27E4
4812
53CA
A425
A425
A3C5
A425
A425
53CA
4812
27E4
1818
07E0
ENDCHAR
STARTCHAR 24FD
ENCODING 9469
SWIDTH 1020 0
DWIDTH 17 0
BBX 16 16 1 -1
BITMAP
07E0
1818
1818
27E4
4812
53CA
A425
A425
A3E5
A045
A045
518A
4812
27E4
1818
07E0
ENDCHAR
STARTCHAR 24FE
ENCODING 9470
SWIDTH 1020 0
DWIDTH 17 0
BBX 16 16 1 -1
BITMAP
07E0
1818
1818
27E4
4812
546A
AD95
A595
A595
A595
A595
546A
4812
27E4
1818
07E0
ENDCHAR
STARTCHAR 2500
ENCODING 9472
SWIDTH 1020 0
DWIDTH 17 0
BBX 17 1 0 6
BITMAP
FFFF80
ENDCHAR
STARTCHAR 2501
ENCODING 9473
SWIDTH 1020 0
DWIDTH 17 0
BBX 17 2 0 5
BITMAP
FFFF80
FFFF80
ENDCHAR
STARTCHAR 2502
ENCODING 9474
SWIDTH 1020 0
DWIDTH 17 0
BBX 2 17 7 -2
BITMAP
C0
C0
C0
C0
C0
C0
C0
C0
C0
C0
C0
C0
C0
C0
C0
C0
C0
ENDCHAR
STARTCHAR 2503
ENCODING 9475
SWIDTH 1020 0
DWIDTH 17 0
BBX 3 17 7 -2
BITMAP
E0
E0
E0
E0
E0
E0
E0
E0
E0
E0
E0
E0
E0
E0
E0
E0
E0
ENDCHAR
STARTCHAR 250C
ENCODING 9484
SWIDTH 1020 0
DWIDTH 17 0
BBX 10 9 7 -2
BITMAP
FFC0
C000
C000
C000
C000
C000
C000
C000
C000
ENDCHAR
STARTCHAR 250F
ENCODING 9487
SWIDTH 1020 0
DWIDTH 17 0
BBX 10 9 7 -2
BITMAP
FFC0
FFC0
E000
E000
E000
E000
E000
E000
E000
ENDCHAR
STARTCHAR 2510
ENCODING 9488
SWIDTH 1020 0
DWIDTH 17 0
BBX 9 9 0 -2
BITMAP
FF80
0180
0180
0180
0180
0180
0180
0180
0180
ENDCHAR
STARTCHAR 2513
ENCODING 9491
SWIDTH 1020 0
DWIDTH 17 0
BBX 10 9 0 -2
BITMAP
FFC0
FFC0
01C0
01C0
01C0
01C0
01C0
01C0
01C0
ENDCHAR
STARTCHAR 2514
ENCODING 9492
SWIDTH 1020 0
DWIDTH 17 0
BBX 10 9 7 6
BITMAP
C000
C000
C000
C000
C000
C000
C000
C000
FFC0
ENDCHAR
STARTCHAR 2517
ENCODING 9495
SWIDTH 1020 0
DWIDTH 17 0
BBX 10 10 7 5
BITMAP
E000
E000
E000
E000
E000
E000
E000
E000
FFC0
FFC0
ENDCHAR
STARTCHAR 2518
ENCODING 9496
SWIDTH 1020 0
DWIDTH 17 0
BBX 9 9 0 6
BITMAP
0180
0180
0180
0180
0180
0180
0180
0180
FF80
ENDCHAR
STARTCHAR 251B
ENCODING 9499
SWIDTH 1020 0
DWIDTH 17 0
BBX 10 10 0 5
BITMAP
01C0
01C0
01C0
01C0
01C0
01C0
01C0
01C0
FFC0
FFC0
ENDCHAR
STARTCHAR 251C
ENCODING 9500
SWIDTH 1020 0
DWIDTH 17 0
BBX 10 17 7 -2
BITMAP
C000
C000
C000
C000
C000
C000
C000
C000
FFC0
C000
C000
C000
C000
C000
C000
C000
C000
ENDCHAR
STARTCHAR 251D
ENCODING 9501
SWIDTH 1020 0
DWIDTH 17 0
BBX 10 17 7 -2
BITMAP
C000
C000
C000
C000
C000
C000
C000
C000
FFC0
FFC0
C000
C000
C000
C000
C000
C000
C000
ENDCHAR
STARTCHAR 2520
ENCODING 9504
SWIDTH 1020 0
DWIDTH 17 0
BBX 10 17 7 -2
BITMAP
E000
E000
E000
E000
E000
E000
E000
E000
FFC0
E000
E000
E000
E000
E000
E000
E000
E000
ENDCHAR
STARTCHAR 2523
ENCODING 9507
SWIDTH 1020 0
DWIDTH 17 0
BBX 10 17 7 -2
BITMAP
E000
E000
E000
E000
E000
E000
E000
E000
FFC0
FFC0
E000
E000
E000
E000
E000
E000
E000
ENDCHAR
STARTCHAR 2524
ENCODING 9508
SWIDTH 1020 0
DWIDTH 17 0
BBX 9 17 0 -2
BITMAP
0180
0180
0180
0180
0180
0180
0180
0180
FF80
0180
0180
0180
0180
0180
0180
0180
0180
ENDCHAR
STARTCHAR 2525
ENCODING 9509
SWIDTH 1020 0
DWIDTH 17 0
BBX 9 17 0 -2
BITMAP
0180
0180
0180
0180
0180
0180
0180
0180
FF80
FF80
0180
0180
0180
0180
0180
0180
0180
ENDCHAR
STARTCHAR 2528
ENCODING 9512
SWIDTH 1020 0
DWIDTH 17 0
BBX 10 17 0 -2
BITMAP
01C0
01C0
01C0
01C0
01C0
01C0
01C0
01C0
FFC0
01C0
01C0
01C0
01C0
01C0
01C0
01C0
01C0
ENDCHAR
STARTCHAR 252B
ENCODING 9515
SWIDTH 1020 0
DWIDTH 17 0
BBX 10 17 0 -2
BITMAP
01C0
01C0
01C0
01C0
01C0
01C0
01C0
01C0
FFC0
FFC0
01C0
01C0
01C0
01C0
01C0
01C0
01C0
ENDCHAR
STARTCHAR 252C
ENCODING 9516
SWIDTH 1020 0
DWIDTH 17 0
BBX 17 9 0 -2
BITMAP
FFFF80
018000
018000
018000
018000
018000
018000
018000
018000
ENDCHAR
STARTCHAR 252F
ENCODING 9519
SWIDTH 1020 0
DWIDTH 17 0
BBX 17 9 0 -2
BITMAP
FFFF80
FFFF80
018000
018000
018000
018000
018000
018000
018000
ENDCHAR
STARTCHAR 2530
ENCODING 9520
SWIDTH 1020 0
DWIDTH 17 0
BBX 17 9 0 -2
BITMAP
FFFF80
01C000
01C000
01C000
01C000
01C000
01C000
01C000
01C000
ENDCHAR
STARTCHAR 2533
ENCODING 9523
SWIDTH 1020 0
DWIDTH 17 0
BBX 17 9 0 -2
BITMAP
FFFF80
FFFF80
01C000
01C000
01C000
01C000
01C000
01C000
01C000
ENDCHAR
STARTCHAR 2534
ENCODING 9524
SWIDTH 1020 0
DWIDTH 17 0
BBX 17 9 0 6
BITMAP
018000
018000
018000
018000
018000
018000
018000
018000
FFFF80
ENDCHAR
STARTCHAR 2537
ENCODING 9527
SWIDTH 1020 0
DWIDTH 17 0
BBX 17 10 0 5
BITMAP
018000
018000
018000
018000
018000
018000
018000
018000
FFFF80
FFFF80
ENDCHAR
STARTCHAR 2538
ENCODING 9528
SWIDTH 1020 0
DWIDTH 17 0
BBX 17 9 0 6
BITMAP
01C000
01C000
01C000
01C000
01C000
01C000
01C000
01C000
FFFF80
ENDCHAR
STARTCHAR 253B
ENCODING 9531
SWIDTH 1020 0
DWIDTH 17 0
BBX 17 10 0 5
BITMAP
01C000
01C000
01C000
01C000
01C000
01C000
01C000
01C000
FFFF80
FFFF80
ENDCHAR
STARTCHAR 253C
ENCODING 9532
SWIDTH 1020 0
DWIDTH 17 0
BBX 17 17 0 -2
BITMAP
018000
018000
018000
018000
018000
018000
018000
018000
FFFF80
018000
018000
018000
018000
018000
018000
018000
018000
ENDCHAR
STARTCHAR 253F
ENCODING 9535
SWIDTH 1020 0
DWIDTH 17 0
BBX 17 17 0 -2
BITMAP
018000
018000
018000
018000
018000
018000
018000
018000
FFFF80
FFFF80
018000
018000
018000
018000
018000
018000
018000
ENDCHAR
STARTCHAR 2542
ENCODING 9538
SWIDTH 1020 0
DWIDTH 17 0
BBX 17 17 0 -2
BITMAP
01C000
01C000
01C000
01C000
01C000
01C000
01C000
01C000
FFFF80
01C000
01C000
01C000
01C000
01C000
01C000
01C000
01C000
ENDCHAR
STARTCHAR 254B
ENCODING 9547
SWIDTH 1020 0
DWIDTH 17 0
BBX 17 17 0 -2
BITMAP
01C000
01C000
01C000
01C000
01C000
01C000
01C000
01C000
FFFF80
FFFF80
01C000
01C000
01C000
01C000
01C000
01C000
01C000
ENDCHAR
STARTCHAR 25A0
ENCODING 9632
SWIDTH 1020 0
DWIDTH 17 0
BBX 15 15 1 -1
BITMAP
FFFE
FFFE
FFFE
FFFE
FFFE
FFFE
FFFE
FFFE
FFFE
FFFE
FFFE
FFFE
FFFE
FFFE
FFFE
ENDCHAR
STARTCHAR 25A1
ENCODING 9633
SWIDTH 1020 0
DWIDTH 17 0
BBX 15 15 1 -1
BITMAP
FFFE
FFFE
8002
8002
8002
8002
8002
8002
8002
8002
8002
8002
8002
8002
FFFE
ENDCHAR
STARTCHAR 25B1
ENCODING 9649
SWIDTH 1020 0
DWIDTH 17 0
BBX 16 9 1 1
BITMAP
0FFF
0802
1002
1004
2004
2008
4008
4010
FFF0
ENDCHAR
STARTCHAR 25B2
ENCODING 9650
SWIDTH 1020 0
DWIDTH 17 0
BBX 14 12 2 0
BITMAP
0300
0300
0780
0780
0FC0
0FC0
1FE0
1FE0
3FF0
3FF0
7FF8
FFFC
ENDCHAR
STARTCHAR 25B3
ENCODING 9651
SWIDTH 1020 0
DWIDTH 17 0
BBX 14 12 2 0
BITMAP
0300
0300
0680
0680
0840
0840
1020
1020
2010
2010
4008
FFFC
ENDCHAR
STARTCHAR 25B6
ENCODING 9654
SWIDTH 1020 0
DWIDTH 17 0
BBX 14 14 2 0
BITMAP
8000
8000
E000
F800
FF00
FFC0
FFF0
FFFC
FFF0
FFC0
FF00
F800
E000
8000
ENDCHAR
STARTCHAR 25B7
ENCODING 9655
SWIDTH 1020 0
DWIDTH 17 0
BBX 14 14 2 0
BITMAP
8000
8000
E000
9800
8700
80C0
8030
800C
8030
80C0
8700
9800
E000
8000
ENDCHAR
STARTCHAR 25BC
ENCODING 9660
SWIDTH 1020 0
DWIDTH 17 0
BBX 14 12 2 0
BITMAP
FFFC
7FF8
3FF0
3FF0
1FE0
1FE0
0FC0
0FC0
0780
0780
0300
0300
ENDCHAR
STARTCHAR 25BD
ENCODING 9661
SWIDTH 1020 0
DWIDTH 17 0
BBX 14 12 2 0
BITMAP
FFFC
4008
2010
2010
1020
1020
0840
0840
0680
0680
0300
0300
ENDCHAR
STARTCHAR 25C0
ENCODING 9664
SWIDTH 1020 0
DWIDTH 17 0
BBX 14 14 2 0
BITMAP
0004
0004
001C
007C
03FC
0FFC
3FFC
FFFC
3FFC
0FFC
03FC
007C
001C
0004
ENDCHAR
STARTCHAR 25C1
ENCODING 9665
SWIDTH 1020 0
DWIDTH 17 0
BBX 14 14 2 0
BITMAP
0004
0004
001C
0064
0384
0E04
3004
C004
3004
0E04
0384
0064
001C
0004
ENDCHAR
STARTCHAR 25C6
ENCODING 9670
SWIDTH 1020 0
DWIDTH 17 0
BBX 15 15 1 -1
BITMAP
0380
0380
07C0
0FE0
1FF0
3FF8
7FFC
FFFE
FFFE
7FFC
3FF8
1FF0
0FE0
07C0
0380
ENDCHAR
STARTCHAR 25C7
ENCODING 9671
SWIDTH 1020 0
DWIDTH 17 0
BBX 15 15 1 -1
BITMAP
0380
0380
0440
0820
1010
2008
4004
8002
8002
4004
2008
1010
0820
0440
0380
ENDCHAR
STARTCHAR 25C9
ENCODING 9673
SWIDTH 1020 0
DWIDTH 17 0
BBX 15 15 1 -1
BITMAP
07C0
07C0
1830
2388
4FE4
5FF4
9FF2
BFFA
BFFA
9FF2
5FF4
4FE4
2388
1830
07C0
ENDCHAR
STARTCHAR 25CB
ENCODING 9675
SWIDTH 1020 0
DWIDTH 17 0
BBX 15 15 1 -1
BITMAP
07C0
07C0
1830
2008
4004
4004
8002
8002
8002
8002
4004
4004
2008
1830
07C0
ENDCHAR
STARTCHAR 25CE
ENCODING 9678
SWIDTH 1020 0
DWIDTH 17 0
BBX 15 15 1 -1
BITMAP
07C0
07C0
1830
2008
47C4
4824
9012
9012
9012
9012
4824
47C4
2008
1830
07C0
ENDCHAR
STARTCHAR 25CF
ENCODING 9679
SWIDTH 1020 0
DWIDTH 17 0
BBX 15 15 1 -1
BITMAP
07C0
07C0
1FF0
3FF8
7FFC
7FFC
FFFE
FFFE
FFFE
FFFE
7FFC
7FFC
3FF8
1FF0
07C0
ENDCHAR
STARTCHAR 25D0
ENCODING 9680
SWIDTH 1020 0
DWIDTH 17 0
BBX 16 16 1 -1
BITMAP
07E0
1F98
1F98
3F84
7F82
7F82
FF81
FF81
FF81
FF81
FF81
7F82
7F82
3F84
1F98
07E0
ENDCHAR
STARTCHAR 25D1
ENCODING 9681
SWIDTH 1020 0
DWIDTH 17 0
BBX 16 16 1 -1
BITMAP
07E0
19F8
19F8
21FC
41FE
41FE
81FF
81FF
81FF
81FF
81FF
41FE
41FE
21FC
19F8
07E0
ENDCHAR
STARTCHAR 25D2
ENCODING 9682
SWIDTH 1020 0
DWIDTH 17 0
BBX 16 16 1 -1
BITMAP
07E0
1818
1818
2004
4002
4002
8001
8001
FFFF
FFFF
FFFF
7FFE
7FFE
3FFC
1FF8
07E0
ENDCHAR
STARTCHAR 25D3
ENCODING 9683
SWIDTH 1020 0
DWIDTH 17 0
BBX 16 16 1 -1
BITMAP
07E0
1FF8
1FF8
3FFC
7FFE
7FFE
FFFF
FFFF
FFFF
8001
8001
4002
4002
2004
1818
07E0
ENDCHAR
STARTCHAR 25E6
ENCODING 9702
SWIDTH 1020 0
DWIDTH 17 0
BBX 7 6 5 4
BITMAP
38
44
82
82
44
38
ENDCHAR
STARTCHAR 25EF
ENCODING 9711
SWIDTH 1020 0
DWIDTH 17 0
BBX 15 15 1 -1
BITMAP
07C0
07C0
1830
2008
4004
4004
8002
8002
8002
8002
4004
4004
2008
1830
07C0
ENDCHAR
STARTCHAR 2600
ENCODING 9728
SWIDTH 1020 0
DWIDTH 17 0
BBX 16 16 1 -1
BITMAP
0180
4182
4182
2184
1008
03C0
07E0
0FF0
EFF7
0FF0
07E0
03C0
1008
2184
4182
0180
ENDCHAR
STARTCHAR 2601
ENCODING 9729
SWIDTH 1020 0
DWIDTH 17 0
BBX 15 10 1 2
BITMAP
0F80
1FC0
1FEC
7FFE
FFFE
FFFC
FFFE
FFFE
79FE
007C
ENDCHAR
STARTCHAR 2602
ENCODING 9730
SWIDTH 1020 0
DWIDTH 17 0
BBX 16 16 1 -1
BITMAP
0180
0180
0180
0FF0
3FFC
7FFE
7FFE
FFFF
DDBB
8991
0180
0180
0180
0180
0980
0700
ENDCHAR
STARTCHAR 2603
ENCODING 9731
SWIDTH 1020 0
DWIDTH 17 0
BBX 16 16 1 -1
BITMAP
21FC
0FF8
0FF8
9079
200C
2C64
AC64
2005
944A
6386
8001
8381
8001
4382
300C
0FF0
ENDCHAR
STARTCHAR 2605
ENCODING 9733
SWIDTH 1020 0
DWIDTH 17 0
BBX 14 15 2 -1
BITMAP
0300
0300
0300
0780
0780
0FC0
FFFC
7FF8
3FF0
1FE0
1FE0
3EF0
3870
7038
4008
ENDCHAR
STARTCHAR 2606
ENCODING 9734
SWIDTH 1020 0
DWIDTH 17 0
BBX 14 15 2 -1
BITMAP
0300
0300
0680
0680
0840
0840
F87C
4008
2010
1020
1020
2310
2690
5868
6018
ENDCHAR
STARTCHAR 260E
ENCODING 9742
SWIDTH 1020 0
DWIDTH 17 0
BBX 16 14 1 0
BITMAP
3FFC
3FFC
7FFE
F76F
F7EF
E7E7
1FF8
3C3C
381C
781E
781E
7C3E
7FFE
3FFC
ENDCHAR
STARTCHAR 2616
ENCODING 9750
SWIDTH 1020 0
DWIDTH 17 0
BBX 14 15 2 -1
BITMAP
0780
0780
1860
6018
4008
4008
4008
4008
8004
8004
8004
8004
8004
8004
FFFC
ENDCHAR
STARTCHAR 2617
ENCODING 9751
SWIDTH 1020 0
DWIDTH 17 0
BBX 14 15 2 -1
BITMAP
0780
0780
1FE0
7FF8
7FF8
7FF8
7FF8
7FF8
FFFC
FFFC
FFFC
FFFC
FFFC
FFFC
FFFC
ENDCHAR
STARTCHAR 261E
ENCODING 9758
SWIDTH 1020 0
DWIDTH 17 0
BBX 16 9 1 2
BITMAP
3FFE
C401
8BFE
95A0
A3C0
8040
8780
C180
3F00
ENDCHAR
STARTCHAR 2640
ENCODING 9792
SWIDTH 1020 0
DWIDTH 17 0
BBX 11 16 3 -1
BITMAP
1F00
2080
2080
4040
4040
4040
4040
2080
1F00
0C00
0C00
FFE0
0C00
0C00
0C00
0C00
ENDCHAR
STARTCHAR 2642
ENCODING 9794
SWIDTH 1020 0
DWIDTH 17 0
BBX 15 15 1 -1
BITMAP
01FE
01FE
0006
000A
0012
0022
0042
3D82
4300
8180
8180
8180
8180
4300
3C00
ENDCHAR
STARTCHAR 2660
ENCODING 9824
SWIDTH 1020 0
DWIDTH 17 0
BBX 14 15 2 -1
BITMAP
0300
0300
0780
0FC0
1FE0
3FF0
7FF8
7FF8
FFFC
FFFC
FFFC
7B78
0300
0780
0FC0
ENDCHAR
STARTCHAR 2661
ENCODING 9825
SWIDTH 1020 0
DWIDTH 17 0
BBX 14 13 2 -1
BITMAP
3870
4688
8304
8304
8004
8004
4008
4008
2010
1020
0840
0680
0300
ENDCHAR
STARTCHAR 2662
ENCODING 9826
SWIDTH 1020 0
DWIDTH 17 0
BBX 12 16 3 -1
BITMAP
0600
0600
0600
0D00
0D00
1080
2040
4020
8010
4020
2040
1080
0D00
0D00
0600
0600
ENDCHAR
STARTCHAR 2663
ENCODING 9827
SWIDTH 1020 0
DWIDTH 17 0
BBX 14 15 2 -1
BITMAP
0780
0780
0FC0
1FE0
1FE0
0FC0
37B0
7B78
FFFC
FFFC
FFFC
7B78
3330
0780
0FC0
ENDCHAR
STARTCHAR 2664
ENCODING 9828
SWIDTH 1020 0
DWIDTH 17 0
BBX 14 15 2 -1
BITMAP
0300
0300
0680
0840
1020
2010
4008
4008
8004
8004
8784
7B78
0300
0680
0FC0
ENDCHAR
STARTCHAR 2665
ENCODING 9829
SWIDTH 1020 0
DWIDTH 17 0
BBX 14 13 2 -1
BITMAP
3870
7EF8
FFFC
FFFC
FFFC
FFFC
7FF8
7FF8
3FF0
1FE0
0FC0
0780
0300
ENDCHAR
STARTCHAR 2666
ENCODING 9830
SWIDTH 1020 0
DWIDTH 17 0
BBX 12 16 3 -1
BITMAP
0600
0600
0600
0F00
0F00
1F80
3FC0
7FE0
FFF0
7FE0
3FC0
1F80
0F00
0F00
0600
0600
ENDCHAR
STARTCHAR 2667
ENCODING 9831
SWIDTH 1020 0
DWIDTH 17 0
BBX 14 15 2 -1
BITMAP
0780
0780
0840
1020
1020
0840
3870
4688
8004
8004
8784
4B48
3330
0680
0FC0
ENDCHAR
STARTCHAR 2668
ENCODING 9832
SWIDTH 1020 0
DWIDTH 17 0
BBX 15 14 1 0
BITMAP
0180
0180
0B10
1320
1320
1320
2990
4994
8992
91A2
8302
4004
3018
0FE0
ENDCHAR
STARTCHAR 2669
ENCODING 9833
SWIDTH 1020 0
DWIDTH 17 0
BBX 7 16 5 -1
BITMAP
02
02
02
02
02
02
02
02
02
02
02
02
7E
FE
FC
78
ENDCHAR
STARTCHAR 266A
ENCODING 9834
SWIDTH 1020 0
DWIDTH 17 0
BBX 12 16 3 -1
BITMAP
0600
0600
0600
0700
0780
06C0
0660
0630
0610
0610
0620
0640
7E00
FE00
FC00
7000
ENDCHAR
STARTCHAR 266B
ENCODING 9835
SWIDTH 1020 0
DWIDTH 17 0
BBX 14 16 2 -1
BITMAP
0F00
0FE0
0FE0
0FFC
08FC
081C
0804
0804
0804
0804
7804
F804
F03C
607C
0078
0030
ENDCHAR
STARTCHAR 266C
ENCODING 9836
SWIDTH 1020 0
DWIDTH 17 0
BBX 14 16 2 -1
BITMAP
0F00
0FE0
0FE0
08FC
0F1C
0FE4
08FC
081C
0804
0804
7804
F804
F03C
607C
0078
0030
ENDCHAR
STARTCHAR 266D
ENCODING 9837
SWIDTH 1020 0
DWIDTH 17 0
BBX 8 16 5 -1
BITMAP
80
80
80
80
80
80
80
BE
C3
83
83
86
9C
B8
C0
80
ENDCHAR
STARTCHAR 266E
ENCODING 9838
SWIDTH 1020 0
DWIDTH 17 0
BBX 8 16 5 -1
BITMAP
80
80
80
80
87
FF
F9
81
81
81
9F
FF
F1
01
01
01
ENDCHAR
STARTCHAR 266F
ENCODING 9839
SWIDTH 1020 0
DWIDTH 17 0
BBX 13 16 2 -1
BITMAP
0040
1040
1040
1040
1078
1FF8
FFC0
F040
1040
1078
1FF8
FFC0
F040
1040
1040
1000
ENDCHAR
STARTCHAR 2713
ENCODING 10003
SWIDTH 1020 0
DWIDTH 17 0
BBX 14 11 1 0
BITMAP
0004
0008
0010
0020
0040
C180
6300
3700
1C00
0C00
0800
ENDCHAR
STARTCHAR 2756
ENCODING 10070
SWIDTH 1020 0
DWIDTH 17 0
BBX 14 15 2 -1
BITMAP
0300
0300
0780
0FC0
0FC0
2790
7338
F87C
F87C
7338
2790
0FC0
0FC0
0780
0300
ENDCHAR
STARTCHAR 2776
ENCODING 10102
SWIDTH 1020 0
DWIDTH 17 0
BBX 16 16 1 -1
BITMAP
07E0
1FF8
1FF8
3FFC
7F7E
7C7E
FF7F
FF7F
FF7F
FF7F
FF7F
7F7E
7F7E
3FFC
1FF8
07E0
ENDCHAR
STARTCHAR 2777
ENCODING 10103
SWIDTH 1020 0
DWIDTH 17 0
BBX 16 16 1 -1
BITMAP
07E0
1FF8
1FF8
3FFC
7C3E
7BDE
FFDF
FFBF
FF7F
FDFF
FBFF
7BFE
781E
3FFC
1FF8
07E0
ENDCHAR
STARTCHAR 2778
ENCODING 10104
SWIDTH 1020 0
DWIDTH 17 0
BBX 16 16 1 -1
BITMAP
07E0
1FF8
1FF8
3FFC
7C3E
7BDE
FFDF
FFDF
FF3F
FFDF
FBDF
7BDE
7C3E
3FFC
1FF8
07E0
ENDCHAR
STARTCHAR 2779
ENCODING 10105
SWIDTH 1020 0
DWIDTH 17 0
BBX 16 16 1 -1
BITMAP
07E0
1FF8
1FF8
3FFC
7FBE
7F3E
FDBF
FBBF
FBBF
F00F
FFBF
7FBE
7FBE
3FFC
1FF8
07E0
ENDCHAR
STARTCHAR 277A
ENCODING 10106
SWIDTH 1020 0
DWIDTH 17 0
BBX 16 16 1 -1
BITMAP
07E0
1FF8
1FF8
3FFC
781E
7BFE
FBFF
F83F
FFDF
FFDF
FBDF
7BDE
7C3E
3FFC
1FF8
07E0
ENDCHAR
STARTCHAR 277B
ENCODING 10107
SWIDTH 1020 0
DWIDTH 17 0
BBX 16 16 1 -1
BITMAP
07E0
1FF8
1FF8
3FFC
7C3E
7BDE
FBFF
FBFF
F83F
FBDF
FBDF
7BDE
7C3E
3FFC
1FF8
07E0
ENDCHAR
STARTCHAR 277C
ENCODING 10108
SWIDTH 1020 0
DWIDTH 17 0
BBX 16 16 1 -1
BITMAP
07E0
1FF8
1FF8
3FFC
781E
7FDE
FFDF
FFBF
FFBF
FFBF
FF7F
7F7E
7F7E
3FFC
1FF8
07E0
ENDCHAR
STARTCHAR 277D
ENCODING 10109
SWIDTH 1020 0
DWIDTH 17 0
BBX 16 16 1 -1
BITMAP
07E0
1FF8
1FF8
3FFC
7C3E
7BDE
FBDF
FBDF
FC3F
FBDF
FBDF
7BDE
7C3E
3FFC
1FF8
07E0
ENDCHAR
STARTCHAR 277E
ENCODING 10110
SWIDTH 1020 0
DWIDTH 17 0
BBX 16 16 1 -1
BITMAP
07E0
1FF8
1FF8
3FFC
7C3E
7BDE
FBDF
FBDF
FC3F
FFBF
FFBF
7F7E
7F7E
3FFC
1FF8
07E0
ENDCHAR
STARTCHAR 277F
ENCODING 10111
SWIDTH 1020 0
DWIDTH 17 0
BBX 16 16 1 -1
BITMAP
07E0
1FF8
1FF8
3FFC
7B9E
736E
FB6F
FB6F
FB6F
FB6F
FB6F
7B6E
7B9E
3FFC
1FF8
07E0
ENDCHAR
STARTCHAR 2934
ENCODING 10548
SWIDTH 1020 0
DWIDTH 17 0
BBX 15 13 1 1
BITMAP
0008
0008
0008
001C
002A
0008
0008
0008
0010
0010
0020
01C0
FF00
ENDCHAR
STARTCHAR 2935
ENCODING 10549
SWIDTH 1020 0
DWIDTH 17 0
BBX 15 12 1 0
BITMAP
FF00
01C0
0020
0010
0010
0008
0008
0008
002A
001C
0008
0008
ENDCHAR
STARTCHAR 29BF
ENCODING 10687
SWIDTH 1020 0
DWIDTH 17 0
BBX 15 15 1 -1
BITMAP
07C0
07C0
1830
2008
4004
4384
87C2
8FE2
8FE2
87C2
4384
4004
2008
1830
07C0
ENDCHAR
STARTCHAR 29FA
ENCODING 10746
SWIDTH 1020 0
DWIDTH 17 0
BBX 15 14 1 0
BITMAP
0820
0820
0820
0820
0820
0820
0820
FFFE
0820
0820
0820
0820
0820
0820
ENDCHAR
STARTCHAR 29FB
ENCODING 10747
SWIDTH 1020 0
DWIDTH 17 0
BBX 14 14 2 0
BITMAP
1320
1320
1320
1320
1320
1320
1320
FFFC
1320
1320
1320
1320
1320
1320
ENDCHAR
STARTCHAR 3000
ENCODING 12288
SWIDTH 1020 0
DWIDTH 17 0
BBX 0 0 0 0
BITMAP
ENDCHAR
STARTCHAR 3001
ENCODING 12289
SWIDTH 1020 0
DWIDTH 17 0
BBX 3 3 1 -1
BITMAP
80
40
20
ENDCHAR
STARTCHAR 3002
ENCODING 12290
SWIDTH 1020 0
DWIDTH 17 0
BBX 4 4 1 -1
BITMAP
60
90
90
60
ENDCHAR
STARTCHAR 3003
ENCODING 12291
SWIDTH 1020 0
DWIDTH 17 0
BBX 9 8 4 1
BITMAP
2080
2080
2080
2080
4100
4100
4100
8200
ENDCHAR
STARTCHAR 3005
ENCODING 12293
SWIDTH 1020 0
DWIDTH 17 0
BBX 10 12 3 0
BITMAP
1000
1000
1000
1FC0
1040
2040
2080
4080
9D00
0600
0100
0080
ENDCHAR
STARTCHAR 3006
ENCODING 12294
SWIDTH 1020 0
DWIDTH 17 0
BBX 15 15 1 -1
BITMAP
0002
0002
0004
0008
0C10
13A0
2040
21A0
2330
4400
4800
5000
6000
4000
8000
ENDCHAR
STARTCHAR 3007
ENCODING 12295
SWIDTH 1020 0
DWIDTH 17 0
BBX 15 12 1 0
BITMAP
0FE0
3018
4004
4004
8002
8002
8002
8002
4004
4004
3018
0FE0
ENDCHAR
STARTCHAR 3008
ENCODING 12296
SWIDTH 1020 0
DWIDTH 17 0
BBX 7 17 7 -2
BITMAP
02
04
04
04
08
10
10
60
C0
C0
60
10
10
08
04
04
02
ENDCHAR
STARTCHAR 3009
ENCODING 12297
SWIDTH 1020 0
DWIDTH 17 0
BBX 7 17 3 -2
BITMAP
80
40
40
40
20
10
10
0C
06
06
0C
10
10
20
40
40
80
ENDCHAR
STARTCHAR 300A
ENCODING 12298
SWIDTH 1020 0
DWIDTH 17 0
BBX 10 17 6 -2
BITMAP
0240
0480
0480
0480
0900
3200
3200
6400
8800
8800
6400
3200
3200
0900
0480
0480
0240
ENDCHAR
STARTCHAR 300B
ENCODING 12299
SWIDTH 1020 0
DWIDTH 17 0
BBX 10 17 1 -2
BITMAP
9000
4800
4800
4800
2400
1300
1300
0980
0440
0440
0980
1300
1300
2400
4800
4800
9000
ENDCHAR
STARTCHAR 300C
ENCODING 12300
SWIDTH 1020 0
DWIDTH 17 0
BBX 6 12 8 3
BITMAP
FC
C0
C0
C0
C0
C0
C0
C0
C0
C0
C0
C0
ENDCHAR
STARTCHAR 300D
ENCODING 12301
SWIDTH 1020 0
DWIDTH 17 0
BBX 6 11 3 -2
BITMAP
0C
0C
0C
0C
0C
0C
0C
0C
0C
0C
FC
ENDCHAR
STARTCHAR 300E
ENCODING 12302
SWIDTH 1020 0
DWIDTH 17 0
BBX 7 12 7 3
BITMAP
FE
C2
C2
DE
D0
D0
D0
D0
D0
D0
D0
F0
ENDCHAR
STARTCHAR 300F
ENCODING 12303
SWIDTH 1020 0
DWIDTH 17 0
BBX 7 11 3 -2
BITMAP
1E
16
16
16
16
16
16
16
F6
86
FE
ENDCHAR
STARTCHAR 3010
ENCODING 12304
SWIDTH 1020 0
DWIDTH 17 0
BBX 6 17 8 -2
BITMAP
FC
F8
F8
F0
E0
E0
C0
C0
C0
C0
C0
C0
E0
E0
F0
F8
FC
ENDCHAR
STARTCHAR 3011
ENCODING 12305
SWIDTH 1020 0
DWIDTH 17 0
BBX 6 17 3 -2
BITMAP
FC
7C
7C
3C
1C
1C
0C
0C
0C
0C
0C
0C
1C
1C
3C
7C
FC
ENDCHAR
STARTCHAR 3012
ENCODING 12306
SWIDTH 1020 0
DWIDTH 17 0
BBX 15 15 1 -1
BITMAP
FFFE
FFFE
FFFE
0000
0000
FFFE
FFFE
0380
0380
0380
0380
0380
0380
0380
0380
ENDCHAR
STARTCHAR 3013
ENCODING 12307
SWIDTH 1020 0
DWIDTH 17 0
BBX 15 11 1 1
BITMAP
FFFE
FFFE
FFFE
FFFE
0000
0000
0000
FFFE
FFFE
FFFE
FFFE
ENDCHAR
STARTCHAR 3014
ENCODING 12308
SWIDTH 1020 0
DWIDTH 17 0
BBX 6 17 8 -2
BITMAP
04
18
18
E0
C0
C0
C0
C0
C0
C0
C0
C0
C0
C0
E0
18
04
ENDCHAR
STARTCHAR 3015
ENCODING 12309
SWIDTH 1020 0
DWIDTH 17 0
BBX 6 17 3 -2
BITMAP
80
60
60
1C
0C
0C
0C
0C
0C
0C
0C
0C
0C
0C
1C
60
80
ENDCHAR
STARTCHAR 3016
ENCODING 12310
SWIDTH 1020 0
DWIDTH 17 0
BBX 8 17 7 -2
BITMAP
FF
C2
C2
C4
C8
C8
D0
D0
D0
D0
D0
D0
C8
C8
C4
C2
FF
ENDCHAR
STARTCHAR 3017
ENCODING 12311
SWIDTH 1020 0
DWIDTH 17 0
BBX 8 17 2 -2
BITMAP
FF
43
43
23
13
13
0B
0B
0B
0B
0B
0B
13
13
23
43
FF
ENDCHAR
STARTCHAR 3018
ENCODING 12312
SWIDTH 1020 0
DWIDTH 17 0
BBX 8 17 7 -2
BITMAP
07
18
18
E3
CC
C8
C8
C8
C8
C8
C8
C8
C8
CC
E3
18
07
ENDCHAR
STARTCHAR 3019
ENCODING 12313
SWIDTH 1020 0
DWIDTH 17 0
BBX 8 17 2 -2
BITMAP
E0
18
18
C7
33
13
13
13
13
13
13
13
13
33
C7
18
E0
ENDCHAR
STARTCHAR 301C
ENCODING 12316
SWIDTH 1020 0
DWIDTH 17 0
BBX 15 4 1 4
BITMAP
3800
4702
81C4
0038
ENDCHAR
STARTCHAR 301D
ENCODING 12317
SWIDTH 1020 0
DWIDTH 17 0
BBX 8 4 7 10
BITMAP
C4
C4
62
11
ENDCHAR
STARTCHAR 301F
ENCODING 12319
SWIDTH 1020 0
DWIDTH 17 0
BBX 8 3 2 -1
BITMAP
88
46
23
ENDCHAR
STARTCHAR 3020
ENCODING 12320
SWIDTH 1020 0
DWIDTH 17 0
BBX 15 15 1 -1
BITMAP
7FFC
7FFC
7FFC
0000
7FFC
7FFC
4384
9392
ABAA
9392
4384
4828
27C8
1830
07C0
ENDCHAR
STARTCHAR 3033
ENCODING 12339
SWIDTH 1020 0
DWIDTH 17 0
BBX 7 16 5 -2
BITMAP
80
80
80
80
40
40
30
30
18
18
04
04
04
02
02
02
ENDCHAR
STARTCHAR 3034
ENCODING 12340
SWIDTH 1020 0
DWIDTH 17 0
BBX 10 16 5 -2
BITMAP
8000
8000
8000
8000
4000
4080
3140
3080
1800
1800
0400
0400
0400
0200
0200
0200
ENDCHAR
STARTCHAR 3035
ENCODING 12341
SWIDTH 1020 0
DWIDTH 17 0
BBX 7 16 5 -1
BITMAP
02
02
02
02
04
04
04
18
18
30
30
40
40
80
80
80
ENDCHAR
STARTCHAR 303B
ENCODING 12347
SWIDTH 1020 0
DWIDTH 17 0
BBX 7 11 6 1
BITMAP
80
60
30
0C
70
80
60
30
08
04
02
ENDCHAR
STARTCHAR 303C
ENCODING 12348
SWIDTH 1020 0
DWIDTH 17 0
BBX 15 15 1 -1
BITMAP
FFFE
FFFE
8006
800A
8012
8022
8042
8182
8302
8402
8802
9002
A002
C002
FFFE
ENDCHAR
STARTCHAR 303D
ENCODING 12349
SWIDTH 1020 0
DWIDTH 17 0
BBX 14 14 2 0
BITMAP
3000
3000
50C0
CB20
0E20
0020
0010
0010
0010
0008
0008
0004
0004
0004
ENDCHAR
STARTCHAR 3041
ENCODING 12353
SWIDTH 1020 0
DWIDTH 17 0
BBX 11 11 3 -2
BITMAP
0C00
0D80
7E00
1000
1F80
3140
5120
8E20
8C20
7040
0180
ENDCHAR
STARTCHAR 3042
ENCODING 12354
SWIDTH 1020 0
DWIDTH 17 0
BBX 14 15 2 -1
BITMAP
0600
0600
0600
06C0
7F00
0800
0840
0FF0
1848
2884
4B04
8604
8808
7010
0060
ENDCHAR
STARTCHAR 3043
ENCODING 12355
SWIDTH 1020 0
DWIDTH 17 0
BBX 11 8 3 -1
BITMAP
8000
8080
8040
8040
8020
4020
5000
2000
ENDCHAR
STARTCHAR 3044
ENCODING 12356
SWIDTH 1020 0
DWIDTH 17 0
BBX 12 11 3 0
BITMAP
8000
8000
8040
8020
8020
8010
8010
8010
4C00
5000
2000
ENDCHAR
STARTCHAR 3045
ENCODING 12357
SWIDTH 1020 0
DWIDTH 17 0
BBX 7 11 6 -2
BITMAP
70
0C
00
3C
E2
02
02
04
04
08
30
ENDCHAR
STARTCHAR 3046
ENCODING 12358
SWIDTH 1020 0
DWIDTH 17 0
BBX 9 15 4 -1
BITMAP
3800
3800
0F00
0000
0000
1F00
E080
0080
0080
0080
0100
0100
0200
0C00
1800
ENDCHAR
STARTCHAR 3047
ENCODING 12359
SWIDTH 1020 0
DWIDTH 17 0
BBX 9 10 4 -2
BITMAP
3800
0E00
0000
1E00
6200
0C00
1C00
2200
4200
8180
ENDCHAR
STARTCHAR 3048
ENCODING 12360
SWIDTH 1020 0
DWIDTH 17 0
BBX 13 14 2 0
BITMAP
0E00
0E00
03C0
0000
03C0
3E40
0080
0300
0600
0F00
1080
2080
4080
8078
ENDCHAR
STARTCHAR 3049
ENCODING 12361
SWIDTH 1020 0
DWIDTH 17 0
BBX 11 10 4 -2
BITMAP
2000
3C80
E040
2020
2F00
3880
6040
A040
A080
6300
ENDCHAR
STARTCHAR 304A
ENCODING 12362
SWIDTH 1020 0
DWIDTH 17 0
BBX 15 14 2 0
BITMAP
1000
1000
1000
1F08
F004
1002
1000
13E0
1E10
3008
5008
9008
9010
6060
ENDCHAR
STARTCHAR 304B
ENCODING 12363
SWIDTH 1020 0
DWIDTH 17 0
BBX 15 14 2 0
BITMAP
0800
0800
0800
0810
0F88
F844
0842
1042
1040
2040
2040
4080
8880
0700
ENDCHAR
STARTCHAR 304C
ENCODING 12364
SWIDTH 1020 0
DWIDTH 17 0
BBX 15 15 2 0
BITMAP
0004
080A
080A
0804
0810
0F88
F844
0842
1042
1040
2040
2040
4080
8880
0700
ENDCHAR
STARTCHAR 304D
ENCODING 12365
SWIDTH 1020 0
DWIDTH 17 0
BBX 11 16 3 -1
BITMAP
0C00
0C00
0C00
0D80
7E00
0600
06E0
7F00
0100
0080
3F40
40C0
8000
8000
6000
1F00
ENDCHAR
STARTCHAR 304E
ENCODING 12366
SWIDTH 1020 0
DWIDTH 17 0
BBX 13 16 3 -1
BITMAP
0C00
0C10
0C10
0DA8
7E10
0600
06E0
7F00
0100
0080
3F40
40C0
8000
8000
6000
1F00
ENDCHAR
STARTCHAR 304F
ENCODING 12367
SWIDTH 1020 0
DWIDTH 17 0
BBX 6 15 5 -1
BITMAP
04
04
04
18
18
30
40
80
40
30
18
18
04
04
04
ENDCHAR
STARTCHAR 3050
ENCODING 12368
SWIDTH 1020 0
DWIDTH 17 0
BBX 10 15 5 -1
BITMAP
0400
0400
0400
1880
1940
3080
4000
8000
4000
3000
1800
1800
0400
0400
0400
ENDCHAR
STARTCHAR 3051
ENCODING 12369
SWIDTH 1020 0
DWIDTH 17 0
BBX 14 15 2 -1
BITMAP
0020
0020
4020
4020
803C
8FE0
8020
8020
8020
8020
8020
A040
4040
4080
0300
ENDCHAR
STARTCHAR 3052
ENCODING 12370
SWIDTH 1020 0
DWIDTH 17 0
BBX 15 16 2 -1
BITMAP
0004
002A
002A
4024
4020
803C
8FE0
8020
8020
8020
8020
8020
A040
4040
4080
0300
ENDCHAR
STARTCHAR 3053
ENCODING 12371
SWIDTH 1020 0
DWIDTH 17 0
BBX 11 12 3 0
BITMAP
3C00
07C0
0100
0600
0000
0000
0000
4000
8000
8000
4000
3FE0
ENDCHAR
STARTCHAR 3054
ENCODING 12372
SWIDTH 1020 0
DWIDTH 17 0
BBX 14 14 3 0
BITMAP
0008
0008
3C14
07C8
0100
0600
0000
0000
0000
4000
8000
8000
4000
3FE0
ENDCHAR
STARTCHAR 3055
ENCODING 12373
SWIDTH 1020 0
DWIDTH 17 0
BBX 11 15 3 -1
BITMAP
0C00
0C00
0C00
06E0
FF00
0100
0080
0080
3F40
40C0
8000
8000
8000
6000
1F00
ENDCHAR
STARTCHAR 3056
ENCODING 12374
SWIDTH 1020 0
DWIDTH 17 0
BBX 12 16 3 -1
BITMAP
0020
0C50
0C50
0C20
06C0
FF00
0100
0080
0080
3F40
40C0
8000
8000
8000
6000
1F00
ENDCHAR
STARTCHAR 3057
ENCODING 12375
SWIDTH 1020 0
DWIDTH 17 0
BBX 10 14 5 0
BITMAP
8000
8000
8000
8000
8000
8000
8000
8000
8000
8000
8040
8080
4300
3C00
ENDCHAR
STARTCHAR 3058
ENCODING 12376
SWIDTH 1020 0
DWIDTH 17 0
BBX 10 14 5 0
BITMAP
8000
8000
8200
8500
8200
8000
8000
8000
8000
8000
8040
8080
4300
3C00
ENDCHAR
STARTCHAR 3059
ENCODING 12377
SWIDTH 1020 0
DWIDTH 17 0
BBX 13 15 2 -1
BITMAP
0080
0080
0080
FFF8
0080
0080
0F80
1080
1080
1380
0E80
0080
0300
0600
1800
ENDCHAR
STARTCHAR 305A
ENCODING 12378
SWIDTH 1020 0
DWIDTH 17 0
BBX 15 16 2 -1
BITMAP
0004
008A
008A
0084
FFF8
0080
0080
0F80
1080
1080
1380
0E80
0080
0300
0600
1800
ENDCHAR
STARTCHAR 305B
ENCODING 12379
SWIDTH 1020 0
DWIDTH 17 0
BBX 15 14 1 0
BITMAP
0020
0020
1020
1020
1020
13FE
FC20
1020
1020
11C0
1000
1000
0800
07F0
ENDCHAR
STARTCHAR 305C
ENCODING 12380
SWIDTH 1020 0
DWIDTH 17 0
BBX 16 14 1 0
BITMAP
0022
0022
1025
1022
1020
13FE
FC20
1020
1020
11C0
1000
1000
0800
07F0
ENDCHAR
STARTCHAR 305D
ENCODING 12381
SWIDTH 1020 0
DWIDTH 17 0
BBX 14 13 2 -1
BITMAP
1FC0
0080
0300
0600
087C
1F80
E300
0600
0800
0800
0800
0600
03E0
ENDCHAR
STARTCHAR 305E
ENCODING 12382
SWIDTH 1020 0
DWIDTH 17 0
BBX 14 13 2 -1
BITMAP
1FC8
0094
0308
0600
087C
1F80
E300
0600
0800
0800
0800
0600
03E0
ENDCHAR
STARTCHAR 305F
ENCODING 12383
SWIDTH 1020 0
DWIDTH 17 0
BBX 14 14 2 0
BITMAP
1000
1000
1000
1F00
F000
1000
10F8
2010
2000
2000
4600
4600
8300
80FC
ENDCHAR
STARTCHAR 3060
ENCODING 12384
SWIDTH 1020 0
DWIDTH 17 0
BBX 14 14 2 0
BITMAP
1008
1008
1014
1F08
F000
1000
10F8
2010
2000
2000
4600
4600
8300
80FC
ENDCHAR
STARTCHAR 3061
ENCODING 12385
SWIDTH 1020 0
DWIDTH 17 0
BBX 12 15 3 -1
BITMAP
0C00
0C00
0C00
0CC0
FF00
1000
1000
2000
27C0
5C20
6010
0010
0020
00C0
0F00
ENDCHAR
STARTCHAR 3062
ENCODING 12386
SWIDTH 1020 0
DWIDTH 17 0
BBX 14 15 3 -1
BITMAP
0C08
0C08
0C14
0CC8
FF00
1000
1000
2000
27C0
5C20
6010
0010
0020
00C0
0F00
ENDCHAR
STARTCHAR 3063
ENCODING 12387
SWIDTH 1020 0
DWIDTH 17 0
BBX 11 8 3 -1
BITMAP
0F80
F040
0020
0020
0020
0040
0180
0E00
ENDCHAR
STARTCHAR 3064
ENCODING 12388
SWIDTH 1020 0
DWIDTH 17 0
BBX 15 10 1 0
BITMAP
03F0
FC08
0004
0002
0002
0002
0004
0008
0030
01C0
ENDCHAR
STARTCHAR 3065
ENCODING 12389
SWIDTH 1020 0
DWIDTH 17 0
BBX 16 14 1 0
BITMAP
0002
0002
0005
0002
03F0
FC08
0004
0002
0002
0002
0004
0008
0030
01C0
ENDCHAR
STARTCHAR 3066
ENCODING 12390
SWIDTH 1020 0
DWIDTH 17 0
BBX 13 12 2 0
BITMAP
0078
FF80
0300
0600
0600
0800
0800
0800
0800
0600
0300
00E0
ENDCHAR
STARTCHAR 3067
ENCODING 12391
SWIDTH 1020 0
DWIDTH 17 0
BBX 13 12 2 0
BITMAP
0078
FF80
0310
0628
0610
0800
0800
0800
0800
0600
0300
00E0
ENDCHAR
STARTCHAR 3068
ENCODING 12392
SWIDTH 1020 0
DWIDTH 17 0
BBX 9 14 4 0
BITMAP
2000
2000
2000
2000
2000
2080
1B00
1C00
2000
4000
8000
8000
4000
3F80
ENDCHAR
STARTCHAR 3069
ENCODING 12393
SWIDTH 1020 0
DWIDTH 17 0
BBX 12 14 4 0
BITMAP
2000
2000
2020
2050
2020
2080
1B00
1C00
2000
4000
8000
8000
4000
3F80
ENDCHAR
STARTCHAR 306A
ENCODING 12394
SWIDTH 1020 0
DWIDTH 17 0
BBX 14 15 2 -1
BITMAP
1000
1000
1000
1F10
F008
1004
2040
2040
4040
8040
0040
07C0
0870
0848
0780
ENDCHAR
STARTCHAR 306B
ENCODING 12395
SWIDTH 1020 0
DWIDTH 17 0
BBX 12 12 3 0
BITMAP
4000
47E0
8040
8000
8000
8000
8000
8000
8600
A600
41F0
4000
ENDCHAR
STARTCHAR 306C
ENCODING 12396
SWIDTH 1020 0
DWIDTH 17 0
BBX 15 14 1 0
BITMAP
0300
0300
2300
2300
27F0
3B08
2304
5304
5404
8C04
8404
8874
718C
0072
ENDCHAR
STARTCHAR 306D
ENCODING 12397
SWIDTH 1020 0
DWIDTH 17 0
BBX 15 15 1 -1
BITMAP
1000
1000
1000
1000
1070
F388
1404
1804
3004
5004
9004
1078
118C
1072
1000
ENDCHAR
STARTCHAR 306E
ENCODING 12398
SWIDTH 1020 0
DWIDTH 17 0
BBX 14 11 2 0
BITMAP
07C0
1B30
2308
4308
4304
8604
8604
8808
4808
3030
00C0
ENDCHAR
STARTCHAR 306F
ENCODING 12399
SWIDTH 1020 0
DWIDTH 17 0
BBX 14 15 2 -1
BITMAP
4020
4020
4020
4020
87FC
8020
8020
8020
8020
8020
8020
83E0
A638
4624
43C0
ENDCHAR
STARTCHAR 3070
ENCODING 12400
SWIDTH 1020 0
DWIDTH 17 0
BBX 15 16 2 -1
BITMAP
0004
402A
402A
4024
4020
87FC
8020
8020
8020
8020
8020
8020
83E0
A638
4624
43C0
ENDCHAR
STARTCHAR 3071
ENCODING 12401
SWIDTH 1020 0
DWIDTH 17 0
BBX 16 16 1 -1
BITMAP
0006
4029
4029
4029
4026
87F8
8020
8020
8020
8020
8020
8020
83E0
A438
4424
43C0
ENDCHAR
STARTCHAR 3072
ENCODING 12402
SWIDTH 1020 0
DWIDTH 17 0
BBX 14 13 2 -1
BITMAP
1E00
E820
1030
1028
2024
2020
4020
4020
4020
4040
4040
2080
1F00
ENDCHAR
STARTCHAR 3073
ENCODING 12403
SWIDTH 1020 0
DWIDTH 17 0
BBX 15 16 2 -1
BITMAP
0004
000A
000A
1E04
E820
1030
1028
2024
2020
4020
4020
4020
4040
4040
2080
1F00
ENDCHAR
STARTCHAR 3074
ENCODING 12404
SWIDTH 1020 0
DWIDTH 17 0
BBX 15 16 2 -1
BITMAP
000C
0012
0012
1E12
E82C
1030
1028
2024
2020
4020
4020
4020
4040
4040
2080
1F00
ENDCHAR
STARTCHAR 3075
ENCODING 12405
SWIDTH 1020 0
DWIDTH 17 0
BBX 16 14 1 0
BITMAP
0300
0300
0180
0040
0040
0180
0300
0300
0180
0048
1024
2022
4841
8781
ENDCHAR
STARTCHAR 3076
ENCODING 12406
SWIDTH 1020 0
DWIDTH 17 0
BBX 16 14 1 0
BITMAP
0300
0300
0180
0040
0048
0194
0308
0300
0180
0048
1024
2022
4841
8781
ENDCHAR
STARTCHAR 3077
ENCODING 12407
SWIDTH 1020 0
DWIDTH 17 0
BBX 16 14 1 0
BITMAP
0300
0300
0180
004C
0052
0192
030C
0300
0180
0048
1024
2022
4841
8781
ENDCHAR
STARTCHAR 3078
ENCODING 12408
SWIDTH 1020 0
DWIDTH 17 0
BBX 15 7 1 2
BITMAP
0C00
1300
2180
C040
0020
0018
0006
ENDCHAR
STARTCHAR 3079
ENCODING 12409
SWIDTH 1020 0
DWIDTH 17 0
BBX 15 9 1 2
BITMAP
0010
0028
0C10
1300
2180
C040
0020
0018
0006
ENDCHAR
STARTCHAR 307A
ENCODING 12410
SWIDTH 1020 0
DWIDTH 17 0
BBX 15 9 1 2
BITMAP
0030
0048
0C48
1330
2180
C040
0020
0018
0006
ENDCHAR
STARTCHAR 307B
ENCODING 12411
SWIDTH 1020 0
DWIDTH 17 0
BBX 14 15 2 -1
BITMAP
4000
4000
47F8
4020
8020
8020
87F8
8020
8020
8020
8020
83E0
A638
4624
43C0
ENDCHAR
STARTCHAR 307C
ENCODING 12412
SWIDTH 1020 0
DWIDTH 17 0
BBX 15 16 2 -1
BITMAP
0004
400A
400A
47F4
4020
8020
8020
87F8
8020
8020
8020
8020
83E0
A638
4624
43C0
ENDCHAR
STARTCHAR 307D
ENCODING 12413
SWIDTH 1020 0
DWIDTH 17 0
BBX 15 16 2 -1
BITMAP
000C
4012
4012
47F2
402C
8020
8020
87F8
8020
8020
8020
8020
83E0
A638
4624
43C0
ENDCHAR
STARTCHAR 307E
ENCODING 12414
SWIDTH 1020 0
DWIDTH 17 0
BBX 11 15 3 -1
BITMAP
0600
0600
0600
FFE0
0600
0600
0600
7FC0
0600
0600
0600
7F00
86C0
8620
7C00
ENDCHAR
STARTCHAR 307F
ENCODING 12415
SWIDTH 1020 0
DWIDTH 17 0
BBX 15 13 2 -1
BITMAP
3F00
0300
0300
0310
0610
0610
1FF0
681C
8822
9020
6040
0080
0300
ENDCHAR
STARTCHAR 3080
ENCODING 12416
SWIDTH 1020 0
DWIDTH 17 0
BBX 14 15 2 -1
BITMAP
0800
0800
0800
0F90
F808
0804
0800
3800
4800
4800
5000
3008
1008
1008
0FF0
ENDCHAR
STARTCHAR 3081
ENCODING 12417
SWIDTH 1020 0
DWIDTH 17 0
BBX 15 15 1 -1
BITMAP
0040
0040
1040
1040
17E0
1858
1184
3184
4B02
4B02
8402
8404
4B04
3018
0060
ENDCHAR
STARTCHAR 3082
ENCODING 12418
SWIDTH 1020 0
DWIDTH 17 0
BBX 11 15 3 -1
BITMAP
1000
1000
1000
1000
FE00
1000
1000
1040
FE20
2020
2020
2020
2020
1040
0F80
ENDCHAR
STARTCHAR 3083
ENCODING 12419
SWIDTH 1020 0
DWIDTH 17 0
BBX 11 10 3 -2
BITMAP
0C00
47C0
2E20
3020
D020
11C0
0C00
0C00
0600
0600
ENDCHAR
STARTCHAR 3084
ENCODING 12420
SWIDTH 1020 0
DWIDTH 17 0
BBX 15 15 1 -1
BITMAP
0300
0300
0180
2040
2078
1384
0C02
3802
C404
0418
0300
0300
0180
0180
0180
ENDCHAR
STARTCHAR 3085
ENCODING 12421
SWIDTH 1020 0
DWIDTH 17 0
BBX 11 11 3 -2
BITMAP
0600
0100
4F80
5140
A120
A120
4140
4F80
0600
0600
0C00
ENDCHAR
STARTCHAR 3086
ENCODING 12422
SWIDTH 1020 0
DWIDTH 17 0
BBX 14 15 2 -1
BITMAP
0300
0300
0080
4080
43F0
8E88
9084
A084
C084
8884
4688
43F0
0080
0300
0600
ENDCHAR
STARTCHAR 3087
ENCODING 12423
SWIDTH 1020 0
DWIDTH 17 0
BBX 9 10 4 -1
BITMAP
0C00
0C00
0F80
0C00
0C00
0C00
7C00
8F00
8C80
7800
ENDCHAR
STARTCHAR 3088
ENCODING 12424
SWIDTH 1020 0
DWIDTH 17 0
BBX 11 15 3 -1
BITMAP
0600
0600
0600
0600
07E0
0600
0600
0600
0600
0600
0600
7F00
86C0
8620
7C00
ENDCHAR
STARTCHAR 3089
ENCODING 12425
SWIDTH 1020 0
DWIDTH 17 0
BBX 11 15 4 -1
BITMAP
1C00
1C00
0300
0000
4000
4000
4000
4000
9F80
E040
8020
0020
0040
0180
3E00
ENDCHAR
STARTCHAR 308A
ENCODING 12426
SWIDTH 1020 0
DWIDTH 17 0
BBX 9 15 4 -1
BITMAP
0080
0080
8080
8080
8080
8080
8080
A080
C080
4080
0080
0100
0100
0200
1C00
ENDCHAR
STARTCHAR 308B
ENCODING 12427
SWIDTH 1020 0
DWIDTH 17 0
BBX 12 13 3 -1
BITMAP
3FC0
0080
0100
0600
0C00
17C0
3C20
4010
8010
0E10
1120
10C0
0F80
ENDCHAR
STARTCHAR 308C
ENCODING 12428
SWIDTH 1020 0
DWIDTH 17 0
BBX 15 15 1 -1
BITMAP
1000
1000
1000
1000
11E0
FB10
1410
1810
3010
3010
5010
9010
1012
100C
1000
ENDCHAR
STARTCHAR 308D
ENCODING 12429
SWIDTH 1020 0
DWIDTH 17 0
BBX 12 13 3 -1
BITMAP
3FC0
0080
0100
0600
0C00
17C0
3C20
4010
8010
0010
0020
00C0
0F00
ENDCHAR
STARTCHAR 308E
ENCODING 12430
SWIDTH 1020 0
DWIDTH 17 0
BBX 12 10 3 -2
BITMAP
1000
1000
F1C0
1620
1C10
1010
3010
5010
9020
1040
ENDCHAR
STARTCHAR 308F
ENCODING 12431
SWIDTH 1020 0
DWIDTH 17 0
BBX 14 15 2 -1
BITMAP
1000
1000
1000
1000
F800
13F0
1608
1804
1004
3004
5004
9008
1010
1060
1000
ENDCHAR
STARTCHAR 3090
ENCODING 12432
SWIDTH 1020 0
DWIDTH 17 0
BBX 13 14 2 0
BITMAP
0F00
0F00
3300
0300
0600
0600
0FC0
3830
4808
8808
9008
9390
9650
63E0
ENDCHAR
STARTCHAR 3091
ENCODING 12433
SWIDTH 1020 0
DWIDTH 17 0
BBX 16 14 1 0
BITMAP
0FE0
0FE0
0040
0180
03E0
0C10
1008
0788
0850
07E0
1804
2402
4321
81C1
ENDCHAR
STARTCHAR 3092
ENCODING 12434
SWIDTH 1020 0
DWIDTH 17 0
BBX 12 15 3 0
BITMAP
0C00
0C00
0C00
0D80
FE00
1000
1000
3E00
4130
81C0
0F00
1100
2000
2000
1FC0
ENDCHAR
STARTCHAR 3093
ENCODING 12435
SWIDTH 1020 0
DWIDTH 17 0
BBX 13 14 3 0
BITMAP
0C00
0C00
0C00
0C00
1000
1000
1000
2000
2E00
3100
4100
4108
8110
80E0
ENDCHAR
STARTCHAR 3094
ENCODING 12436
SWIDTH 1020 0
DWIDTH 17 0
BBX 12 15 4 -1
BITMAP
3820
3820
0F50
0020
0000
3F00
C080
0080
0080
0080
0100
0100
0200
0C00
1800
ENDCHAR
STARTCHAR 3095
ENCODING 12437
SWIDTH 1020 0
DWIDTH 17 0
BBX 12 11 3 -2
BITMAP
1000
1000
1000
1E40
F120
1110
2110
2100
4100
8600
1C00
ENDCHAR
STARTCHAR 3096
ENCODING 12438
SWIDTH 1020 0
DWIDTH 17 0
BBX 11 11 4 -2
BITMAP
0080
4080
4080
8FE0
8080
8080
8080
8080
A080
4100
0E00
ENDCHAR
STARTCHAR 309B
ENCODING 12443
SWIDTH 1020 0
DWIDTH 17 0
BBX 3 3 1 12
BITMAP
A0
A0
A0
ENDCHAR
STARTCHAR 309C
ENCODING 12444
SWIDTH 1020 0
DWIDTH 17 0
BBX 4 4 0 8
BITMAP
60
90
90
60
ENDCHAR
STARTCHAR 309D
ENCODING 12445
SWIDTH 1020 0
DWIDTH 17 0
BBX 9 7 4 2
BITMAP
C000
3800
0E00
0100
0080
0100
0E00
ENDCHAR
STARTCHAR 309E
ENCODING 12446
SWIDTH 1020 0
DWIDTH 17 0
BBX 9 9 4 2
BITMAP
0100
0280
C100
3800
0E00
0100
0080
0100
0E00
ENDCHAR
STARTCHAR 309F
ENCODING 12447
SWIDTH 1020 0
DWIDTH 17 0
BBX 11 16 3 -1
BITMAP
0600
0600
0600
0C00
0FE0
0C00
1000
1000
1780
3C40
2020
2020
4020
4020
9C40
8780
ENDCHAR
STARTCHAR 30A0
ENCODING 12448
SWIDTH 1020 0
DWIDTH 17 0
BBX 7 5 5 4
BITMAP
FE
00
00
00
FE
ENDCHAR
STARTCHAR 30A1
ENCODING 12449
SWIDTH 1020 0
DWIDTH 17 0
BBX 8 8 4 -2
BITMAP
FF
01
1A
18
18
18
20
40
ENDCHAR
STARTCHAR 30A2
ENCODING 12450
SWIDTH 1020 0
DWIDTH 17 0
BBX 12 11 3 0
BITMAP
FFF0
0010
0620
0640
0600
0600
0600
0C00
0C00
1000
2000
ENDCHAR
STARTCHAR 30A3
ENCODING 12451
SWIDTH 1020 0
DWIDTH 17 0
BBX 8 10 4 -2
BITMAP
01
01
02
1C
EC
0C
0C
0C
0C
0C
ENDCHAR
STARTCHAR 30A4
ENCODING 12452
SWIDTH 1020 0
DWIDTH 17 0
BBX 10 13 3 -1
BITMAP
0040
0040
0080
0100
0600
0E00
3600
C600
0600
0600
0600
0600
0600
ENDCHAR
STARTCHAR 30A5
ENCODING 12453
SWIDTH 1020 0
DWIDTH 17 0
BBX 10 11 4 -1
BITMAP
0C00
0C00
0C00
FFC0
8040
8040
0040
0080
0080
0300
1C00
ENDCHAR
STARTCHAR 30A6
ENCODING 12454
SWIDTH 1020 0
DWIDTH 17 0
BBX 12 14 3 0
BITMAP
0600
0600
0600
0600
FFF0
8010
8010
8010
0010
0020
0020
0040
0180
0E00
ENDCHAR
STARTCHAR 30A7
ENCODING 12455
SWIDTH 1020 0
DWIDTH 17 0
BBX 10 6 4 -1
BITMAP
7F80
0C00
0C00
0C00
0C00
FFC0
ENDCHAR
STARTCHAR 30A8
ENCODING 12456
SWIDTH 1020 0
DWIDTH 17 0
BBX 14 9 2 1
BITMAP
3FF0
0300
0300
0300
0300
0300
0300
0300
FFFC
ENDCHAR
STARTCHAR 30A9
ENCODING 12457
SWIDTH 1020 0
DWIDTH 17 0
BBX 9 10 5 -2
BITMAP
0200
0200
FF80
0200
0600
1A00
3200
C200
0200
0600
ENDCHAR
STARTCHAR 30AA
ENCODING 12458
SWIDTH 1020 0
DWIDTH 17 0
BBX 14 14 2 0
BITMAP
0040
0040
0040
0040
FFFC
0040
00C0
0340
0640
0840
3040
C040
0040
03C0
ENDCHAR
STARTCHAR 30AB
ENCODING 12459
SWIDTH 1020 0
DWIDTH 17 0
BBX 13 15 2 0
BITMAP
0600
0600
0600
0600
0600
FFF8
0608
0608
0808
0808
1008
1008
2010
4010
80E0
ENDCHAR
STARTCHAR 30AC
ENCODING 12460
SWIDTH 1020 0
DWIDTH 17 0
BBX 15 15 2 0
BITMAP
0604
060A
060A
0604
0600
FFF8
0608
0608
0808
0808
1008
1008
2010
4010
80E0
ENDCHAR
STARTCHAR 30AD
ENCODING 12461
SWIDTH 1020 0
DWIDTH 17 0
BBX 14 15 2 -1
BITMAP
0600
0600
0600
0600
03F0
7F00
0300
0300
03FC
FF00
0080
0080
0080
0080
0080
ENDCHAR
STARTCHAR 30AE
ENCODING 12462
SWIDTH 1020 0
DWIDTH 17 0
BBX 14 15 2 -1
BITMAP
0608
0608
0614
0608
03F0
7F00
0300
0300
03FC
FF00
0080
0080
0080
0080
0080
ENDCHAR
STARTCHAR 30AF
ENCODING 12463
SWIDTH 1020 0
DWIDTH 17 0
BBX 10 14 4 0
BITMAP
1800
1800
1800
1FC0
2040
2040
4080
8080
0100
0100
0200
0C00
3800
C000
ENDCHAR
STARTCHAR 30B0
ENCODING 12464
SWIDTH 1020 0
DWIDTH 17 0
BBX 13 15 4 0
BITMAP
0010
1828
1828
1810
1FC0
2040
2040
4080
8080
0100
0100
0200
0C00
3800
C000
ENDCHAR
STARTCHAR 30B1
ENCODING 12465
SWIDTH 1020 0
DWIDTH 17 0
BBX 14 14 2 0
BITMAP
0800
0800
0800
0800
1000
1FFC
2020
4020
8020
0040
0040
0080
0300
0E00
ENDCHAR
STARTCHAR 30B2
ENCODING 12466
SWIDTH 1020 0
DWIDTH 17 0
BBX 15 14 2 0
BITMAP
0804
0804
080A
0804
1000
1FFC
2020
4020
8020
0040
0040
0080
0300
0E00
ENDCHAR
STARTCHAR 30B3
ENCODING 12467
SWIDTH 1020 0
DWIDTH 17 0
BBX 11 10 3 0
BITMAP
FFE0
0020
0020
0020
0020
0020
0020
0020
FFE0
0020
ENDCHAR
STARTCHAR 30B4
ENCODING 12468
SWIDTH 1020 0
DWIDTH 17 0
BBX 14 14 3 0
BITMAP
0008
0008
0014
0008
FFE0
0020
0020
0020
0020
0020
0020
0020
FFE0
0020
ENDCHAR
STARTCHAR 30B5
ENCODING 12469
SWIDTH 1020 0
DWIDTH 17 0
BBX 14 15 2 -1
BITMAP
0020
0020
1020
1020
1020
FFFC
1020
1020
1020
1020
0020
0040
0040
0080
0700
ENDCHAR
STARTCHAR 30B6
ENCODING 12470
SWIDTH 1020 0
DWIDTH 17 0
BBX 15 16 2 -1
BITMAP
0004
002A
002A
1024
1020
1020
FFFC
1020
1020
1020
1020
0020
0040
0040
0080
0700
ENDCHAR
STARTCHAR 30B7
ENCODING 12471
SWIDTH 1020 0
DWIDTH 17 0
BBX 12 12 3 0
BITMAP
4000
3000
0000
0000
8000
6010
0020
0040
0080
0100
0E00
7000
ENDCHAR
STARTCHAR 30B8
ENCODING 12472
SWIDTH 1020 0
DWIDTH 17 0
BBX 12 14 3 0
BITMAP
0020
0020
6050
1020
0000
0000
C000
2010
0020
0040
0080
0100
0E00
7000
ENDCHAR
STARTCHAR 30B9
ENCODING 12473
SWIDTH 1020 0
DWIDTH 17 0
BBX 12 11 3 0
BITMAP
7FC0
0040
0040
0080
0080
0100
0680
0C40
1020
2010
C010
ENDCHAR
STARTCHAR 30BA
ENCODING 12474
SWIDTH 1020 0
DWIDTH 17 0
BBX 14 14 3 0
BITMAP
0008
0008
0014
7FC8
0040
0040
0080
0080
0100
0680
0C40
1020
2010
C010
ENDCHAR
STARTCHAR 30BB
ENCODING 12475
SWIDTH 1020 0
DWIDTH 17 0
BBX 13 13 2 1
BITMAP
1000
1000
1000
1000
10F0
1F18
F020
1040
1080
1000
1000
1000
0FE0
ENDCHAR
STARTCHAR 30BC
ENCODING 12476
SWIDTH 1020 0
DWIDTH 17 0
BBX 15 13 2 1
BITMAP
1004
1004
100A
1004
10F0
1F18
F020
1040
1080
1000
1000
1000
0FE0
ENDCHAR
STARTCHAR 30BD
ENCODING 12477
SWIDTH 1020 0
DWIDTH 17 0
BBX 11 12 3 0
BITMAP
8020
8020
4020
4020
2040
0040
0080
0080
0100
0600
0C00
1000
ENDCHAR
STARTCHAR 30BE
ENCODING 12478
SWIDTH 1020 0
DWIDTH 17 0
BBX 14 15 3 0
BITMAP
0008
0014
0014
8008
8020
4020
4020
2040
0040
0080
0080
0100
0600
0C00
1000
ENDCHAR
STARTCHAR 30BF
ENCODING 12479
SWIDTH 1020 0
DWIDTH 17 0
BBX 10 14 4 0
BITMAP
1800
1800
1800
1FC0
2040
2040
4080
B880
0F00
0100
0280
0C00
3800
C000
ENDCHAR
STARTCHAR 30C0
ENCODING 12480
SWIDTH 1020 0
DWIDTH 17 0
BBX 13 15 4 0
BITMAP
0010
1828
1828
1810
1FC0
2040
2040
4080
B880
0F00
0100
0280
0C00
3800
C000
ENDCHAR
STARTCHAR 30C1
ENCODING 12481
SWIDTH 1020 0
DWIDTH 17 0
BBX 15 15 1 -1
BITMAP
0010
0010
01E0
3F00
0180
0180
0180
FFFE
0180
0180
0180
0300
0300
0400
0800
ENDCHAR
STARTCHAR 30C2
ENCODING 12482
SWIDTH 1020 0
DWIDTH 17 0
BBX 15 15 1 -1
BITMAP
0010
0010
01E4
3F0A
0184
0180
0180
FFFE
0180
0180
0180
0300
0300
0400
0800
ENDCHAR
STARTCHAR 30C3
ENCODING 12483
SWIDTH 1020 0
DWIDTH 17 0
BBX 10 8 4 -2
BITMAP
1800
8C40
4C40
4080
0080
0100
0200
0C00
ENDCHAR
STARTCHAR 30C4
ENCODING 12484
SWIDTH 1020 0
DWIDTH 17 0
BBX 13 13 2 -1
BITMAP
0800
0800
8608
4608
4010
0010
0020
0020
0040
0080
0300
0600
0800
ENDCHAR
STARTCHAR 30C5
ENCODING 12485
SWIDTH 1020 0
DWIDTH 17 0
BBX 15 16 2 -1
BITMAP
0004
000A
000A
0804
0800
8608
4608
4010
0010
0020
0020
0040
0080
0300
0600
0800
ENDCHAR
STARTCHAR 30C6
ENCODING 12486
SWIDTH 1020 0
DWIDTH 17 0
BBX 14 12 2 0
BITMAP
3FF0
0000
0000
0000
FFFC
0080
0080
0080
0300
0300
0600
1800
ENDCHAR
STARTCHAR 30C7
ENCODING 12487
SWIDTH 1020 0
DWIDTH 17 0
BBX 15 15 2 0
BITMAP
0004
000A
000A
3FE4
0000
0000
0000
FFFC
0080
0080
0080
0300
0300
0600
1800
ENDCHAR
STARTCHAR 30C8
ENCODING 12488
SWIDTH 1020 0
DWIDTH 17 0
BBX 8 15 6 -1
BITMAP
80
80
80
80
80
80
F8
86
81
80
80
80
80
80
80
ENDCHAR
STARTCHAR 30C9
ENCODING 12489
SWIDTH 1020 0
DWIDTH 17 0
BBX 9 15 6 -1
BITMAP
8000
8000
8100
8280
8100
8000
F800
8600
8100
8000
8000
8000
8000
8000
8000
ENDCHAR
STARTCHAR 30CA
ENCODING 12490
SWIDTH 1020 0
DWIDTH 17 0
BBX 13 15 2 -1
BITMAP
0300
0300
0300
0300
0300
FFF8
0300
0300
0300
0300
0600
0600
0800
1000
2000
ENDCHAR
STARTCHAR 30CB
ENCODING 12491
SWIDTH 1020 0
DWIDTH 17 0
BBX 14 8 2 2
BITMAP
3FF0
0000
0000
0000
0000
0000
0000
FFFC
ENDCHAR
STARTCHAR 30CC
ENCODING 12492
SWIDTH 1020 0
DWIDTH 17 0
BBX 11 11 3 0
BITMAP
7FC0
0040
0040
0080
1080
0D00
0600
0D00
1080
2040
C020
ENDCHAR
STARTCHAR 30CD
ENCODING 12493
SWIDTH 1020 0
DWIDTH 17 0
BBX 14 15 2 -1
BITMAP
0300
0300
0300
0300
3FE0
0020
00C0
0300
0F30
3308
C304
0300
0300
0300
0300
ENDCHAR
STARTCHAR 30CE
ENCODING 12494
SWIDTH 1020 0
DWIDTH 17 0
BBX 10 12 3 0
BITMAP
0040
0040
0040
0040
0080
0080
0100
0100
0600
0C00
3000
C000
ENDCHAR
STARTCHAR 30CF
ENCODING 12495
SWIDTH 1020 0
DWIDTH 17 0
BBX 15 9 1 1
BITMAP
0800
0840
0820
1010
1008
2004
2004
4002
8002
ENDCHAR
STARTCHAR 30D0
ENCODING 12496
SWIDTH 1020 0
DWIDTH 17 0
BBX 15 11 1 1
BITMAP
0004
000A
0804
0840
0820
1010
1008
2004
2004
4002
8002
ENDCHAR
STARTCHAR 30D1
ENCODING 12497
SWIDTH 1020 0
DWIDTH 17 0
BBX 15 11 1 1
BITMAP
000C
0012
0812
084C
0820
1010
1008
2004
2004
4002
8002
ENDCHAR
STARTCHAR 30D2
ENCODING 12498
SWIDTH 1020 0
DWIDTH 17 0
BBX 10 12 4 0
BITMAP
8000
8000
8040
8180
8E00
F800
8000
8000
8000
8000
8000
7FC0
ENDCHAR
STARTCHAR 30D3
ENCODING 12499
SWIDTH 1020 0
DWIDTH 17 0
BBX 11 14 4 0
BITMAP
0040
0040
80A0
8040
8000
8080
8F00
F800
8000
8000
8000
8000
8000
7F80
ENDCHAR
STARTCHAR 30D4
ENCODING 12500
SWIDTH 1020 0
DWIDTH 17 0
BBX 11 14 4 0
BITMAP
00C0
00C0
8120
8120
80C0
8080
8F00
F800
8000
8000
8000
8000
8000
7F80
ENDCHAR
STARTCHAR 30D5
ENCODING 12501
SWIDTH 1020 0
DWIDTH 17 0
BBX 12 11 3 0
BITMAP
FFF0
0010
0010
0010
0020
0020
0040
0080
0100
0E00
3000
ENDCHAR
STARTCHAR 30D6
ENCODING 12502
SWIDTH 1020 0
DWIDTH 17 0
BBX 14 15 3 0
BITMAP
0008
0014
0014
0008
FFF0
0010
0010
0010
0020
0020
0040
0080
0100
0E00
3000
ENDCHAR
STARTCHAR 30D7
ENCODING 12503
SWIDTH 1020 0
DWIDTH 17 0
BBX 14 15 3 0
BITMAP
0018
0024
0024
0024
FFF8
0010
0010
0010
0020
0020
0040
0080
0100
0E00
3000
ENDCHAR
STARTCHAR 30D8
ENCODING 12504
SWIDTH 1020 0
DWIDTH 17 0
BBX 15 7 1 2
BITMAP
0C00
1300
2180
4040
8020
0018
0006
ENDCHAR
STARTCHAR 30D9
ENCODING 12505
SWIDTH 1020 0
DWIDTH 17 0
BBX 15 8 1 2
BITMAP
0010
0C28
1310
2180
4040
8020
0018
0006
ENDCHAR
STARTCHAR 30DA
ENCODING 12506
SWIDTH 1020 0
DWIDTH 17 0
BBX 15 9 1 2
BITMAP
0030
0048
0C48
1330
2180
4040
8020
0018
0006
ENDCHAR
STARTCHAR 30DB
ENCODING 12507
SWIDTH 1020 0
DWIDTH 17 0
BBX 14 14 2 0
BITMAP
0300
0300
0300
0300
7FF8
0300
0300
0300
2310
2308
4304
8304
0300
0F00
ENDCHAR
STARTCHAR 30DC
ENCODING 12508
SWIDTH 1020 0
DWIDTH 17 0
BBX 15 14 2 0
BITMAP
0304
0304
030A
0304
7FF8
0300
0300
0300
2310
2308
4304
8304
0300
0F00
ENDCHAR
STARTCHAR 30DD
ENCODING 12509
SWIDTH 1020 0
DWIDTH 17 0
BBX 15 15 2 0
BITMAP
000C
0312
0312
0312
030C
7FF0
0300
0300
0300
2310
2308
4304
8304
0300
0F00
ENDCHAR
STARTCHAR 30DE
ENCODING 12510
SWIDTH 1020 0
DWIDTH 17 0
BBX 13 10 2 1
BITMAP
FFF8
0008
0010
0010
0020
3040
0E80
0300
0080
0040
ENDCHAR
STARTCHAR 30DF
ENCODING 12511
SWIDTH 1020 0
DWIDTH 17 0
BBX 9 13 4 -1
BITMAP
3C00
0300
0080
0000
3800
0E00
0100
0000
0000
E000
1C00
0300
0080
ENDCHAR
STARTCHAR 30E0
ENCODING 12512
SWIDTH 1020 0
DWIDTH 17 0
BBX 13 12 2 0
BITMAP
0800
0800
0800
0800
0800
0800
1040
1020
1010
2070
2788
F808
ENDCHAR
STARTCHAR 30E1
ENCODING 12513
SWIDTH 1020 0
DWIDTH 17 0
BBX 11 12 3 0
BITMAP
0020
0020
0020
0040
1C40
0680
0180
0140
0620
0C00
3000
C000
ENDCHAR
STARTCHAR 30E2
ENCODING 12514
SWIDTH 1020 0
DWIDTH 17 0
BBX 13 11 2 0
BITMAP
7FE0
0800
0800
0800
FFF8
0800
0800
0800
0800
0800
07E0
ENDCHAR
STARTCHAR 30E3
ENCODING 12515
SWIDTH 1020 0
DWIDTH 17 0
BBX 11 11 3 -2
BITMAP
2000
2000
10E0
1F20
F040
0C80
0C00
0C00
0600
0600
0600
ENDCHAR
STARTCHAR 30E4
ENCODING 12516
SWIDTH 1020 0
DWIDTH 17 0
BBX 14 13 2 -1
BITMAP
2000
2000
1038
13C4
1E08
E810
0820
0600
0600
0600
0300
0300
0300
ENDCHAR
STARTCHAR 30E5
ENCODING 12517
SWIDTH 1020 0
DWIDTH 17 0
BBX 11 7 3 -1
BITMAP
3F00
0100
0100
0100
0600
0600
FFE0
ENDCHAR
STARTCHAR 30E6
ENCODING 12518
SWIDTH 1020 0
DWIDTH 17 0
BBX 14 9 2 1
BITMAP
3FE0
0020
0020
0020
0020
0040
0040
0040
FFFC
ENDCHAR
STARTCHAR 30E7
ENCODING 12519
SWIDTH 1020 0
DWIDTH 17 0
BBX 7 9 5 -2
BITMAP
FE
02
02
FE
02
02
02
FE
02
ENDCHAR
STARTCHAR 30E8
ENCODING 12520
SWIDTH 1020 0
DWIDTH 17 0
BBX 10 12 3 0
BITMAP
FFC0
0040
0040
0040
0040
7FC0
0040
0040
0040
0040
FFC0
0040
ENDCHAR
STARTCHAR 30E9
ENCODING 12521
SWIDTH 1020 0
DWIDTH 17 0
BBX 12 12 3 0
BITMAP
3FC0
0000
0000
0000
FFF0
0010
0020
0020
0040
0080
0700
1C00
ENDCHAR
STARTCHAR 30EA
ENCODING 12522
SWIDTH 1020 0
DWIDTH 17 0
BBX 9 15 4 -1
BITMAP
0080
0080
8080
8080
8080
8080
8080
8080
8080
0080
0080
0100
0100
0200
1C00
ENDCHAR
STARTCHAR 30EB
ENCODING 12523
SWIDTH 1020 0
DWIDTH 17 0
BBX 16 12 1 0
BITMAP
0040
0040
0840
0840
0840
0840
0840
1040
1041
2042
404C
8070
ENDCHAR
STARTCHAR 30EC
ENCODING 12524
SWIDTH 1020 0
DWIDTH 17 0
BBX 9 12 5 0
BITMAP
8000
8000
8000
8000
8000
8000
8000
8080
8100
8200
9C00
F000
ENDCHAR
STARTCHAR 30ED
ENCODING 12525
SWIDTH 1020 0
DWIDTH 17 0
BBX 11 10 3 0
BITMAP
FFE0
8020
8020
8020
8020
8020
8020
8020
FFE0
8020
ENDCHAR
STARTCHAR 30EE
ENCODING 12526
SWIDTH 1020 0
DWIDTH 17 0
BBX 9 9 4 -2
BITMAP
FF80
8080
8080
8080
0080
0100
0100
0200
1C00
ENDCHAR
STARTCHAR 30EF
ENCODING 12527
SWIDTH 1020 0
DWIDTH 17 0
BBX 12 12 3 -1
BITMAP
FFF0
8010
8010
8010
8010
0010
0010
0020
0020
0040
0180
0E00
ENDCHAR
STARTCHAR 30F0
ENCODING 12528
SWIDTH 1020 0
DWIDTH 17 0
BBX 14 15 2 -1
BITMAP
0040
0040
0040
0040
3FF8
1040
1040
1040
1040
FFFC
0040
0040
0040
0040
0040
ENDCHAR
STARTCHAR 30F1
ENCODING 12529
SWIDTH 1020 0
DWIDTH 17 0
BBX 14 9 2 1
BITMAP
3FF0
0010
0020
0340
0300
0300
0300
0300
FFFC
ENDCHAR
STARTCHAR 30F2
ENCODING 12530
SWIDTH 1020 0
DWIDTH 17 0
BBX 11 11 3 0
BITMAP
7FE0
0020
0020
FFE0
0020
0040
0040
0080
0100
0E00
3000
ENDCHAR
STARTCHAR 30F3
ENCODING 12531
SWIDTH 1020 0
DWIDTH 17 0
BBX 12 11 3 0
BITMAP
C000
2000
1010
0010
0020
0020
0040
0080
0100
0E00
7000
ENDCHAR
STARTCHAR 30F4
ENCODING 12532
SWIDTH 1020 0
DWIDTH 17 0
BBX 14 15 3 0
BITMAP
0008
0614
0614
0608
0600
FFF0
8010
8010
8010
0010
0020
0020
0040
0180
0E00
ENDCHAR
STARTCHAR 30F5
ENCODING 12533
SWIDTH 1020 0
DWIDTH 17 0
BBX 10 11 4 -2
BITMAP
0C00
0C00
0C00
FFC0
0C40
1840
1840
2040
4080
8080
0300
ENDCHAR
STARTCHAR 30F6
ENCODING 12534
SWIDTH 1020 0
DWIDTH 17 0
BBX 11 11 4 -2
BITMAP
2000
2000
2000
7FE0
4100
8100
0100
0200
0200
0C00
3800
ENDCHAR
STARTCHAR 30F7
ENCODING 12535
SWIDTH 1020 0
DWIDTH 17 0
BBX 14 16 3 -1
BITMAP
0008
0014
0014
0008
FFF0
8010
8010
8010
8010
0010
0010
0020
0020
0040
0180
0E00
ENDCHAR
STARTCHAR 30F8
ENCODING 12536
SWIDTH 1020 0
DWIDTH 17 0
BBX 15 15 2 -1
BITMAP
0044
0044
004A
0044
3FF8
1040
1040
1040
1040
FFFC
0040
0040
0040
0040
0040
ENDCHAR
STARTCHAR 30F9
ENCODING 12537
SWIDTH 1020 0
DWIDTH 17 0
BBX 15 13 2 1
BITMAP
0004
0004
000A
0004
3FF0
0010
0020
0340
0300
0300
0300
0300
FFFC
ENDCHAR
STARTCHAR 30FA
ENCODING 12538
SWIDTH 1020 0
DWIDTH 17 0
BBX 14 15 3 0
BITMAP
0008
0014
0014
0008
7FE0
0020
0020
FFE0
0020
0040
0040
0080
0100
0E00
3000
ENDCHAR
STARTCHAR 30FB
ENCODING 12539
SWIDTH 1020 0
DWIDTH 17 0
BBX 3 2 7 5
BITMAP
E0
E0
ENDCHAR
STARTCHAR 30FC
ENCODING 12540
SWIDTH 1020 0
DWIDTH 17 0
BBX 14 2 2 5
BITMAP
8000
7FFC
ENDCHAR
STARTCHAR 30FD
ENCODING 12541
SWIDTH 1020 0
DWIDTH 17 0
BBX 8 6 5 3
BITMAP
C0
38
04
02
01
01
ENDCHAR
STARTCHAR 30FE
ENCODING 12542
SWIDTH 1020 0
DWIDTH 17 0
BBX 9 8 5 3
BITMAP
0100
0280
C100
3800
0400
0200
0100
0100
ENDCHAR
STARTCHAR 30FF
ENCODING 12543
SWIDTH 1020 0
DWIDTH 17 0
BBX 11 13 3 -1
BITMAP
FFE0
0020
0020
0020
0020
0020
0020
0020
0020
0020
0020
0020
0020
ENDCHAR
STARTCHAR 31F0
ENCODING 12784
SWIDTH 1020 0
DWIDTH 17 0
BBX 8 11 5 -2
BITMAP
30
30
3F
41
81
01
02
02
04
38
C0
ENDCHAR
STARTCHAR 31F1
ENCODING 12785
SWIDTH 1020 0
DWIDTH 17 0
BBX 11 10 3 -2
BITMAP
6000
1000
0000
C020
2020
0040
0080
0100
0E00
7000
ENDCHAR
STARTCHAR 31F2
ENCODING 12786
SWIDTH 1020 0
DWIDTH 17 0
BBX 11 10 3 -2
BITMAP
7F80
0080
0080
0100
0100
0700
0C80
1040
2020
C020
ENDCHAR
STARTCHAR 31F3
ENCODING 12787
SWIDTH 1020 0
DWIDTH 17 0
BBX 6 11 7 -2
BITMAP
C0
C0
C0
C0
D8
C4
C0
C0
C0
C0
C0
ENDCHAR
STARTCHAR 31F4
ENCODING 12788
SWIDTH 1020 0
DWIDTH 17 0
BBX 10 10 4 -2
BITMAP
7F80
0080
0080
2080
1900
0D00
0300
0C80
3840
C000
ENDCHAR
STARTCHAR 31F5
ENCODING 12789
SWIDTH 1020 0
DWIDTH 17 0
BBX 12 8 3 -1
BITMAP
1000
1100
1080
2040
2020
4020
4010
8010
ENDCHAR
STARTCHAR 31F6
ENCODING 12790
SWIDTH 1020 0
DWIDTH 17 0
BBX 8 10 5 -2
BITMAP
80
80
81
86
F8
80
80
80
80
7F
ENDCHAR
STARTCHAR 31F7
ENCODING 12791
SWIDTH 1020 0
DWIDTH 17 0
BBX 10 9 4 -2
BITMAP
FFC0
0040
0040
0040
0080
0080
0100
0E00
3800
ENDCHAR
STARTCHAR 31F8
ENCODING 12792
SWIDTH 1020 0
DWIDTH 17 0
BBX 11 6 3 0
BITMAP
1C00
2600
4100
8080
0040
0020
ENDCHAR
STARTCHAR 31F9
ENCODING 12793
SWIDTH 1020 0
DWIDTH 17 0
BBX 12 11 3 -2
BITMAP
0600
0600
0600
7FE0
0600
0600
2640
2620
4610
8610
0E00
ENDCHAR
STARTCHAR 31FA
ENCODING 12794
SWIDTH 1020 0
DWIDTH 17 0
BBX 11 9 3 -2
BITMAP
0C00
0C00
0C00
0C00
1100
1080
1040
27A0
FC20
ENDCHAR
STARTCHAR 31FB
ENCODING 12795
SWIDTH 1020 0
DWIDTH 17 0
BBX 10 10 4 -2
BITMAP
7F80
0000
0000
FFC0
0040
0040
0080
0100
0200
1C00
ENDCHAR
STARTCHAR 31FC
ENCODING 12796
SWIDTH 1020 0
DWIDTH 17 0
BBX 7 11 5 -2
BITMAP
02
82
82
82
82
82
82
04
04
18
30
ENDCHAR
STARTCHAR 31FD
ENCODING 12797
SWIDTH 1020 0
DWIDTH 17 0
BBX 12 9 3 -1
BITMAP
0100
1100
1100
1100
1100
2110
2120
4140
8180
ENDCHAR
STARTCHAR 31FE
ENCODING 12798
SWIDTH 1020 0
DWIDTH 17 0
BBX 9 10 5 -2
BITMAP
8000
8000
8000
8000
8000
8080
8100
8200
9C00
F000
ENDCHAR
STARTCHAR 31FF
ENCODING 12799
SWIDTH 1020 0
DWIDTH 17 0
BBX 10 9 4 -2
BITMAP
FFC0
8040
8040
8040
8040
8040
8040
FFC0
8040
ENDCHAR
STARTCHAR 3231
ENCODING 12849
SWIDTH 1020 0
DWIDTH 17 0
BBX 16 16 1 -1
BITMAP
2824
49A2
49A2
49A2
BDF9
8B21
8B21
9821
9FFD
9821
A871
A871
89A9
4B26
4C22
2824
ENDCHAR
STARTCHAR 3232
ENCODING 12850
SWIDTH 1020 0
DWIDTH 17 0
BBX 16 16 1 -1
BITMAP
2184
4182
4182
4FFA
8301
87F9
8409
8C09
97F9
A409
8409
87F9
8409
440A
443A
2004
ENDCHAR
STARTCHAR 3239
ENCODING 12857
SWIDTH 1020 0
DWIDTH 17 0
BBX 16 16 1 -1
BITMAP
2444
4452
4452
444A
8849
8841
987D
ABC1
8841
8841
8821
8821
8821
482A
4812
2814
ENDCHAR
STARTCHAR 3251
ENCODING 12881
SWIDTH 1020 0
DWIDTH 17 0
BBX 16 16 1 -1
BITMAP
07E0
1818
1818
2004
4712
49B2
8191
8191
8311
8411
8811
4812
4F92
2004
1818
07E0
ENDCHAR
STARTCHAR 3252
ENCODING 12882
SWIDTH 1020 0
DWIDTH 17 0
BBX 16 16 1 -1
BITMAP
07E0
1818
1818
2004
4C32
534A
8309
8309
8411
8821
9041
5042
5F7A
2004
1818
07E0
ENDCHAR
STARTCHAR 3253
ENCODING 12883
SWIDTH 1020 0
DWIDTH 17 0
BBX 16 16 1 -1
BITMAP
07E0
1818
1818
2004
4C32
534A
8309
8309
8431
8809
9049
504A
5F32
2004
1818
07E0
ENDCHAR
STARTCHAR 3254
ENCODING 12884
SWIDTH 1020 0
DWIDTH 17 0
BBX 16 16 1 -1
BITMAP
07E0
1818
1818
2004
4C0A
531A
8329
8329
8449
887D
9009
500A
5F0A
2004
1818
07E0
ENDCHAR
STARTCHAR 3255
ENCODING 12885
SWIDTH 1020 0
DWIDTH 17 0
BBX 16 16 1 -1
BITMAP
07E0
1818
1818
2004
4C7A
5342
8341
8341
8431
8809
9009
504A
5F32
2004
1818
07E0
ENDCHAR
STARTCHAR 3256
ENCODING 12886
SWIDTH 1020 0
DWIDTH 17 0
BBX 16 16 1 -1
BITMAP
07E0
1818
1818
2004
4C32
534A
8341
8341
8471
8849
9049
504A
5F32
2004
1818
07E0
ENDCHAR
STARTCHAR 3257
ENCODING 12887
SWIDTH 1020 0
DWIDTH 17 0
BBX 16 16 1 -1
BITMAP
07E0
1818
1818
2004
4C7A
530A
8309
8309
8409
8811
9011
5012
5F12
2004
1818
07E0
ENDCHAR
STARTCHAR 3258
ENCODING 12888
SWIDTH 1020 0
DWIDTH 17 0
BBX 16 16 1 -1
BITMAP
07E0
1818
1818
2004
4C32
534A
8349
8349
8431
8849
9049
504A
5F32
2004
1818
07E0
ENDCHAR
STARTCHAR 3259
ENCODING 12889
SWIDTH 1020 0
DWIDTH 17 0
BBX 16 16 1 -1
BITMAP
07E0
1818
1818
2004
4C32
534A
8349
8349
8439
8811
9011
5012
5F12
2004
1818
07E0
ENDCHAR
STARTCHAR 325A
ENCODING 12890
SWIDTH 1020 0
DWIDTH 17 0
BBX 16 16 1 -1
BITMAP
07E0
1818
1818
2004
4C32
534A
8349
8349
8C49
8349
9349
534A
4C32
2004
1818
07E0
ENDCHAR
STARTCHAR 325B
ENCODING 12891
SWIDTH 1020 0
DWIDTH 17 0
BBX 16 16 1 -1
BITMAP
07E0
1818
1818
2004
4C12
5332
8311
8311
8C11
8311
9311
5312
4C12
2004
1818
07E0
ENDCHAR
STARTCHAR 325C
ENCODING 12892
SWIDTH 1020 0
DWIDTH 17 0
BBX 16 16 1 -1
BITMAP
07E0
1818
1818
2004
4C32
534A
8309
8309
8C11
8321
9341
5342
4C7A
2004
1818
07E0
ENDCHAR
STARTCHAR 325D
ENCODING 12893
SWIDTH 1020 0
DWIDTH 17 0
BBX 16 16 1 -1
BITMAP
07E0
1818
1818
2004
4C32
534A
8309
8309
8C31
8309
9349
534A
4C32
2004
1818
07E0
ENDCHAR
STARTCHAR 325E
ENCODING 12894
SWIDTH 1020 0
DWIDTH 17 0
BBX 16 16 1 -1
BITMAP
07E0
1818
1818
2004
4C0A
531A
8329
8329
8C49
837D
9309
530A
4C0A
2004
1818
07E0
ENDCHAR
STARTCHAR 325F
ENCODING 12895
SWIDTH 1020 0
DWIDTH 17 0
BBX 16 16 1 -1
BITMAP
07E0
1818
1818
2004
4C7A
5342
8341
8371
8C09
8309
9309
534A
4C32
2004
1818
07E0
ENDCHAR
STARTCHAR 32A4
ENCODING 12964
SWIDTH 1020 0
DWIDTH 17 0
BBX 16 16 1 -1
BITMAP
07E0
1818
1818
2184
4182
4182
8181
81F1
8181
8181
8181
4182
5FFA
2004
1818
07E0
ENDCHAR
STARTCHAR 32A5
ENCODING 12965
SWIDTH 1020 0
DWIDTH 17 0
BBX 16 16 1 -1
BITMAP
07E0
1818
1818
2184
4182
5FFA
9189
9189
9189
9FF9
8181
4182
4182
2184
1818
07E0
ENDCHAR
STARTCHAR 32A6
ENCODING 12966
SWIDTH 1020 0
DWIDTH 17 0
BBX 16 16 1 -1
BITMAP
07E0
1818
1818
2004
5FFA
4182
8181
81E1
8191
8181
8181
4182
4182
2004
1818
07E0
ENDCHAR
STARTCHAR 32A7
ENCODING 12967
SWIDTH 1020 0
DWIDTH 17 0
BBX 16 16 1 -1
BITMAP
07E0
1818
1818
2184
4182
5FFA
8301
8401
8BF1
9041
8041
4042
47FA
2004
1818
07E0
ENDCHAR
STARTCHAR 32A8
ENCODING 12968
SWIDTH 1020 0
DWIDTH 17 0
BBX 16 16 1 -1
BITMAP
07E0
1818
1818
2304
4302
5FFA
8401
8401
8FF1
9411
8411
4412
47F2
2004
1818
07E0
ENDCHAR
STARTCHAR 32B1
ENCODING 12977
SWIDTH 1020 0
DWIDTH 17 0
BBX 16 16 1 -1
BITMAP
07E0
1818
1818
2004
4C32
5342
8341
8341
8C71
8349
9349
534A
4C32
2004
1818
07E0
ENDCHAR
STARTCHAR 32B2
ENCODING 12978
SWIDTH 1020 0
DWIDTH 17 0
BBX 16 16 1 -1
BITMAP
07E0
1818
1818
2004
4C7A
530A
8309
8309
8C09
8311
9311
5312
4C12
2004
1818
07E0
ENDCHAR
STARTCHAR 32B3
ENCODING 12979
SWIDTH 1020 0
DWIDTH 17 0
BBX 16 16 1 -1
BITMAP
07E0
1818
1818
2004
4C32
534A
8349
8349
8C31
8349
9349
534A
4C32
2004
1818
07E0
ENDCHAR
STARTCHAR 32B4
ENCODING 12980
SWIDTH 1020 0
DWIDTH 17 0
BBX 16 16 1 -1
BITMAP
07E0
1818
1818
2004
4C32
534A
8349
8349
8C39
8311
9311
5312
4C12
2004
1818
07E0
ENDCHAR
STARTCHAR 32B5
ENCODING 12981
SWIDTH 1020 0
DWIDTH 17 0
BBX 16 16 1 -1
BITMAP
07E0
1818
1818
2004
4332
474A
8B49
8B49
9349
9FC9
8349
434A
4332
2004
1818
07E0
ENDCHAR
STARTCHAR 32B6
ENCODING 12982
SWIDTH 1020 0
DWIDTH 17 0
BBX 16 16 1 -1
BITMAP
07E0
1818
1818
2004
4312
4732
8B11
8B11
9311
9F91
8311
4312
4312
2004
1818
07E0
ENDCHAR
STARTCHAR 32B7
ENCODING 12983
SWIDTH 1020 0
DWIDTH 17 0
BBX 16 16 1 -1
BITMAP
07E0
1818
1818
2004
4332
474A
8B09
8B09
9311
9FA1
8321
4342
437A
2004
1818
07E0
ENDCHAR
STARTCHAR 32B8
ENCODING 12984
SWIDTH 1020 0
DWIDTH 17 0
BBX 16 16 1 -1
BITMAP
07E0
1818
1818
2004
4332
474A
8B09
8B09
9331
9F89
8349
434A
4332
2004
1818
07E0
ENDCHAR
STARTCHAR 32B9
ENCODING 12985
SWIDTH 1020 0
DWIDTH 17 0
BBX 16 16 1 -1
BITMAP
07E0
1818
1818
2004
440A
4C1A
9429
9429
A449
BF7D
8409
440A
440A
2004
1818
07E0
ENDCHAR
STARTCHAR 32BA
ENCODING 12986
SWIDTH 1020 0
DWIDTH 17 0
BBX 16 16 1 -1
BITMAP
07E0
1818
1818
2004
437A
4742
8B41
8B71
9309
9F89
8349
434A
4332
2004
1818
07E0
ENDCHAR
STARTCHAR 32BB
ENCODING 12987
SWIDTH 1020 0
DWIDTH 17 0
BBX 16 16 1 -1
BITMAP
07E0
1818
1818
2004
4332
474A
8B41
8B41
9371
9FC9
8349
434A
4332
2004
1818
07E0
ENDCHAR
STARTCHAR 32BC
ENCODING 12988
SWIDTH 1020 0
DWIDTH 17 0
BBX 16 16 1 -1
BITMAP
07E0
1818
1818
2004
437A
470A
8B09
8B09
9311
9F91
8311
4312
4312
2004
1818
07E0
ENDCHAR
STARTCHAR 32BD
ENCODING 12989
SWIDTH 1020 0
DWIDTH 17 0
BBX 16 16 1 -1
BITMAP
07E0
1818
1818
2004
4332
474A
8B49
8B49
9331
9FC9
8349
434A
4332
2004
1818
07E0
ENDCHAR
STARTCHAR 32BE
ENCODING 12990
SWIDTH 1020 0
DWIDTH 17 0
BBX 16 16 1 -1
BITMAP
07E0
1818
1818
2004
4332
474A
8B49
8B49
9331
9F91
8311
4312
4312
2004
1818
07E0
ENDCHAR
STARTCHAR 32BF
ENCODING 12991
SWIDTH 1020 0
DWIDTH 17 0
BBX 16 16 1 -1
BITMAP
07E0
1818
1818
2004
5F32
504A
9049
9C49
8349
8349
9349
534A
4C32
2004
1818
07E0
ENDCHAR
STARTCHAR 32D0
ENCODING 13008
SWIDTH 1020 0
DWIDTH 17 0
BBX 16 16 1 -1
BITMAP
07E0
1818
1818
2004
4FFA
400A
8191
81A1
8181
8181
8301
4302
4402
2004
1818
07E0
ENDCHAR
STARTCHAR 32D1
ENCODING 13009
SWIDTH 1020 0
DWIDTH 17 0
BBX 16 16 1 -1
BITMAP
07E0
1818
1818
2004
4022
4022
8041
8381
8D81
8181
8181
4182
4182
2004
1818
07E0
ENDCHAR
STARTCHAR 32D2
ENCODING 13010
SWIDTH 1020 0
DWIDTH 17 0
BBX 16 16 1 -1
BITMAP
07E0
1818
1818
2004
4182
4182
8FF1
8811
8811
8011
8021
4042
4382
2004
1818
07E0
ENDCHAR
STARTCHAR 32D3
ENCODING 13011
SWIDTH 1020 0
DWIDTH 17 0
BBX 16 16 1 -1
BITMAP
07E0
1818
1818
2004
4002
4002
87E1
8181
8181
8181
8181
5FFA
4002
2004
1818
07E0
ENDCHAR
STARTCHAR 32D4
ENCODING 13012
SWIDTH 1020 0
DWIDTH 17 0
BBX 16 16 1 -1
BITMAP
07E0
1818
1818
2004
4022
4022
8FF9
8061
81A1
8321
8421
4822
4062
2004
1818
07E0
ENDCHAR
STARTCHAR 32D5
ENCODING 13013
SWIDTH 1020 0
DWIDTH 17 0
BBX 16 16 1 -1
BITMAP
07E0
1818
1818
2004
4182
4182
8FF1
8191
8191
8311
8311
4412
4862
2004
1818
07E0
ENDCHAR
STARTCHAR 32D6
ENCODING 13014
SWIDTH 1020 0
DWIDTH 17 0
BBX 16 16 1 -1
BITMAP
07E0
1818
1818
2004
4182
41E2
8781
8181
81B9
8FC1
8041
4042
4042
2004
1818
07E0
ENDCHAR
STARTCHAR 32D7
ENCODING 13015
SWIDTH 1020 0
DWIDTH 17 0
BBX 16 16 1 -1
BITMAP
07E0
1818
1818
2304
4302
43F2
8411
8411
8811
8021
8021
4042
4182
2704
1818
07E0
ENDCHAR
STARTCHAR 32D8
ENCODING 13016
SWIDTH 1020 0
DWIDTH 17 0
BBX 16 16 1 -1
BITMAP
07E0
1818
1818
2304
4302
4302
87F9
8421
8821
8021
8021
4042
4382
2004
1818
07E0
ENDCHAR
STARTCHAR 32D9
ENCODING 13017
SWIDTH 1020 0
DWIDTH 17 0
BBX 16 16 1 -1
BITMAP
07E0
1818
1818
2004
4002
47F2
8011
8011
8011
8011
8011
47F2
4002
2004
1818
07E0
ENDCHAR
STARTCHAR 32DA
ENCODING 13018
SWIDTH 1020 0
DWIDTH 17 0
BBX 16 16 1 -1
BITMAP
07E0
1818
1818
2004
4422
4422
9FF9
8421
8421
8021
8021
4042
4182
2004
1818
07E0
ENDCHAR
STARTCHAR 32DB
ENCODING 13019
SWIDTH 1020 0
DWIDTH 17 0
BBX 16 16 1 -1
BITMAP
07E0
1818
1818
2004
4402
4302
8001
8809
8411
8021
8041
4182
4702
2004
1818
07E0
ENDCHAR
STARTCHAR 32DC
ENCODING 13020
SWIDTH 1020 0
DWIDTH 17 0
BBX 16 16 1 -1
BITMAP
07E0
1818
1818
2004
4002
47E2
8021
8021
8041
8181
8341
4422
4812
2004
1818
07E0
ENDCHAR
STARTCHAR 32DD
ENCODING 13021
SWIDTH 1020 0
DWIDTH 17 0
BBX 16 16 1 -1
BITMAP
07E0
1818
1818
2004
4402
4402
85F1
9F11
8421
8401
8401
4402
43E2
2004
1818
07E0
ENDCHAR
STARTCHAR 32DE
ENCODING 13022
SWIDTH 1020 0
DWIDTH 17 0
BBX 16 16 1 -1
BITMAP
07E0
1818
1818
2004
4002
4802
8409
8409
8011
8011
8021
4042
4382
2004
1818
07E0
ENDCHAR
STARTCHAR 32DF
ENCODING 13023
SWIDTH 1020 0
DWIDTH 17 0
BBX 16 16 1 -1
BITMAP
07E0
1818
1818
2184
4182
41F2
8311
8711
89A1
8061
8041
4182
4702
2004
1818
07E0
ENDCHAR
STARTCHAR 32E0
ENCODING 13024
SWIDTH 1020 0
DWIDTH 17 0
BBX 16 16 1 -1
BITMAP
07E0
1818
1818
2004
4062
4782
8041
8041
9FF9
8041
8041
4182
4702
2004
1818
07E0
ENDCHAR
STARTCHAR 32E1
ENCODING 13025
SWIDTH 1020 0
DWIDTH 17 0
BBX 16 16 1 -1
BITMAP
07E0
1818
1818
2004
4302
4982
8589
8409
8011
8011
8021
4042
4382
2004
1818
07E0
ENDCHAR
STARTCHAR 32E2
ENCODING 13026
SWIDTH 1020 0
DWIDTH 17 0
BBX 16 16 1 -1
BITMAP
07E0
1818
1818
2004
4FF2
4002
8001
9FF9
8041
8041
8041
4182
4702
2004
1818
07E0
ENDCHAR
STARTCHAR 32E3
ENCODING 13027
SWIDTH 1020 0
DWIDTH 17 0
BBX 16 16 1 -1
BITMAP
07E0
1818
1818
2004
4302
4302
8301
8381
8361
8301
8301
4302
4302
2004
1818
07E0
ENDCHAR
STARTCHAR 32E5
ENCODING 13029
SWIDTH 1020 0
DWIDTH 17 0
BBX 16 16 1 -1
BITMAP
07E0
1818
1818
2004
4002
4002
87E1
8001
8001
8001
8001
5FFA
4002
2004
1818
07E0
ENDCHAR
STARTCHAR 32E9
ENCODING 13033
SWIDTH 1020 0
DWIDTH 17 0
BBX 16 16 1 -1
BITMAP
07E0
1818
1818
2004
4002
4302
8321
8411
8411
8809
9009
4002
4002
2004
1818
07E0
ENDCHAR
STARTCHAR 32EC
ENCODING 13036
SWIDTH 1020 0
DWIDTH 17 0
BBX 16 16 1 -1
BITMAP
07E0
1818
1818
2004
4002
4002
8001
8701
89C1
9039
8001
4002
4002
2004
1818
07E0
ENDCHAR
STARTCHAR 32ED
ENCODING 13037
SWIDTH 1020 0
DWIDTH 17 0
BBX 16 16 1 -1
BITMAP
07E0
1818
1818
2004
4182
4182
9FF9
8181
8991
8991
9189
4182
4382
2004
1818
07E0
ENDCHAR
STARTCHAR 32FA
ENCODING 13050
SWIDTH 1020 0
DWIDTH 17 0
BBX 16 16 1 -1
BITMAP
07E0
1818
1818
2004
4002
4FF2
8811
8811
8811
8811
8FF1
4812
4002
2004
1818
07E0
ENDCHAR
STARTCHAR 3303
ENCODING 13059
SWIDTH 1020 0
DWIDTH 17 0
BBX 15 15 1 -1
BITMAP
FF00
FF00
0300
1400
107E
1000
2000
2000
0000
0400
2400
2400
2440
4580
8700
ENDCHAR
STARTCHAR 330D
ENCODING 13069
SWIDTH 1020 0
DWIDTH 17 0
BBX 15 16 1 -1
BITMAP
2000
2000
2000
FC7E
2442
2442
2442
4442
8C7E
0000
4400
4400
447E
0400
0800
3000
ENDCHAR
STARTCHAR 3314
ENCODING 13076
SWIDTH 1020 0
DWIDTH 17 0
BBX 15 15 1 -1
BITMAP
1000
1000
1000
1F00
F000
0800
0F80
7800
047E
0442
0442
0042
0042
007E
0042
ENDCHAR
STARTCHAR 3318
ENCODING 13080
SWIDTH 1020 0
DWIDTH 17 0
BBX 14 16 2 -1
BITMAP
0B00
46B8
46B8
7800
487C
8804
0804
1008
6030
0000
2000
2000
2800
2600
4F00
F300
ENDCHAR
STARTCHAR 3322
ENCODING 13090
SWIDTH 1020 0
DWIDTH 17 0
BBX 15 16 1 -1
BITMAP
2000
2020
2020
3F10
E302
2404
2008
1F30
0000
0700
1C00
0400
7FC0
0400
0400
0800
ENDCHAR
STARTCHAR 3323
ENCODING 13091
SWIDTH 1020 0
DWIDTH 17 0
BBX 16 16 1 -1
BITMAP
2000
2060
2060
3F11
E402
2004
2008
1F30
2000
2000
2000
3800
2400
2000
2000
2000
ENDCHAR
STARTCHAR 3326
ENCODING 13094
SWIDTH 1020 0
DWIDTH 17 0
BBX 13 15 3 0
BITMAP
0C00
9600
9600
8C00
8000
E000
9000
8000
8000
8640
0640
0640
0648
0C50
1060
ENDCHAR
STARTCHAR 3327
ENCODING 13095
SWIDTH 1020 0
DWIDTH 17 0
BBX 13 15 3 -1
BITMAP
8000
8000
8000
8000
E000
9000
8000
8000
8100
0080
0008
0010
0020
0040
0180
ENDCHAR
STARTCHAR 332B
ENCODING 13099
SWIDTH 1020 0
DWIDTH 17 0
BBX 16 16 1 -1
BITMAP
01C0
0320
0320
2B20
25C0
443F
4300
8300
0000
4004
5B04
E986
4815
5024
4044
3B84
ENDCHAR
STARTCHAR 3336
ENCODING 13110
SWIDTH 1020 0
DWIDTH 17 0
BBX 16 16 1 -1
BITMAP
0010
201E
201E
5012
8822
0702
0004
0018
4000
7804
4814
C814
2BD4
1015
2026
C024
ENDCHAR
STARTCHAR 333B
ENCODING 13115
SWIDTH 1020 0
DWIDTH 17 0
BBX 15 16 1 -1
BITMAP
0380
0440
0440
3440
4B80
843E
0300
0000
0180
2340
1180
4000
2300
0400
0800
3000
ENDCHAR
STARTCHAR 3349
ENCODING 13129
SWIDTH 1020 0
DWIDTH 17 0
BBX 14 15 2 -1
BITMAP
6000
6000
1800
0600
6000
1800
0644
E044
1844
0644
0044
0004
0004
0008
0030
ENDCHAR
STARTCHAR 334A
ENCODING 13130
SWIDTH 1020 0
DWIDTH 17 0
BBX 16 16 1 -1
BITMAP
7022
0C22
0C22
3022
0822
0002
7004
0C18
0800
1404
4814
5014
53D4
8815
8826
8024
ENDCHAR
STARTCHAR 334D
ENCODING 13133
SWIDTH 1020 0
DWIDTH 17 0
BBX 14 15 2 -1
BITMAP
0600
0600
4600
2800
10FC
2800
C600
0000
4020
40A0
60A0
50A0
40A4
4328
4630
ENDCHAR
STARTCHAR 3351
ENCODING 13137
SWIDTH 1020 0
DWIDTH 17 0
BBX 14 15 2 -1
BITMAP
8800
8800
8880
8B48
8888
0810
1020
6040
4000
40A0
70A0
48A0
40A4
4328
4630
ENDCHAR
STARTCHAR 3357
ENCODING 13143
SWIDTH 1020 0
DWIDTH 17 0
BBX 14 15 2 -1
BITMAP
FE00
FE00
8640
86A4
0644
0808
1010
4020
4000
4000
7000
4800
4000
4000
4000
ENDCHAR
STARTCHAR 337B
ENCODING 13179
SWIDTH 1020 0
DWIDTH 17 0
BBX 16 16 1 -1
BITMAP
000C
7F0A
7F0A
1008
55FF
5588
5589
3589
11E9
FFA9
11AA
11AA
11A4
1325
134A
1432
ENDCHAR
STARTCHAR 337C
ENCODING 13180
SWIDTH 1020 0
DWIDTH 17 0
BBX 16 16 1 -1
BITMAP
0010
1FA7
1FA7
E5E5
A5A5
A5A5
A9FD
A9A5
F1B5
A3AD
A065
AFA5
A9A5
E9A5
09A7
0FA0
ENDCHAR
STARTCHAR 337D
ENCODING 13181
SWIDTH 1020 0
DWIDTH 17 0
BBX 16 16 1 -1
BITMAP
1000
11FF
11FF
1008
1008
FF08
1048
1048
104E
1048
2848
2848
2848
4448
4448
87FF
ENDCHAR
STARTCHAR 337E
ENCODING 13182
SWIDTH 1020 0
DWIDTH 17 0
BBX 16 16 1 -1
BITMAP
0048
0F28
0F28
EB08
AB0A
AB92
AF57
EB39
AB01
AB00
AF3F
AB31
EB51
1351
1351
279F
ENDCHAR
STARTCHAR 338E
ENCODING 13198
SWIDTH 1020 0
DWIDTH 17 0
BBX 16 10 1 -2
BITMAP
B41D
DB23
9341
9341
9341
9323
931D
9341
0022
001C
ENDCHAR
STARTCHAR 338F
ENCODING 13199
SWIDTH 1020 0
DWIDTH 17 0
BBX 15 17 2 -2
BITMAP
8000
8000
8000
8000
8000
8000
8000
863A
8846
9082
E082
9082
8846
863A
8682
0044
0038
ENDCHAR
STARTCHAR 339C
ENCODING 13212
SWIDTH 1020 0
DWIDTH 17 0
BBX 16 8 1 0
BITMAP
B45A
DB6D
9349
9349
9349
9349
9349
9349
ENDCHAR
STARTCHAR 339D
ENCODING 13213
SWIDTH 1020 0
DWIDTH 17 0
BBX 15 8 1 0
BITMAP
39B4
45DA
8192
8192
8192
8192
4592
3992
ENDCHAR
STARTCHAR 339E
ENCODING 13214
SWIDTH 1020 0
DWIDTH 17 0
BBX 15 14 1 0
BITMAP
8000
8000
8000
8000
8000
8000
85B4
89DA
9192
E192
9192
8992
8592
8592
ENDCHAR
STARTCHAR 33A1
ENCODING 13217
SWIDTH 1020 0
DWIDTH 17 0
BBX 14 15 3 0
BITMAP
0018
0024
0024
0008
0010
003C
0000
BCE0
C710
8610
8610
8610
8610
8610
8610
ENDCHAR
STARTCHAR 33C4
ENCODING 13252
SWIDTH 1020 0
DWIDTH 17 0
BBX 16 8 1 0
BITMAP
3C1E
4321
8040
8040
8040
8040
4321
3C1E
ENDCHAR
STARTCHAR 33CB
ENCODING 13259
SWIDTH 1020 0
DWIDTH 17 0
BBX 14 14 2 0
BITMAP
83F0
83F0
8308
8304
8304
8304
8308
FFF0
8300
8300
8300
8300
8300
8300
ENDCHAR
STARTCHAR 33CD
ENCODING 13261
SWIDTH 1020 0
DWIDTH 17 0
BBX 16 14 1 0
BITMAP
8844
8844
8844
9048
9048
A050
A050
E070
A050
A050
9048
9048
9349
8B45
ENDCHAR
STARTCHAR 3402
ENCODING 13314
SWIDTH 1020 0
DWIDTH 17 0
BBX 16 16 1 -1
BITMAP
0800
083E
083E
FFC0
0800
0802
07FE
0000
2020
23A3
2C2C
F1F0
2020
21A1
21A1
1F9F
ENDCHAR
STARTCHAR 3406
ENCODING 13318
SWIDTH 1020 0
DWIDTH 17 0
BBX 12 16 2 -1
BITMAP
0070
1F80
1F80
1000
1FF0
1010
1FF0
1010
1FF0
1000
1FF0
1010
2010
2010
4010
8060
ENDCHAR
STARTCHAR 342C
ENCODING 13356
SWIDTH 1020 0
DWIDTH 17 0
BBX 16 16 1 -1
BITMAP
0300
0300
0300
FFFF
0420
0410
09E8
7F04
0000
1188
1188
1188
1188
1189
2189
C187
ENDCHAR
STARTCHAR 342E
ENCODING 13358
SWIDTH 1020 0
DWIDTH 17 0
BBX 16 16 1 -1
BITMAP
0180
0180
0180
FFFF
0810
300C
C423
3FFC
0420
3FFC
0420
FFFF
0442
F834
0F8C
7803
ENDCHAR
STARTCHAR 3468
ENCODING 13416
SWIDTH 1020 0
DWIDTH 17 0
BBX 16 16 1 -1
BITMAP
1000
13FC
13FC
1304
2304
2304
63FC
A180
23FE
2C20
2020
2FFF
2050
2188
2304
2C03
ENDCHAR
STARTCHAR 346A
ENCODING 13418
SWIDTH 1020 0
DWIDTH 17 0
BBX 16 16 1 -1
BITMAP
1020
1020
1020
1FFF
2304
2188
6070
A38C
2F07
23FC
2304
2304
23FC
2304
2404
2804
ENDCHAR
STARTCHAR 3492
ENCODING 13458
SWIDTH 1020 0
DWIDTH 17 0
BBX 16 16 1 -1
BITMAP
1050
1452
1452
1354
2FFF
2304
6188
A7FE
2020
23FC
2020
2FFF
21A8
2324
2C23
2020
ENDCHAR
STARTCHAR 34B5
ENCODING 13493
SWIDTH 1020 0
DWIDTH 17 0
BBX 15 16 1 -1
BITMAP
0300
0300
0300
0400
3FF8
2008
2008
3FF8
2008
2008
2008
3FF8
0400
0820
3018
C006
ENDCHAR
STARTCHAR 34BC
ENCODING 13500
SWIDTH 1020 0
DWIDTH 17 0
BBX 16 16 1 -1
BITMAP
0810
0810
0810
FFFF
0810
0FF0
0180
7FFE
4182
59B2
4992
4992
55AA
61C6
4182
418E
ENDCHAR
STARTCHAR 34C1
ENCODING 13505
SWIDTH 1020 0
DWIDTH 17 0
BBX 15 8 2 2
BITMAP
FFFC
8844
8844
0840
1040
1042
2042
C03E
ENDCHAR
STARTCHAR 34C7
ENCODING 13511
SWIDTH 1020 0
DWIDTH 17 0
BBX 16 16 1 -1
BITMAP
001C
43E0
43E0
2020
1020
0020
0FFF
0020
0020
1050
1050
2050
2188
4188
4304
8C03
ENDCHAR
STARTCHAR 34DB
ENCODING 13531
SWIDTH 1020 0
DWIDTH 17 0
BBX 15 15 1 -1
BITMAP
07FE
07FE
0042
F842
2042
2042
2042
2182
2182
2182
3B02
C302
0404
0804
1038
ENDCHAR
STARTCHAR 351F
ENCODING 13599
SWIDTH 1020 0
DWIDTH 17 0
BBX 16 16 1 -1
BITMAP
5020
5020
5020
7DFC
9024
BDA4
1064
1045
1F65
E1A3
0300
7FFE
0302
0402
1802
E01C
ENDCHAR
STARTCHAR 355D
ENCODING 13661
SWIDTH 1020 0
DWIDTH 17 0
BBX 16 16 1 -1
BITMAP
0180
0180
0180
FFFF
0180
1FF8
1008
1008
1FF8
0000
3FFC
0808
0410
03E0
1C38
E007
ENDCHAR
STARTCHAR 355E
ENCODING 13662
SWIDTH 1020 0
DWIDTH 17 0
BBX 16 15 1 -1
BITMAP
7FFE
7FFE
41A2
41A2
7FA2
4422
4422
5F94
5594
5588
5588
5594
9794
8422
0441
ENDCHAR
STARTCHAR 3563
ENCODING 13667
SWIDTH 1020 0
DWIDTH 17 0
BBX 16 16 1 -1
BITMAP
03E0
0820
0820
0820
0810
1010
2008
4004
8003
3FF8
2008
2008
2008
2008
2008
3FF8
ENDCHAR
STARTCHAR 356E
ENCODING 13678
SWIDTH 1020 0
DWIDTH 17 0
BBX 16 16 1 -1
BITMAP
0190
0190
0190
F308
9404
9B0B
9308
9308
9190
9190
9060
9040
F1A0
0310
040C
0803
ENDCHAR
STARTCHAR 35A6
ENCODING 13734
SWIDTH 1020 0
DWIDTH 17 0
BBX 16 16 1 -1
BITMAP
0020
0020
0020
FFFF
9020
97FE
9422
97FE
9422
9422
97FE
91A8
F324
0422
0821
0020
ENDCHAR
STARTCHAR 35A8
ENCODING 13736
SWIDTH 1020 0
DWIDTH 17 0
BBX 16 16 1 -1
BITMAP
0180
01FC
01FC
F184
9308
93F8
9008
9FFF
9020
9322
91B4
9070
F1A8
0324
0C23
01E0
ENDCHAR
STARTCHAR 35C5
ENCODING 13765
SWIDTH 1020 0
DWIDTH 17 0
BBX 16 16 1 -1
BITMAP
0300
031F
031F
F311
9311
9FF1
931F
9311
9311
97D1
945F
9451
F451
0451
07E1
0047
ENDCHAR
STARTCHAR 35DA
ENCODING 13786
SWIDTH 1020 0
DWIDTH 17 0
BBX 16 15 1 -1
BITMAP
0FFF
0FFF
F190
9190
97FE
9592
9592
97FE
9020
9FFF
91A8
F324
0422
0821
0020
ENDCHAR
STARTCHAR 35F4
ENCODING 13812
SWIDTH 1020 0
DWIDTH 17 0
BBX 16 15 1 -1
BITMAP
07DF
07DF
F451
97DF
9451
97DF
9401
9479
9449
9449
9479
F449
0449
0479
0403
ENDCHAR
STARTCHAR 3605
ENCODING 13829
SWIDTH 1020 0
DWIDTH 17 0
BBX 16 16 1 -1
BITMAP
0440
044F
044F
E9A0
B1A0
A710
A5EF
A842
B842
ABFA
A842
AB4A
EB4A
09D2
087A
0B86
ENDCHAR
STARTCHAR 364A
ENCODING 13898
SWIDTH 1020 0
DWIDTH 17 0
BBX 16 16 1 -1
BITMAP
2000
23FE
23FE
2300
23FC
FB00
23FC
2300
2300
2FFF
2322
3B22
C314
0308
03E4
0F03
ENDCHAR
STARTCHAR 3691
ENCODING 13969
SWIDTH 1020 0
DWIDTH 17 0
BBX 16 15 1 -1
BITMAP
3FFC
3FFC
0004
FFFF
0004
0004
3FFC
0180
0180
FFFF
0180
0340
0420
1818
E007
ENDCHAR
STARTCHAR 3696
ENCODING 13974
SWIDTH 1020 0
DWIDTH 17 0
BBX 16 16 1 -1
BITMAP
0180
0300
0300
1FF8
1008
1008
1FF8
1008
1008
1FF8
0180
FFFF
0340
0420
1818
E007
ENDCHAR
STARTCHAR 3699
ENCODING 13977
SWIDTH 1020 0
DWIDTH 17 0
BBX 16 16 1 -1
BITMAP
1000
1000
1000
FF3E
1322
2322
2322
4322
8F3E
0180
FFFF
0340
0420
0810
300C
C003
ENDCHAR
STARTCHAR 36CF
ENCODING 14031
SWIDTH 1020 0
DWIDTH 17 0
BBX 16 16 1 -1
BITMAP
1014
1012
1012
1012
FDFF
2410
2592
2452
4454
4810
4838
F058
1994
2312
4011
8070
ENDCHAR
STARTCHAR 3761
ENCODING 14177
SWIDTH 1020 0
DWIDTH 17 0
BBX 16 16 1 -1
BITMAP
0180
0180
0180
7FFE
4002
0000
7F80
233E
3F02
2322
3F22
2314
2308
3F14
E363
0300
ENDCHAR
STARTCHAR 3762
ENCODING 14178
SWIDTH 1020 0
DWIDTH 17 0
BBX 14 16 2 -1
BITMAP
0300
0300
0300
FFFC
8004
BFF4
0300
3FF0
2310
3FF0
0300
7FF8
4348
43E8
5F28
4018
ENDCHAR
STARTCHAR 376B
ENCODING 14187
SWIDTH 1020 0
DWIDTH 17 0
BBX 15 16 2 -1
BITMAP
0300
FFFC
FFFC
8004
0080
F0FC
9790
9060
A398
AEF6
9320
93F8
9620
A3F8
8020
87FC
ENDCHAR
STARTCHAR 376C
ENCODING 14188
SWIDTH 1020 0
DWIDTH 17 0
BBX 16 16 1 -1
BITMAP
1010
1010
1010
FF10
83FE
9310
7C10
1010
7C10
13FF
FC10
1028
7C28
4444
4582
7F01
ENDCHAR
STARTCHAR 3775
ENCODING 14197
SWIDTH 1020 0
DWIDTH 17 0
BBX 16 15 1 -1
BITMAP
1FF8
1FF8
1008
1FF8
1008
1008
1FF8
0000
7FFE
0010
FFFF
0410
0310
0310
0070
ENDCHAR
STARTCHAR 378D
ENCODING 14221
SWIDTH 1020 0
DWIDTH 17 0
BBX 15 15 1 -1
BITMAP
7FFC
7FFC
4004
4004
7FFC
4300
4300
5FF0
4310
4310
5310
4C10
8712
8992
300E
ENDCHAR
STARTCHAR 37C1
ENCODING 14273
SWIDTH 1020 0
DWIDTH 17 0
BBX 16 16 1 -1
BITMAP
2000
23FF
23FF
2300
2300
AB7E
AB10
AB10
AB10
ABFF
AB10
AB10
FC10
0410
0810
0010
ENDCHAR
STARTCHAR 37E2
ENCODING 14306
SWIDTH 1020 0
DWIDTH 17 0
BBX 16 16 1 -1
BITMAP
0180
2184
2184
2184
3FFC
0180
7FFE
0420
1818
FFFF
0004
1FC4
1044
1044
1FC4
001C
ENDCHAR
STARTCHAR 37E8
ENCODING 14312
SWIDTH 1020 0
DWIDTH 17 0
BBX 16 16 1 -1
BITMAP
2010
2311
2311
2311
23FF
A800
ABFF
A810
A820
ABFF
AB49
AB49
FB49
0349
0349
034B
ENDCHAR
STARTCHAR 37F4
ENCODING 14324
SWIDTH 1020 0
DWIDTH 17 0
BBX 16 16 1 -1
BITMAP
2020
2040
2040
23FE
2322
AB22
ABFE
AB22
AB22
ABFE
A854
A855
F99F
0190
0311
040F
ENDCHAR
STARTCHAR 37FD
ENCODING 14333
SWIDTH 1020 0
DWIDTH 17 0
BBX 16 16 1 -1
BITMAP
2000
27FF
27FF
2048
23FE
AB4A
AB4A
ABFE
A800
ABFE
A800
AFFF
F810
0194
0713
0030
ENDCHAR
STARTCHAR 3800
ENCODING 14336
SWIDTH 1020 0
DWIDTH 17 0
BBX 16 16 1 -1
BITMAP
0400
1FF8
1FF8
1008
1FF8
1008
1FF8
1000
1FFF
1000
1FFE
4992
844E
0180
4182
7FFE
ENDCHAR
STARTCHAR 382F
ENCODING 14383
SWIDTH 1020 0
DWIDTH 17 0
BBX 12 15 3 -1
BITMAP
FFE0
FFE0
8020
8020
8020
8020
FFE0
8000
8000
FFF0
8010
8010
8010
8010
FFF0
ENDCHAR
STARTCHAR 3836
ENCODING 14390
SWIDTH 1020 0
DWIDTH 17 0
BBX 16 16 1 -1
BITMAP
2010
2010
2010
2020
F9FC
A984
A984
A984
A984
A984
A984
B984
2184
2305
2305
2403
ENDCHAR
STARTCHAR 3840
ENCODING 14400
SWIDTH 1020 0
DWIDTH 17 0
BBX 15 16 2 -1
BITMAP
0300
1320
1320
2318
C306
0300
7FFC
4304
4B44
4B44
5324
5324
6314
4304
4304
401C
ENDCHAR
STARTCHAR 385C
ENCODING 14428
SWIDTH 1020 0
DWIDTH 17 0
BBX 16 16 1 -1
BITMAP
2300
23DE
23DE
2722
FDA6
AB54
A988
ABFC
AC03
A800
AFFE
B820
2324
2422
2821
2060
ENDCHAR
STARTCHAR 3861
ENCODING 14433
SWIDTH 1020 0
DWIDTH 17 0
BBX 16 16 1 -1
BITMAP
2000
2FFF
2FFF
2800
FBE2
A802
ABEF
AB22
AB2A
ABEA
A80A
BB2A
2B22
29A2
31F2
2786
ENDCHAR
STARTCHAR 38FA
ENCODING 14586
SWIDTH 1020 0
DWIDTH 17 0
BBX 16 12 1 0
BITMAP
0300
0300
0300
0308
2304
2342
2321
4311
4308
8300
0300
0F00
ENDCHAR
STARTCHAR 3917
ENCODING 14615
SWIDTH 1020 0
DWIDTH 17 0
BBX 16 16 1 -1
BITMAP
0180
0180
0180
7FFE
0180
3FFC
0340
FFFF
0810
318C
C183
1184
11A2
2191
4188
0780
ENDCHAR
STARTCHAR 391A
ENCODING 14618
SWIDTH 1020 0
DWIDTH 17 0
BBX 16 16 1 -1
BITMAP
2180
219E
219E
2300
2300
A400
B580
A9BF
A304
A304
2704
2304
2304
2304
2304
231C
ENDCHAR
STARTCHAR 396F
ENCODING 14703
SWIDTH 1020 0
DWIDTH 17 0
BBX 16 16 1 -1
BITMAP
000C
1FF0
1FF0
1188
2304
5FF4
0040
7FFE
0004
FFFF
0004
3FFC
0180
2844
480A
87F9
ENDCHAR
STARTCHAR 3A6E
ENCODING 14958
SWIDTH 1020 0
DWIDTH 17 0
BBX 16 16 1 -1
BITMAP
21A0
2736
2736
2422
2736
F452
2452
2FFF
2304
35FA
E821
23FC
2020
27FE
2020
61E0
ENDCHAR
STARTCHAR 3A73
ENCODING 14963
SWIDTH 1020 0
DWIDTH 17 0
BBX 16 16 1 -1
BITMAP
2452
2594
2594
27DF
2DB4
F7DE
2594
27DE
2594
37DF
E000
27FE
2304
21F8
21D8
6F07
ENDCHAR
STARTCHAR 3AD6
ENCODING 15062
SWIDTH 1020 0
DWIDTH 17 0
BBX 16 16 1 -1
BITMAP
0180
0180
0180
01FC
0180
0180
0180
FFFF
0000
1FF8
1008
1008
1FF8
1008
1008
1FF8
ENDCHAR
STARTCHAR 3AD7
ENCODING 15063
SWIDTH 1020 0
DWIDTH 17 0
BBX 16 15 1 -1
BITMAP
3FFC
3FFC
2004
3FFC
2004
3FFC
0000
3FFC
0030
01C0
FFFF
0180
0180
0180
0780
ENDCHAR
STARTCHAR 3AEA
ENCODING 15082
SWIDTH 1020 0
DWIDTH 17 0
BBX 16 16 1 -1
BITMAP
0180
0180
0180
7FFE
0180
3FFC
0340
FFFF
0420
0810
39FC
C987
09FC
0984
0984
09FC
ENDCHAR
STARTCHAR 3B0E
ENCODING 15118
SWIDTH 1020 0
DWIDTH 17 0
BBX 16 15 1 -1
BITMAP
3FFC
3FFC
2004
3FFC
2004
3FFC
1010
2322
1414
0808
1716
79F9
2004
4422
8311
ENDCHAR
STARTCHAR 3B1A
ENCODING 15130
SWIDTH 1020 0
DWIDTH 17 0
BBX 16 16 1 -1
BITMAP
0308
0308
0308
FFE8
930F
945A
9FB2
902A
F7CA
944A
97C4
9444
97C4
F44A
044A
05D1
ENDCHAR
STARTCHAR 3B1C
ENCODING 15132
SWIDTH 1020 0
DWIDTH 17 0
BBX 16 15 1 -1
BITMAP
FF7F
FF7F
1008
2412
FB7D
1309
7C3E
1008
FF7F
0000
1FFC
1004
1FFC
1004
1FFC
ENDCHAR
STARTCHAR 3B22
ENCODING 15138
SWIDTH 1020 0
DWIDTH 17 0
BBX 16 16 1 -1
BITMAP
0188
0050
0050
F7FE
9020
93FC
9020
9FFF
F004
97A2
9320
9FFF
9312
F794
0B49
0337
ENDCHAR
STARTCHAR 3B6D
ENCODING 15213
SWIDTH 1020 0
DWIDTH 17 0
BBX 16 16 1 -1
BITMAP
2001
27E1
27E1
2429
FC29
2429
27E9
7309
6B09
6BE9
A329
A329
2321
2421
2421
29C7
ENDCHAR
STARTCHAR 3B77
ENCODING 15223
SWIDTH 1020 0
DWIDTH 17 0
BBX 16 16 1 -1
BITMAP
1000
11FE
11FE
1192
FD92
11FE
1192
3992
35FE
3010
53FF
5021
9021
1041
1181
130E
ENDCHAR
STARTCHAR 3B87
ENCODING 15239
SWIDTH 1020 0
DWIDTH 17 0
BBX 16 16 1 -1
BITMAP
201C
23E0
23E0
2020
F820
27FF
2048
6184
7302
6C21
A020
A32A
2329
2425
2424
2060
ENDCHAR
STARTCHAR 3B88
ENCODING 15240
SWIDTH 1020 0
DWIDTH 17 0
BBX 16 16 1 -1
BITMAP
2020
2020
2020
27FE
F850
2188
2304
65FA
7000
6800
AFFE
A020
2328
2424
3823
21E0
ENDCHAR
STARTCHAR 3B8D
ENCODING 15245
SWIDTH 1020 0
DWIDTH 17 0
BBX 16 16 1 -1
BITMAP
0410
FFFF
FFFF
0000
3F24
3324
2F24
3324
2F04
230C
0180
FFFF
05A0
1998
E187
0180
ENDCHAR
STARTCHAR 3BA4
ENCODING 15268
SWIDTH 1020 0
DWIDTH 17 0
BBX 16 16 1 -1
BITMAP
0180
0180
0180
7FFE
4812
318C
0760
1818
EFF7
0810
0FF0
0180
FFFF
05A0
1998
E187
ENDCHAR
STARTCHAR 3BB6
ENCODING 15286
SWIDTH 1020 0
DWIDTH 17 0
BBX 16 16 1 -1
BITMAP
2420
232F
232F
2349
FFF9
2189
218F
75A9
6DA9
65A9
A5AF
A7E9
2189
2189
2309
2413
ENDCHAR
STARTCHAR 3BC3
ENCODING 15299
SWIDTH 1020 0
DWIDTH 17 0
BBX 16 16 1 -1
BITMAP
2020
2020
2020
2FFF
F1A8
2324
2C23
6050
738C
6C23
A324
A1A8
2070
23AC
2C23
2060
ENDCHAR
STARTCHAR 3BCD
ENCODING 15309
SWIDTH 1020 0
DWIDTH 17 0
BBX 16 16 1 -1
BITMAP
2190
259F
259F
25B1
FDE9
2596
278C
61F2
7182
6FBF
A582
A592
258A
258A
2982
2986
ENDCHAR
STARTCHAR 3BF0
ENCODING 15344
SWIDTH 1020 0
DWIDTH 17 0
BBX 16 16 1 -1
BITMAP
23FE
2352
2352
23FE
F820
27FF
2020
71FE
6982
6DFE
A582
A5FE
2582
25FE
2400
27FF
ENDCHAR
STARTCHAR 3C0F
ENCODING 15375
SWIDTH 1020 0
DWIDTH 17 0
BBX 16 16 1 -1
BITMAP
2308
23EF
23EF
2454
F822
27FE
2000
71F8
6988
69F8
A000
A7FE
2402
25FA
258A
25FE
ENDCHAR
STARTCHAR 3C26
ENCODING 15398
SWIDTH 1020 0
DWIDTH 17 0
BBX 16 16 1 -1
BITMAP
0810
0810
0810
0810
7FBF
0821
0849
080A
FF88
1008
1008
1408
1314
2314
3DA2
E041
ENDCHAR
STARTCHAR 3CC3
ENCODING 15555
SWIDTH 1020 0
DWIDTH 17 0
BBX 16 16 1 -1
BITMAP
4040
2040
2040
17F8
0048
8188
4189
2309
0C07
0020
1020
17FE
2020
2020
4020
8020
ENDCHAR
STARTCHAR 3CD2
ENCODING 15570
SWIDTH 1020 0
DWIDTH 17 0
BBX 15 16 1 -1
BITMAP
4040
2040
2040
1040
0FFE
8190
4190
2308
0344
0442
1040
1040
2188
2188
4334
8FC2
ENDCHAR
STARTCHAR 3D11
ENCODING 15633
SWIDTH 1020 0
DWIDTH 17 0
BBX 16 16 1 -1
BITMAP
4020
2020
2020
1FFF
0982
8842
4844
2FFF
0810
0992
1992
1992
29FE
2810
5020
81C0
ENDCHAR
STARTCHAR 3D1E
ENCODING 15646
SWIDTH 1020 0
DWIDTH 17 0
BBX 15 16 1 -1
BITMAP
401C
27E0
27E0
1000
0442
8322
4324
2000
047E
0442
1442
147E
2442
2442
4442
847E
ENDCHAR
STARTCHAR 3D64
ENCODING 15716
SWIDTH 1020 0
DWIDTH 17 0
BBX 16 16 1 -1
BITMAP
4000
2FDF
2FDF
1345
0DDB
8345
4C59
2020
07FE
0324
1324
15AA
2851
2188
4304
8C03
ENDCHAR
STARTCHAR 3D9A
ENCODING 15770
SWIDTH 1020 0
DWIDTH 17 0
BBX 16 16 1 -1
BITMAP
4000
3FFF
3FFF
0310
1FFE
9312
5FFE
0580
1FDE
0592
2FDE
2B52
4FDE
4312
9FD2
8326
ENDCHAR
STARTCHAR 3DC0
ENCODING 15808
SWIDTH 1020 0
DWIDTH 17 0
BBX 16 16 1 -1
BITMAP
1010
5352
5352
5454
1010
2828
4444
0000
FFF0
0010
0810
0810
7FC8
0809
0805
0802
ENDCHAR
STARTCHAR 3DD4
ENCODING 15828
SWIDTH 1020 0
DWIDTH 17 0
BBX 15 16 1 -1
BITMAP
101C
13E0
13E0
1000
1722
5592
5594
9000
933E
1322
1322
2B3E
2B22
4722
4322
833E
ENDCHAR
STARTCHAR 3E05
ENCODING 15877
SWIDTH 1020 0
DWIDTH 17 0
BBX 16 16 1 -1
BITMAP
2188
2188
2188
23EF
2B54
AC22
A980
A7EF
A429
27E9
2429
37E9
2C09
4FC9
442B
83E8
ENDCHAR
STARTCHAR 3E3F
ENCODING 15935
SWIDTH 1020 0
DWIDTH 17 0
BBX 16 16 1 -1
BITMAP
1010
5010
5010
53FF
5010
F810
91FE
1000
13FF
1B01
3349
D048
1048
1049
1189
1307
ENDCHAR
STARTCHAR 3E60
ENCODING 15968
SWIDTH 1020 0
DWIDTH 17 0
BBX 16 16 1 -1
BITMAP
0820
8824
8824
5038
27E0
2020
5324
9324
1324
3324
5324
93FC
1020
1021
2021
C01F
ENDCHAR
STARTCHAR 3E66
ENCODING 15974
SWIDTH 1020 0
DWIDTH 17 0
BBX 15 16 1 -1
BITMAP
0800
8BFE
8BFE
5042
2042
2042
5182
9182
130C
3000
51FE
9182
1182
1182
2182
C1FE
ENDCHAR
STARTCHAR 3E68
ENCODING 15976
SWIDTH 1020 0
DWIDTH 17 0
BBX 15 16 1 -1
BITMAP
0820
8820
8820
5020
2020
27FE
5422
9422
1422
3422
57FE
9422
1422
1422
2422
C7FE
ENDCHAR
STARTCHAR 3E83
ENCODING 16003
SWIDTH 1020 0
DWIDTH 17 0
BBX 16 16 1 -1
BITMAP
0988
8988
8988
57FF
2188
2188
5300
93FE
1402
35F2
5992
9192
1192
11F2
2002
C01C
ENDCHAR
STARTCHAR 3E94
ENCODING 16020
SWIDTH 1020 0
DWIDTH 17 0
BBX 16 16 1 -1
BITMAP
0818
8BE4
8BE4
5322
2412
23FC
5304
93FE
1302
3302
53FF
9401
1415
1B4B
2321
C406
ENDCHAR
STARTCHAR 3F57
ENCODING 16215
SWIDTH 1020 0
DWIDTH 17 0
BBX 16 16 1 -1
BITMAP
0020
0020
0020
F820
A820
A820
A820
F820
A820
A850
A850
A850
F988
0188
0304
0C03
ENDCHAR
STARTCHAR 3F72
ENCODING 16242
SWIDTH 1020 0
DWIDTH 17 0
BBX 15 16 1 -1
BITMAP
0040
0040
0040
3FFE
A000
6000
2FFE
2180
2180
63FC
A304
2404
4004
4008
8008
0070
ENDCHAR
STARTCHAR 3F75
ENCODING 16245
SWIDTH 1020 0
DWIDTH 17 0
BBX 15 16 1 -1
BITMAP
0180
0180
0180
3FFE
A000
6040
2040
2040
2040
6FFC
A040
2040
4040
4040
8040
1FFE
ENDCHAR
STARTCHAR 3F77
ENCODING 16247
SWIDTH 1020 0
DWIDTH 17 0
BBX 16 16 1 -1
BITMAP
0040
0040
0040
3FFE
A000
6040
2042
3F42
2364
6368
A350
2450
4448
4844
9043
03C0
ENDCHAR
STARTCHAR 3FAE
ENCODING 16302
SWIDTH 1020 0
DWIDTH 17 0
BBX 16 16 1 -1
BITMAP
0180
0180
0180
3FFE
A180
67FC
2404
27FC
2404
67FC
A000
2FFE
4040
47FC
8040
1FFF
ENDCHAR
STARTCHAR 3FC9
ENCODING 16329
SWIDTH 1020 0
DWIDTH 17 0
BBX 16 16 1 -1
BITMAP
0180
0180
0180
3FFE
A040
67FC
2444
27FC
2040
7FFF
A404
27FC
4404
47FC
8308
0C07
ENDCHAR
STARTCHAR 3FD7
ENCODING 16343
SWIDTH 1020 0
DWIDTH 17 0
BBX 16 16 1 -1
BITMAP
0040
3FFE
3FFE
2000
A1DF
6F04
231F
3FF1
279F
6B51
B33F
2591
4591
459F
89CA
1191
ENDCHAR
STARTCHAR 4039
ENCODING 16441
SWIDTH 1020 0
DWIDTH 17 0
BBX 16 16 1 -1
BITMAP
0020
F020
F020
9FFF
9020
9324
F324
9324
95AA
95AA
F821
9050
9050
9188
F304
0C03
ENDCHAR
STARTCHAR 4058
ENCODING 16472
SWIDTH 1020 0
DWIDTH 17 0
BBX 16 16 1 -1
BITMAP
0020
F07C
F07C
91C4
9728
9190
F060
97C0
91FE
9320
F020
97FF
9020
9422
F422
07FE
ENDCHAR
STARTCHAR 4093
ENCODING 16531
SWIDTH 1020 0
DWIDTH 17 0
BBX 16 16 1 -1
BITMAP
2000
21FC
21FC
3984
51FC
9184
1184
11FC
FD84
1184
11FC
2848
2448
4449
8189
0307
ENDCHAR
STARTCHAR 4105
ENCODING 16645
SWIDTH 1020 0
DWIDTH 17 0
BBX 16 16 1 -1
BITMAP
1188
0988
0988
0990
3FFC
0340
0340
FFFF
0810
17E8
2004
DFFB
0180
1998
6186
0780
ENDCHAR
STARTCHAR 4148
ENCODING 16712
SWIDTH 1020 0
DWIDTH 17 0
BBX 16 16 1 -1
BITMAP
1188
0988
0988
0990
3FFC
0340
0340
FFFF
0420
1858
E787
0180
3FFE
05A0
1998
6186
ENDCHAR
STARTCHAR 414F
ENCODING 16719
SWIDTH 1020 0
DWIDTH 17 0
BBX 16 16 1 -1
BITMAP
1800
E3FE
E3FE
2302
23FE
FB00
230E
2370
7310
6B1E
ABF0
A31E
23F0
2311
2411
200F
ENDCHAR
STARTCHAR 4163
ENCODING 16739
SWIDTH 1020 0
DWIDTH 17 0
BBX 16 16 1 -1
BITMAP
1820
E040
E040
23FC
2304
FBFC
2304
2304
63FC
7000
AFFE
A820
23FC
2020
2020
27FF
ENDCHAR
STARTCHAR 41B4
ENCODING 16820
SWIDTH 1020 0
DWIDTH 17 0
BBX 16 16 1 -1
BITMAP
0180
7FFE
7FFE
4822
F31F
07E0
1840
FFF8
2188
3FFC
2184
3FFC
2184
3FFD
0181
007F
ENDCHAR
STARTCHAR 41BF
ENCODING 16831
SWIDTH 1020 0
DWIDTH 17 0
BBX 16 16 1 -1
BITMAP
0180
7FFE
7FFE
4422
F83F
0020
49FE
4982
49FE
7982
09FE
F982
2BFF
2854
4992
8B11
ENDCHAR
STARTCHAR 41E6
ENCODING 16870
SWIDTH 1020 0
DWIDTH 17 0
BBX 16 16 1 -1
BITMAP
2020
2020
2020
3F7F
4988
8584
0180
1FF8
1188
1188
1188
7FFE
0340
0420
1818
E007
ENDCHAR
STARTCHAR 41EE
ENCODING 16878
SWIDTH 1020 0
DWIDTH 17 0
BBX 16 16 1 -1
BITMAP
2020
2020
2020
3F7F
4988
8404
080C
09F0
1010
1010
37FF
5010
9010
1010
1010
11FE
ENDCHAR
STARTCHAR 41F3
ENCODING 16883
SWIDTH 1020 0
DWIDTH 17 0
BBX 16 16 1 -1
BITMAP
2020
2020
2020
3F7F
4988
8424
0190
3FFE
0180
1FFC
0180
7FFE
0050
0021
03D9
7C06
ENDCHAR
STARTCHAR 4207
ENCODING 16903
SWIDTH 1020 0
DWIDTH 17 0
BBX 16 16 1 -1
BITMAP
2020
2020
2020
3F7F
4988
8584
01FC
0180
1FF8
1008
1FF8
1008
1FF8
0180
7FFE
0180
ENDCHAR
STARTCHAR 420E
ENCODING 16910
SWIDTH 1020 0
DWIDTH 17 0
BBX 16 16 1 -1
BITMAP
2020
7F7F
7F7F
8988
1188
FFFF
1188
11F8
1000
1FFE
0180
FFFF
05A0
1998
E187
0180
ENDCHAR
STARTCHAR 4264
ENCODING 16996
SWIDTH 1020 0
DWIDTH 17 0
BBX 16 16 1 -1
BITMAP
2020
2020
2020
7FBF
4854
9310
543F
FF22
5452
9392
1014
FF8C
2408
6414
1822
E741
ENDCHAR
STARTCHAR 42C6
ENCODING 17094
SWIDTH 1020 0
DWIDTH 17 0
BBX 16 16 1 -1
BITMAP
1000
21FF
21FF
4400
2800
107F
2441
4C41
F341
137F
5040
5440
9340
9180
1180
1300
ENDCHAR
STARTCHAR 42D6
ENCODING 17110
SWIDTH 1020 0
DWIDTH 17 0
BBX 16 16 1 -1
BITMAP
1010
2010
2010
45FE
2812
11FF
2412
4DFE
F310
13FE
5010
5810
97FF
9410
1010
1010
ENDCHAR
STARTCHAR 42DD
ENCODING 17117
SWIDTH 1020 0
DWIDTH 17 0
BBX 16 16 1 -1
BITMAP
1021
2321
2321
4591
2992
1182
2404
4C20
F3FF
1344
5044
5984
95E8
9410
102C
13C3
ENDCHAR
STARTCHAR 4302
ENCODING 17154
SWIDTH 1020 0
DWIDTH 17 0
BBX 16 16 1 -1
BITMAP
1000
23FE
23FE
4702
2B02
13FE
2300
4F7F
F310
1326
5379
5B08
947E
9408
1408
11FF
ENDCHAR
STARTCHAR 432B
ENCODING 17195
SWIDTH 1020 0
DWIDTH 17 0
BBX 16 16 1 -1
BITMAP
1008
23E8
23E8
474F
2BF0
1320
23EE
4F40
F3FE
1182
51FE
5982
95FE
9428
1049
1387
ENDCHAR
STARTCHAR 4343
ENCODING 17219
SWIDTH 1020 0
DWIDTH 17 0
BBX 16 16 1 -1
BITMAP
0180
07F8
07F8
3988
0450
0360
0780
3800
1FFC
2180
4180
FFFF
0180
2184
2184
3FFC
ENDCHAR
STARTCHAR 43EE
ENCODING 17390
SWIDTH 1020 0
DWIDTH 17 0
BBX 16 16 1 -1
BITMAP
0020
7820
7820
4BFE
4822
4842
7842
4982
4B1C
4800
7B83
4844
4800
4828
89C4
9F03
ENDCHAR
STARTCHAR 43F0
ENCODING 17392
SWIDTH 1020 0
DWIDTH 17 0
BBX 16 15 1 -1
BITMAP
7BFE
7BFE
4822
4B22
49A2
7842
49A2
4B22
480C
7820
4810
4852
4B41
8B45
9C3C
ENDCHAR
STARTCHAR 4408
ENCODING 17416
SWIDTH 1020 0
DWIDTH 17 0
BBX 16 16 1 -1
BITMAP
0010
7810
7810
4FFF
4810
487E
7B42
4B7E
4B42
4B42
7B7E
4B42
4B42
4B7E
8B00
9BFF
ENDCHAR
STARTCHAR 4417
ENCODING 17431
SWIDTH 1020 0
DWIDTH 17 0
BBX 16 16 1 -1
BITMAP
0040
7842
7842
4FFE
4844
4844
7848
4FFF
4828
4BFC
7F04
4B04
4BFC
4B04
8B04
9BFC
ENDCHAR
STARTCHAR 441C
ENCODING 17436
SWIDTH 1020 0
DWIDTH 17 0
BBX 16 16 1 -1
BITMAP
0186
79F8
79F8
4981
487F
4800
7B7E
4B42
4B7E
4B42
7B7E
4B42
4BFF
4810
8864
9B83
ENDCHAR
STARTCHAR 4422
ENCODING 17442
SWIDTH 1020 0
DWIDTH 17 0
BBX 15 16 1 -1
BITMAP
0180
79FE
79FE
4B22
4DAA
49AA
79FA
4842
498C
49FE
7B22
4DAA
49AA
49FA
8842
998C
ENDCHAR
STARTCHAR 4453
ENCODING 17491
SWIDTH 1020 0
DWIDTH 17 0
BBX 16 16 1 -1
BITMAP
0810
0810
0810
7FFE
0810
0FF0
0810
FFFF
8001
BFFD
0808
3FF4
0180
1FF8
0180
FFFF
ENDCHAR
STARTCHAR 445B
ENCODING 17499
SWIDTH 1020 0
DWIDTH 17 0
BBX 16 16 1 -1
BITMAP
1C0C
F1F8
F1F8
1188
1188
1188
FDFF
1188
1188
1188
7D88
45E8
4784
4405
47F5
7C02
ENDCHAR
STARTCHAR 4476
ENCODING 17526
SWIDTH 1020 0
DWIDTH 17 0
BBX 16 16 1 -1
BITMAP
1010
2010
2010
7DFF
4410
55FE
5410
45FF
FF00
45FE
5592
5592
55FE
5582
8582
8D86
ENDCHAR
STARTCHAR 447A
ENCODING 17530
SWIDTH 1020 0
DWIDTH 17 0
BBX 16 16 1 -1
BITMAP
1000
21FE
21FE
7D82
459A
55E2
55A2
45FA
FFAA
45AA
55FA
55A2
55AA
55BA
85E5
8F01
ENDCHAR
STARTCHAR 4491
ENCODING 17553
SWIDTH 1020 0
DWIDTH 17 0
BBX 16 5 1 5
BITMAP
2008
1008
0810
0820
FFFF
ENDCHAR
STARTCHAR 44B3
ENCODING 17587
SWIDTH 1020 0
DWIDTH 17 0
BBX 16 16 1 -1
BITMAP
0810
0810
0810
FFFF
0810
0000
3FF8
0410
083E
1002
600C
0180
FFFF
05A0
1998
E187
ENDCHAR
STARTCHAR 44BE
ENCODING 17598
SWIDTH 1020 0
DWIDTH 17 0
BBX 16 16 1 -1
BITMAP
0810
0810
0810
FFFF
0810
0810
0180
0180
FFFF
0340
0442
1824
E828
0810
0F8C
7803
ENDCHAR
STARTCHAR 44D4
ENCODING 17620
SWIDTH 1020 0
DWIDTH 17 0
BBX 16 16 1 -1
BITMAP
0810
0810
0810
FFFF
0810
0184
1FF8
01B0
7FFE
0C00
F7FC
0030
7FFF
0040
0040
03C0
ENDCHAR
STARTCHAR 4508
ENCODING 17672
SWIDTH 1020 0
DWIDTH 17 0
BBX 16 16 1 -1
BITMAP
0810
0810
0810
FFFF
0810
3FFC
0180
FFFF
1008
1FF8
1008
1FF8
1008
1FF8
0810
700E
ENDCHAR
STARTCHAR 450D
ENCODING 17677
SWIDTH 1020 0
DWIDTH 17 0
BBX 16 16 1 -1
BITMAP
0810
0810
0810
FFFF
0810
3FFE
2040
3FFC
2040
3FFC
2040
3FFF
0001
4991
8449
8446
ENDCHAR
STARTCHAR 4525
ENCODING 17701
SWIDTH 1020 0
DWIDTH 17 0
BBX 16 16 1 -1
BITMAP
0810
FFFF
FFFF
0990
3FFC
0184
FFFF
0184
3FFC
0990
25A4
2FFC
23C4
45A4
599C
8184
ENDCHAR
STARTCHAR 4543
ENCODING 17731
SWIDTH 1020 0
DWIDTH 17 0
BBX 16 16 1 -1
BITMAP
0810
FFFF
FFFF
0810
006C
7F83
447C
4840
507C
4840
447C
4440
47FF
5844
419A
43E1
ENDCHAR
STARTCHAR 459D
ENCODING 17821
SWIDTH 1020 0
DWIDTH 17 0
BBX 16 16 1 -1
BITMAP
001C
01E0
01E0
7F80
0180
0180
3FFC
2184
2184
2184
3FFC
0188
0184
019E
03E1
FC01
ENDCHAR
STARTCHAR 45B8
ENCODING 17848
SWIDTH 1020 0
DWIDTH 17 0
BBX 16 16 1 -1
BITMAP
7F24
1022
1022
FFFF
1024
1F14
F018
1064
7383
0180
3FFC
2184
3FFC
0182
019F
FFE1
ENDCHAR
STARTCHAR 45E5
ENCODING 17893
SWIDTH 1020 0
DWIDTH 17 0
BBX 16 16 1 -1
BITMAP
21A2
21A2
21A2
2322
FB55
AC55
A980
A988
AB08
FB48
274E
2B48
2B48
3B48
C778
038F
ENDCHAR
STARTCHAR 45EA
ENCODING 17898
SWIDTH 1020 0
DWIDTH 17 0
BBX 16 16 1 -1
BITMAP
0040
3FFF
3FFF
2310
3FFF
2310
43F0
4B24
9192
1192
3FFC
2184
3FFC
0188
01FE
FF01
ENDCHAR
STARTCHAR 460F
ENCODING 17935
SWIDTH 1020 0
DWIDTH 17 0
BBX 16 16 1 -1
BITMAP
0800
081F
081F
1011
7F91
5592
5592
5594
5592
5592
5591
5591
57D1
7C16
C010
0010
ENDCHAR
STARTCHAR 4641
ENCODING 17985
SWIDTH 1020 0
DWIDTH 17 0
BBX 16 16 1 -1
BITMAP
2190
2188
2188
21FC
FF80
0848
0872
178C
1010
3588
69FC
A780
2058
2021
21D9
2706
ENDCHAR
STARTCHAR 4665
ENCODING 18021
SWIDTH 1020 0
DWIDTH 17 0
BBX 16 16 1 -1
BITMAP
2000
23FC
23FC
2020
FBFE
0B22
0BBA
1020
1050
358C
6B7B
A400
29FC
2024
202C
2020
ENDCHAR
STARTCHAR 46A1
ENCODING 18081
SWIDTH 1020 0
DWIDTH 17 0
BBX 16 16 1 -1
BITMAP
2000
3DFE
3DFE
2592
4992
FDFE
5592
5592
7D92
55FE
5410
7C08
45AA
45A2
8725
8C1C
ENDCHAR
STARTCHAR 46AF
ENCODING 18095
SWIDTH 1020 0
DWIDTH 17 0
BBX 15 16 1 -1
BITMAP
0002
7C02
7C02
0022
FF22
0022
7C22
0022
7C22
0022
0022
7C22
4422
4402
4402
7C0E
ENDCHAR
STARTCHAR 470C
ENCODING 18188
SWIDTH 1020 0
DWIDTH 17 0
BBX 16 16 1 -1
BITMAP
2008
23C8
23C8
4010
D7F4
2008
2BCA
5816
E7D9
2008
300A
AFDA
A469
A449
2448
27C8
ENDCHAR
STARTCHAR 4764
ENCODING 18276
SWIDTH 1020 0
DWIDTH 17 0
BBX 16 16 1 -1
BITMAP
0810
3010
3010
CBFF
2428
09AA
3044
C9FE
1B45
247C
CC44
147C
2410
C454
0B93
3030
ENDCHAR
STARTCHAR 47FD
ENCODING 18429
SWIDTH 1020 0
DWIDTH 17 0
BBX 16 16 1 -1
BITMAP
0010
7C10
7C10
47FF
4420
4424
7C4E
11F1
1000
5C54
5054
5054
5054
5195
5D95
E303
ENDCHAR
STARTCHAR 4816
ENCODING 18454
SWIDTH 1020 0
DWIDTH 17 0
BBX 16 16 1 -1
BITMAP
0010
7D90
7D90
445F
4429
440A
7C48
1194
1322
5C41
5000
51FE
5182
5182
5D82
E1FE
ENDCHAR
STARTCHAR 4844
ENCODING 18500
SWIDTH 1020 0
DWIDTH 17 0
BBX 16 16 1 -1
BITMAP
1000
1078
1078
FF48
1048
7C48
5448
7C48
5448
5448
7C48
1048
FF48
1189
1189
1307
ENDCHAR
STARTCHAR 484E
ENCODING 18510
SWIDTH 1020 0
DWIDTH 17 0
BBX 16 16 1 -1
BITMAP
1000
11FF
11FF
FF00
1000
7C7F
5441
7C41
547F
5440
7C40
1040
FF40
1180
1180
1300
ENDCHAR
STARTCHAR 48B5
ENCODING 18613
SWIDTH 1020 0
DWIDTH 17 0
BBX 16 15 1 -1
BITMAP
3F3F
3F3F
0021
0021
0022
0022
FFA4
1022
1022
1021
1421
2321
2326
3DA0
E1A0
ENDCHAR
STARTCHAR 49B0
ENCODING 18864
SWIDTH 1020 0
DWIDTH 17 0
BBX 15 15 1 -1
BITMAP
FC7E
FC7E
8442
FC7E
8442
FC7E
8FE2
9042
9FE2
9322
BFF2
A312
BFF2
830A
83FE
ENDCHAR
STARTCHAR 49E7
ENCODING 18919
SWIDTH 1020 0
DWIDTH 17 0
BBX 16 16 1 -1
BITMAP
0304
F988
F988
8FFE
8820
93FC
A020
97FF
9044
8F92
8990
8FFF
B192
83D4
8D89
83B7
ENDCHAR
STARTCHAR 49FA
ENCODING 18938
SWIDTH 1020 0
DWIDTH 17 0
BBX 16 16 1 -1
BITMAP
1022
1022
1022
1044
FDFF
1388
1188
21FE
2188
7D88
C588
45FE
4588
4588
7D88
01FF
ENDCHAR
STARTCHAR 4A04
ENCODING 18948
SWIDTH 1020 0
DWIDTH 17 0
BBX 16 16 1 -1
BITMAP
3812
4412
4412
BB24
007F
7DC8
0848
FF7E
2848
FF48
AB48
CF7E
8348
FF48
8348
FF7F
ENDCHAR
STARTCHAR 4A29
ENCODING 18985
SWIDTH 1020 0
DWIDTH 17 0
BBX 16 15 1 -1
BITMAP
7FFE
7FFE
0180
FFFF
8181
BC3D
0008
7C08
007F
FF49
107F
5449
547F
9408
1008
ENDCHAR
STARTCHAR 4ABC
ENCODING 19132
SWIDTH 1020 0
DWIDTH 17 0
BBX 16 16 1 -1
BITMAP
1000
11FF
11FF
9310
937E
9342
FF7E
1042
1042
937E
9342
9342
937E
9320
FF44
0383
ENDCHAR
STARTCHAR 4B3B
ENCODING 19259
SWIDTH 1020 0
DWIDTH 17 0
BBX 16 16 1 -1
BITMAP
1014
1012
1012
29FF
5710
D010
7DFE
4410
7C10
45FF
7C10
4012
440C
4C09
7315
C362
ENDCHAR
STARTCHAR 4BC2
ENCODING 19394
SWIDTH 1020 0
DWIDTH 17 0
BBX 16 16 1 -1
BITMAP
1FFC
1040
1040
1FF8
1040
1FFC
15A4
2354
7F7F
4848
7FFF
55A9
AB97
7FFE
0DB0
F18F
ENDCHAR
STARTCHAR 4BCA
ENCODING 19402
SWIDTH 1020 0
DWIDTH 17 0
BBX 16 15 1 -1
BITMAP
7DFF
7DFF
4402
5C02
547A
FF4A
834A
7C4A
444A
7C4A
447A
7C02
4402
4402
4C0E
ENDCHAR
STARTCHAR 4BD2
ENCODING 19410
SWIDTH 1020 0
DWIDTH 17 0
BBX 16 16 1 -1
BITMAP
0020
7C27
7C27
4440
5D80
5410
FF17
8322
7C62
45A2
7C22
4422
7C22
4422
4422
4C26
ENDCHAR
STARTCHAR 4BE8
ENCODING 19432
SWIDTH 1020 0
DWIDTH 17 0
BBX 16 16 1 -1
BITMAP
0180
FFFF
FFFF
0000
0FF0
0810
7FFE
4002
4FF2
4812
4FF6
0180
FFFF
0340
0C30
F00F
ENDCHAR
STARTCHAR 4C17
ENCODING 19479
SWIDTH 1020 0
DWIDTH 17 0
BBX 15 15 1 -1
BITMAP
BC7A
BC7A
8822
BC7A
8822
BC7A
8FE2
9042
9FE2
9322
BFF2
A312
BFF2
830A
83FE
ENDCHAR
STARTCHAR 4C20
ENCODING 19488
SWIDTH 1020 0
DWIDTH 17 0
BBX 16 16 1 -1
BITMAP
0808
1008
1008
7F7F
4B49
4B49
7F7F
4B49
4B49
7F49
287F
2B08
2B48
4FC9
4801
87FF
ENDCHAR
STARTCHAR 4CC4
ENCODING 19652
SWIDTH 1020 0
DWIDTH 17 0
BBX 16 16 1 -1
BITMAP
0008
1410
1410
147E
1442
147E
55C2
5F7E
5440
547F
5440
547F
5C01
75AB
C3A9
0006
ENDCHAR
STARTCHAR 4CD1
ENCODING 19665
SWIDTH 1020 0
DWIDTH 17 0
BBX 16 16 1 -1
BITMAP
1010
1020
1020
7F7E
1042
107E
3F42
237E
6340
BF7F
2340
237F
3F01
2355
2355
2702
ENDCHAR
STARTCHAR 4D07
ENCODING 19719
SWIDTH 1020 0
DWIDTH 17 0
BBX 16 16 1 -1
BITMAP
0008
FF90
FF90
083E
FFA2
89BE
EDA2
89BE
6C20
373F
D9E0
003F
7F01
1355
1755
1182
ENDCHAR
STARTCHAR 4D77
ENCODING 19831
SWIDTH 1020 0
DWIDTH 17 0
BBX 16 16 1 -1
BITMAP
1000
13FE
13FE
7B52
13DE
1050
FBDE
0352
1352
13DE
7B52
1352
13DE
1C50
3041
C03F
ENDCHAR
STARTCHAR 4E00
ENCODING 19968
SWIDTH 1020 0
DWIDTH 17 0
BBX 15 1 1 6
BITMAP
FFFE
ENDCHAR
STARTCHAR 4E01
ENCODING 19969
SWIDTH 1020 0
DWIDTH 17 0
BBX 14 15 2 -1
BITMAP
FFFC
FFFC
0300
0300
0300
0300
0300
0300
0300
0300
0300
0300
0300
0300
0F00
ENDCHAR
STARTCHAR 4E02
ENCODING 19970
SWIDTH 1020 0
DWIDTH 17 0
BBX 12 15 3 -1
BITMAP
FFF0
FFF0
0C00
0C00
1000
1000
3FC0
2040
0040
0040
0040
0040
0080
0080
0F00
ENDCHAR
STARTCHAR 4E03
ENCODING 19971
SWIDTH 1020 0
DWIDTH 17 0
BBX 16 16 1 -1
BITMAP
0800
0800
0800
0800
0800
0807
0838
0FC0
F800
0800
0800
0800
0802
0802
0402
03FE
ENDCHAR
STARTCHAR 4E07
ENCODING 19975
SWIDTH 1020 0
DWIDTH 17 0
BBX 15 15 1 -1
BITMAP
7FFE
7FFE
0400
0400
0400
07F8
0408
0408
0808
0808
1008
1008
2010
4010
81E0
ENDCHAR
STARTCHAR 4E08
ENCODING 19976
SWIDTH 1020 0
DWIDTH 17 0
BBX 14 16 2 -1
BITMAP
0080
0080
0080
0080
FFFC
0080
0080
2080
2080
1300
0B00
0600
0B00
10C0
2030
C00C
ENDCHAR
STARTCHAR 4E09
ENCODING 19977
SWIDTH 1020 0
DWIDTH 17 0
BBX 15 12 1 0
BITMAP
3FF8
0000
0000
0000
0000
1FF0
0000
0000
0000
0000
0000
FFFE
ENDCHAR
STARTCHAR 4E0A
ENCODING 19978
SWIDTH 1020 0
DWIDTH 17 0
BBX 15 15 1 -1
BITMAP
0300
0300
0300
0300
0300
0300
0300
03F8
0300
0300
0300
0300
0300
0300
FFFE
ENDCHAR
STARTCHAR 4E0B
ENCODING 19979
SWIDTH 1020 0
DWIDTH 17 0
BBX 15 15 1 -1
BITMAP
FFFE
FFFE
0300
0300
0300
0300
03C0
0330
0300
0300
0300
0300
0300
0300
0300
ENDCHAR
STARTCHAR 4E0D
ENCODING 19981
SWIDTH 1020 0
DWIDTH 17 0
BBX 16 15 1 -1
BITMAP
7FFE
7FFE
0040
0180
03C0
05A0
0990
318C
C183
0180
0180
0180
0180
0180
0180
ENDCHAR
STARTCHAR 4E0E
ENCODING 19982
SWIDTH 1020 0
DWIDTH 17 0
BBX 16 16 1 -1
BITMAP
0400
0400
0400
0400
07F8
0400
0800
0FF0
0810
0010
FFFF
0010
0010
0020
0020
07C0
ENDCHAR
STARTCHAR 4E0F
ENCODING 19983
SWIDTH 1020 0
DWIDTH 17 0
BBX 16 15 1 -1
BITMAP
FFFF
FFFF
0180
0180
21FE
2182
2182
2182
3FFE
0002
0002
0002
0004
0004
0078
ENDCHAR
STARTCHAR 4E10
ENCODING 19984
SWIDTH 1020 0
DWIDTH 17 0
BBX 14 15 2 -1
BITMAP
FFFC
FFFC
0300
4300
43F8
4300
4300
7FFC
0004
0004
0004
0004
0008
0008
0070
ENDCHAR
STARTCHAR 4E11
ENCODING 19985
SWIDTH 1020 0
DWIDTH 17 0
BBX 16 14 1 0
BITMAP
7FF8
7FF8
0408
0408
0408
0408
0408
7FFF
0808
0808
0808
0808
0808
FFFF
ENDCHAR
STARTCHAR 4E12
ENCODING 19986
SWIDTH 1020 0
DWIDTH 17 0
BBX 16 15 1 -1
BITMAP
7FFE
7FFE
0182
1182
0982
0582
0302
0382
0442
0802
1004
2004
C038
0000
FFFF
ENDCHAR
STARTCHAR 4E14
ENCODING 19988
SWIDTH 1020 0
DWIDTH 17 0
BBX 14 14 2 0
BITMAP
1FE0
1FE0
1020
1020
1020
1FE0
1020
1020
1020
1FE0
1020
1020
1020
FFFC
ENDCHAR
STARTCHAR 4E15
ENCODING 19989
SWIDTH 1020 0
DWIDTH 17 0
BBX 16 15 1 -1
BITMAP
7FFE
7FFE
0040
0040
0180
03A0
0590
0988
3184
C183
0180
0180
0180
0000
FFFF
ENDCHAR
STARTCHAR 4E16
ENCODING 19990
SWIDTH 1020 0
DWIDTH 17 0
BBX 16 15 1 -1
BITMAP
1188
1188
1188
1188
1188
FFFF
1188
1188
1188
1188
11F8
1000
1000
1000
1FFE
ENDCHAR
STARTCHAR 4E17
ENCODING 19991
SWIDTH 1020 0
DWIDTH 17 0
BBX 16 16 1 -1
BITMAP
1188
1188
1188
1188
1188
1188
1188
FFFF
1188
1188
1188
1188
1188
1188
1188
1FF8
ENDCHAR
STARTCHAR 4E18
ENCODING 19992
SWIDTH 1020 0
DWIDTH 17 0
BBX 16 14 1 0
BITMAP
0070
0070
1F80
1000
1000
1FFC
1010
1010
1010
1010
1010
1010
1010
FFFF
ENDCHAR
STARTCHAR 4E19
ENCODING 19993
SWIDTH 1020 0
DWIDTH 17 0
BBX 15 15 1 -1
BITMAP
FFFE
FFFE
0300
0300
7FFC
4304
4584
4444
4824
5014
4004
4004
4004
4004
401C
ENDCHAR
STARTCHAR 4E1E
ENCODING 19998
SWIDTH 1020 0
DWIDTH 17 0
BBX 16 15 1 -1
BITMAP
3FF8
3FF8
0010
0020
01C0
79C2
09A4
11A8
2190
4188
8184
0183
0F80
0000
7FFE
ENDCHAR
STARTCHAR 4E21
ENCODING 20001
SWIDTH 1020 0
DWIDTH 17 0
BBX 16 15 1 -1
BITMAP
FFFF
FFFF
0180
0180
7FFE
4182
4182
4992
4992
4992
4992
4FF2
4002
4002
400E
ENDCHAR
STARTCHAR 4E26
ENCODING 20006
SWIDTH 1020 0
DWIDTH 17 0
BBX 16 16 1 -1
BITMAP
1008
1008
1008
0810
0820
7FFE
0420
0420
4422
4422
4422
2424
2424
0420
0420
FFFF
ENDCHAR
STARTCHAR 4E28
ENCODING 20008
SWIDTH 1020 0
DWIDTH 17 0
BBX 2 15 7 -1
BITMAP
C0
C0
C0
C0
C0
C0
C0
C0
C0
C0
C0
C0
C0
C0
C0
ENDCHAR
STARTCHAR 4E29
ENCODING 20009
SWIDTH 1020 0
DWIDTH 17 0
BBX 10 16 3 -1
BITMAP
0040
0040
0040
2040
2040
2040
2040
2040
2040
2040
21C0
2E40
3040
C040
0040
0040
ENDCHAR
STARTCHAR 4E2A
ENCODING 20010
SWIDTH 1020 0
DWIDTH 17 0
BBX 16 16 1 -1
BITMAP
0180
0180
0180
0340
0420
0810
1188
2184
C183
0180
0180
0180
0180
0180
0180
0180
ENDCHAR
STARTCHAR 4E2B
ENCODING 20011
SWIDTH 1020 0
DWIDTH 17 0
BBX 11 15 3 -1
BITMAP
8020
8020
4040
2080
1100
0E00
0C00
0C00
0C00
0C00
0C00
0C00
0C00
0C00
0C00
ENDCHAR
STARTCHAR 4E2C
ENCODING 20012
SWIDTH 1020 0
DWIDTH 17 0
BBX 7 16 5 -1
BITMAP
02
02
02
02
42
32
1A
1A
02
06
1A
32
C2
02
02
02
ENDCHAR
STARTCHAR 4E2D
ENCODING 20013
SWIDTH 1020 0
DWIDTH 17 0
BBX 14 16 2 -1
BITMAP
0300
0300
0300
0300
FFFC
8304
8304
8304
8304
8304
FFFC
0300
0300
0300
0300
0300
ENDCHAR
STARTCHAR 4E2E
ENCODING 20014
SWIDTH 1020 0
DWIDTH 17 0
BBX 16 15 1 -1
BITMAP
FFF8
FFF8
0008
0408
0408
0408
7FE8
0408
0408
0408
7FE8
0404
0405
0405
0402
ENDCHAR
STARTCHAR 4E2F
ENCODING 20015
SWIDTH 1020 0
DWIDTH 17 0
BBX 15 16 1 -1
BITMAP
0300
030C
030C
03F0
3F00
0300
0318
03E0
7F00
0300
030E
03F0
FF00
0300
0300
0300
ENDCHAR
STARTCHAR 4E30
ENCODING 20016
SWIDTH 1020 0
DWIDTH 17 0
BBX 16 16 1 -1
BITMAP
0180
0180
0180
7FFE
0180
0180
0180
3FFC
0180
0180
0180
FFFF
0180
0180
0180
0180
ENDCHAR
STARTCHAR 4E31
ENCODING 20017
SWIDTH 1020 0
DWIDTH 17 0
BBX 15 16 1 -1
BITMAP
0420
0420
0420
4422
4422
4422
4422
4422
4422
4422
7C3E
0420
0420
0820
3020
C020
ENDCHAR
STARTCHAR 4E32
ENCODING 20018
SWIDTH 1020 0
DWIDTH 17 0
BBX 14 16 2 -1
BITMAP
0300
0300
0300
7FF8
4308
4308
7FF8
0300
FFFC
8304
8304
8304
FFFC
0300
0300
0300
ENDCHAR
STARTCHAR 4E36
ENCODING 20022
SWIDTH 1020 0
DWIDTH 17 0
BBX 11 9 3 2
BITMAP
C000
3000
0C00
0600
0100
0080
00C0
0060
0060
ENDCHAR
STARTCHAR 4E38
ENCODING 20024
SWIDTH 1020 0
DWIDTH 17 0
BBX 16 16 1 -1
BITMAP
0400
0400
0400
0400
FFF0
0410
0410
0410
0410
3410
0C10
0B10
0990
1011
2009
C007
ENDCHAR
STARTCHAR 4E39
ENCODING 20025
SWIDTH 1020 0
DWIDTH 17 0
BBX 16 15 1 -1
BITMAP
1FF8
1FF8
1008
1008
1308
1188
1048
1008
FFFF
1008
1008
2008
2008
4008
8038
ENDCHAR
STARTCHAR 4E3B
ENCODING 20027
SWIDTH 1020 0
DWIDTH 17 0
BBX 15 16 1 -1
BITMAP
0400
0300
0300
0180
7FFC
0300
0300
0300
0300
3FF8
0300
0300
0300
0300
0300
FFFE
ENDCHAR
STARTCHAR 4E3C
ENCODING 20028
SWIDTH 1020 0
DWIDTH 17 0
BBX 16 16 1 -1
BITMAP
0810
0810
0810
0810
FFFF
0810
0B10
0990
0850
0810
0810
FFFF
0810
1010
2010
C010
ENDCHAR
STARTCHAR 4E3F
ENCODING 20031
SWIDTH 1020 0
DWIDTH 17 0
BBX 9 16 2 -1
BITMAP
0080
0080
0080
0080
0080
0080
0080
0080
0080
0080
0300
0300
0600
0800
3000
C000
ENDCHAR
STARTCHAR 4E40
ENCODING 20032
SWIDTH 1020 0
DWIDTH 17 0
BBX 15 15 2 -1
BITMAP
1000
1000
1000
2800
2800
4800
8600
0600
0600
0300
0300
0080
0040
0030
000E
ENDCHAR
STARTCHAR 4E42
ENCODING 20034
SWIDTH 1020 0
DWIDTH 17 0
BBX 16 15 1 -1
BITMAP
1008
1008
1008
1008
0810
0810
0420
0420
0340
0180
0340
0420
0810
300C
C003
ENDCHAR
STARTCHAR 4E43
ENCODING 20035
SWIDTH 1020 0
DWIDTH 17 0
BBX 15 15 1 -1
BITMAP
7FF0
7FF0
0410
0410
0410
0410
041E
0802
0802
0802
1002
1002
2004
4004
8078
ENDCHAR
STARTCHAR 4E45
ENCODING 20037
SWIDTH 1020 0
DWIDTH 17 0
BBX 16 16 1 -1
BITMAP
0300
0300
0300
0400
07F0
0810
1020
6020
0040
0040
01A0
0320
0410
0808
3004
C003
ENDCHAR
STARTCHAR 4E47
ENCODING 20039
SWIDTH 1020 0
DWIDTH 17 0
BBX 16 16 1 -1
BITMAP
0018
01E0
01E0
3F00
0300
0300
0300
0300
FFFF
0300
0300
0300
0300
0302
0302
01FE
ENDCHAR
STARTCHAR 4E48
ENCODING 20040
SWIDTH 1020 0
DWIDTH 17 0
BBX 14 16 2 -1
BITMAP
1000
1000
1000
1000
1000
2000
2600
4600
8600
0600
0620
0810
0810
0818
13E4
FE04
ENDCHAR
STARTCHAR 4E4B
ENCODING 20043
SWIDTH 1020 0
DWIDTH 17 0
BBX 16 16 1 -1
BITMAP
0180
0180
0180
0180
7FFC
0008
0010
0020
0040
0180
0300
1400
2800
4700
81C0
803F
ENDCHAR
STARTCHAR 4E4D
ENCODING 20045
SWIDTH 1020 0
DWIDTH 17 0
BBX 16 16 1 -1
BITMAP
1000
1000
1000
1000
3FFF
2180
4180
8180
01FC
0180
0180
0180
01FE
0180
0180
0180
ENDCHAR
STARTCHAR 4E4E
ENCODING 20046
SWIDTH 1020 0
DWIDTH 17 0
BBX 16 16 1 -1
BITMAP
007C
7F80
7F80
0184
2184
2184
1188
0180
FFFF
0180
0180
0180
0180
0180
0180
0780
ENDCHAR
STARTCHAR 4E4F
ENCODING 20047
SWIDTH 1020 0
DWIDTH 17 0
BBX 16 15 1 -1
BITMAP
0038
0038
3FC0
0180
0180
0180
3FFC
0008
0030
01C0
1700
2800
4700
81C0
803F
ENDCHAR
STARTCHAR 4E51
ENCODING 20049
SWIDTH 1020 0
DWIDTH 17 0
BBX 16 16 1 -1
BITMAP
001C
0060
0060
0780
3980
0180
09C0
31C2
C1A4
01A8
0190
0988
3184
C183
0180
0180
ENDCHAR
STARTCHAR 4E55
ENCODING 20053
SWIDTH 1020 0
DWIDTH 17 0
BBX 16 16 1 -1
BITMAP
007C
7FC0
7FC0
4040
7FFF
4040
4040
7FFF
4040
4040
5FFE
9042
9042
1042
104E
0040
ENDCHAR
STARTCHAR 4E56
ENCODING 20054
SWIDTH 1020 0
DWIDTH 17 0
BBX 16 16 1 -1
BITMAP
001C
3FE0
3FE0
0180
0180
FFFF
0180
0990
0993
F99C
0990
0991
3991
C98F
0180
0180
ENDCHAR
STARTCHAR 4E57
ENCODING 20055
SWIDTH 1020 0
DWIDTH 17 0
BBX 16 16 1 -1
BITMAP
001C
3FE0
3FE0
0180
7FFE
1188
1188
FFFF
1188
1188
7FFE
05A0
0990
318C
C183
0180
ENDCHAR
ENDFONT
